G04 DipTrace 3.3.1.3*
G04 ViktorJager_MessageDisplay.GTO*
%MOMM*%
G04 #@! TF.FileFunction,Legend,Top*
G04 #@! TF.Part,Single*
%ADD10C,0.25*%
%ADD12C,0.0762*%
%ADD18C,0.1*%
%ADD22O,0.9525X0.95199*%
%ADD28O,0.9525X0.95301*%
%ADD29O,0.39193X0.39124*%
%ADD32O,0.5008X0.4993*%
%ADD37O,0.39191X0.39105*%
%ADD39C,0.3991*%
%ADD91C,0.19608*%
%ADD92C,0.15686*%
%ADD93C,0.11765*%
%ADD94C,0.07843*%
%FSLAX35Y35*%
G04*
G71*
G90*
G75*
G01*
G04 TopSilk*
%LPD*%
X3587439Y367877D2*
D10*
X3587926Y381825D1*
X3589386Y395706D1*
X3591811Y409451D1*
X3595189Y422994D1*
X3599504Y436268D1*
X3604735Y449208D1*
X3610857Y461753D1*
X3617839Y473840D1*
X3625647Y485411D1*
X3634244Y496409D1*
X3643588Y506782D1*
X3653633Y516477D1*
X3664330Y525448D1*
X3675627Y533652D1*
X3687470Y541048D1*
X3699799Y547601D1*
X3712556Y553278D1*
X3725678Y558051D1*
X3739101Y561898D1*
X3752760Y564800D1*
X3766588Y566743D1*
X3780518Y567716D1*
X3794482D1*
X3808412Y566743D1*
X3822240Y564800D1*
X3835899Y561898D1*
X3849322Y558051D1*
X3862444Y553278D1*
X3875201Y547601D1*
X3887530Y541048D1*
X3899373Y533652D1*
X3910670Y525448D1*
X3921367Y516477D1*
X3931412Y506782D1*
X3940756Y496409D1*
X3949353Y485411D1*
X3957161Y473840D1*
X3964143Y461753D1*
X3970265Y449208D1*
X3975496Y436268D1*
X3979811Y422994D1*
X3983189Y409451D1*
X3985614Y395706D1*
X3987074Y381825D1*
X3987561Y367877D1*
X3987074Y353928D1*
X3985614Y340047D1*
X3983189Y326302D1*
X3979811Y312760D1*
X3975496Y299486D1*
X3970265Y286545D1*
X3964143Y274000D1*
X3957161Y261913D1*
X3949353Y250342D1*
X3940756Y239344D1*
X3931412Y228972D1*
X3921367Y219276D1*
X3910670Y210305D1*
X3899373Y202101D1*
X3887530Y194705D1*
X3875201Y188152D1*
X3862444Y182476D1*
X3849322Y177702D1*
X3835899Y173855D1*
X3822240Y170953D1*
X3808412Y169011D1*
X3794482Y168037D1*
X3780518D1*
X3766588Y169011D1*
X3752760Y170953D1*
X3739101Y173855D1*
X3725678Y177702D1*
X3712556Y182476D1*
X3699799Y188152D1*
X3687470Y194705D1*
X3675627Y202101D1*
X3664330Y210305D1*
X3653633Y219276D1*
X3643588Y228972D1*
X3634244Y239344D1*
X3625647Y250342D1*
X3617839Y261913D1*
X3610857Y274000D1*
X3604735Y286545D1*
X3599504Y299486D1*
X3595189Y312760D1*
X3591811Y326302D1*
X3589386Y340047D1*
X3587926Y353928D1*
X3587439Y367877D1*
X3470055Y494877D2*
Y240877D1*
X3533495Y50377D2*
X4041505D1*
X3533495Y685377D2*
X4041505D1*
X4104945Y494877D2*
Y240877D1*
X3081200Y4058947D2*
X2951300D1*
Y3919303D2*
X3081200D1*
X2851427Y1573077D2*
Y1443177D1*
X2784197Y2987800D2*
Y3117700D1*
X4911447Y3189427D2*
Y3319327D1*
X4062550Y1533803D2*
X4192450D1*
X656947Y1014550D2*
Y1144450D1*
X3549927Y9304200D2*
Y9174300D1*
X4700450Y9107197D2*
X4570550D1*
X4954450D2*
X4824550D1*
X5208450D2*
X5078550D1*
X5462450D2*
X5332550D1*
X5716450D2*
X5586550D1*
X5970450D2*
X5840550D1*
X951050Y4554803D2*
X1080950D1*
X1292447Y3114800D2*
Y3244700D1*
X6381750Y1243000D2*
X5873750D1*
Y227000D1*
X6381750D1*
Y1243000D1*
D22*
X6461125Y1131900D3*
X1493640Y3725755D2*
D10*
X1173360D1*
X1493640Y3706673D2*
X1173360D1*
X1493640D2*
X1493504Y3826907D1*
X1173360Y3706673D2*
X1173496Y3826907D1*
X1782000Y3024000D2*
X1266000D1*
Y224000D1*
X1782000D1*
Y3024000D1*
X5750750D2*
X5234750D1*
Y224000D1*
X5750750D1*
Y3024000D1*
X412737Y957250D2*
X666750D1*
Y1973250D1*
X412737D1*
Y957250D1*
D28*
X333375Y1084250D3*
X706750Y2359750D2*
D10*
X626750D1*
D29*
X2743694Y3526894D3*
X2516999Y3524254D2*
D10*
Y4184222D1*
X2237001Y3524254D2*
Y4184222D1*
X2516999D2*
X2237001D1*
X2516999Y3524254D2*
X2237001D1*
X20178Y3120265D2*
X-69760D1*
X-69834Y3880224D2*
X20178D1*
D32*
X535208Y3370243D3*
X-69760Y3905255D2*
D10*
Y3095235D1*
Y3905255D2*
X-129768D1*
X-69760Y3095235D2*
X-129768D1*
Y3905255D2*
Y3095235D1*
D37*
X4004812Y4360476D3*
X4112183Y4337110D2*
D10*
Y4137138D1*
X4172281D1*
Y4337110D1*
X4112183D1*
D37*
X4544562Y4344602D3*
X4651933Y4321236D2*
D10*
Y4121265D1*
X4712031D1*
Y4321236D1*
X4651933D1*
X3072690Y2461060D2*
X3972810D1*
Y1560940D1*
X3072690D1*
Y2461060D1*
G36*
D2*
Y2380980D1*
X3152770Y2461060D1*
X3072690D1*
G37*
D39*
X2952765Y2456055D3*
X6222995Y2036820D2*
D10*
X6476998D1*
Y3560680D1*
X6222995D1*
Y2036820D1*
X190500Y4640250D2*
Y8958250D1*
X6286500D1*
Y4640250D1*
X190500D1*
X1301750Y9053500D2*
D18*
X2698750D1*
X2635250Y9117000D1*
X2698750Y9053500D2*
X2635250Y8990000D1*
Y9117000D2*
Y8990000D1*
X1301750Y9053500D2*
X1238250D1*
X5125720Y6903720D2*
D12*
X5323840D1*
X5095050Y6896100D2*
X5352822D1*
X5066675Y6888480D2*
X5380109D1*
X5041205Y6880860D2*
X5405223D1*
X5018597Y6873240D2*
X5428052D1*
X4998588Y6865620D2*
X5448354D1*
X4980517Y6858000D2*
X5466350D1*
X4964289Y6850380D2*
X5138750D1*
X5172647D2*
X5279327D1*
X5313485D2*
X5482645D1*
X4949360Y6842760D2*
X5103701D1*
X5167184D2*
X5281514D1*
X5345967D2*
X5497480D1*
X4934881Y6835140D2*
X5074303D1*
X5162538D2*
X5284726D1*
X5374756D2*
X5511088D1*
X4920979Y6827520D2*
X5048995D1*
X5158346D2*
X5288887D1*
X5399923D2*
X5524190D1*
X4908035Y6819900D2*
X5026428D1*
X5154359D2*
X5217450D1*
X5232110D2*
X5293641D1*
X5421960D2*
X5537130D1*
X4896095Y6812280D2*
X5006114D1*
X5150216D2*
X5210807D1*
X5238723D2*
X5298249D1*
X5441501D2*
X5549551D1*
X4885279Y6804660D2*
X4988480D1*
X5145420D2*
X5205043D1*
X5244249D2*
X5302541D1*
X5458822D2*
X5561248D1*
X4875537Y6797040D2*
X4973044D1*
X5139772D2*
X5199645D1*
X5248914D2*
X5306815D1*
X5474172D2*
X5571963D1*
X4866029Y6789420D2*
X4958962D1*
X5133982D2*
X5194325D1*
X5253112D2*
X5311445D1*
X5487793D2*
X5581666D1*
X4856182Y6781800D2*
X4946014D1*
X5128598D2*
X5189267D1*
X5257101D2*
X5316420D1*
X5500296D2*
X5591158D1*
X4846447Y6774180D2*
X4933849D1*
X5123354D2*
X5184191D1*
X5261214D2*
X5321337D1*
X5512393D2*
X5601000D1*
X4837437Y6766560D2*
X4922089D1*
X5118123D2*
X5179035D1*
X5265772D2*
X5326358D1*
X5524461D2*
X5610734D1*
X4829088Y6758940D2*
X4910564D1*
X5113323D2*
X5174266D1*
X5270687D2*
X5331495D1*
X5536086D2*
X5619743D1*
X4821137Y6751320D2*
X4899406D1*
X5108989D2*
X5169913D1*
X5275355D2*
X5336257D1*
X5546541D2*
X5628062D1*
X4813381Y6743700D2*
X4889498D1*
X5104927D2*
X5165617D1*
X5279669D2*
X5340608D1*
X5556231D2*
X5635715D1*
X4805709Y6736080D2*
X4881034D1*
X5100990D2*
X5160979D1*
X5283951D2*
X5344904D1*
X5565567D2*
X5642204D1*
X4798100Y6728460D2*
X4877245D1*
X5096896D2*
X5156001D1*
X5288584D2*
X5349542D1*
X5574288D2*
X5646810D1*
X4790771Y6720840D2*
X4859020D1*
X5092345D2*
X5151083D1*
X5293559D2*
X5354519D1*
X5582484D2*
X5649576D1*
X4784415Y6713220D2*
X4852632D1*
X5087432D2*
X5146062D1*
X5298507D2*
X5359437D1*
X5590367D2*
X5666740D1*
X4779861Y6705600D2*
X4846205D1*
X5082764D2*
X5140925D1*
X5303766D2*
X5364458D1*
X5598095D2*
X5670813D1*
X4777114Y6697980D2*
X4841313D1*
X5078451D2*
X5136163D1*
X5309606D2*
X5369595D1*
X5605757D2*
X5675976D1*
X4759960Y6690360D2*
X4838289D1*
X5074139D2*
X5131812D1*
X5315222D2*
X5374357D1*
X5613362D2*
X5681518D1*
X4757035Y6682740D2*
X4820920D1*
X5069268D2*
X5127516D1*
X5319702D2*
X5378708D1*
X5620720D2*
X5686822D1*
X4753522Y6675120D2*
X4816847D1*
X5063589D2*
X5122878D1*
X5323373D2*
X5383004D1*
X5627370D2*
X5692259D1*
X4749251Y6667500D2*
X4811684D1*
X5057818D2*
X5117931D1*
X5327388D2*
X5387642D1*
X5633166D2*
X5698207D1*
X4744428Y6659880D2*
X4806142D1*
X5052668D2*
X5113251D1*
X5331982D2*
X5392589D1*
X5638803D2*
X5704092D1*
X4739569Y6652260D2*
X4800868D1*
X5048156D2*
X5108933D1*
X5336710D2*
X5397269D1*
X5644826D2*
X5709287D1*
X4734600Y6644640D2*
X4795669D1*
X5044016D2*
X5104650D1*
X5341650D2*
X5401557D1*
X5650738D2*
X5713816D1*
X4729709Y6637020D2*
X4790424D1*
X5040048D2*
X5100016D1*
X5346754D2*
X5405602D1*
X5655942D2*
X5717961D1*
X4725652Y6629400D2*
X4785393D1*
X5035913D2*
X5095041D1*
X5351504D2*
X5409533D1*
X5660504D2*
X5721901D1*
X4722186Y6621780D2*
X4780327D1*
X5031119D2*
X5090123D1*
X5355851D2*
X5413654D1*
X5664918D2*
X5725769D1*
X4718258Y6614160D2*
X4775173D1*
X5025471D2*
X5085102D1*
X5360144D2*
X5418443D1*
X5669830D2*
X5729592D1*
X4713728Y6606540D2*
X4770405D1*
X5019712D2*
X5079965D1*
X5364782D2*
X5424089D1*
X5675493D2*
X5733415D1*
X4709280Y6598920D2*
X4766082D1*
X5014566D2*
X5075203D1*
X5369729D2*
X5429878D1*
X5681032D2*
X5737221D1*
X4705317Y6591300D2*
X4762025D1*
X5010055D2*
X5070852D1*
X5374409D2*
X5435262D1*
X5685450D2*
X5741008D1*
X4702039Y6583680D2*
X4758119D1*
X5005916D2*
X5066556D1*
X5378727D2*
X5440476D1*
X5688871D2*
X5744574D1*
X4699243Y6576060D2*
X4754264D1*
X5001948D2*
X5061918D1*
X5383010D2*
X5445469D1*
X5692149D2*
X5747657D1*
X4696256Y6568440D2*
X4750446D1*
X4997843D2*
X5056941D1*
X5387644D2*
X5449565D1*
X5695620D2*
X5750369D1*
X4692936Y6560820D2*
X4746654D1*
X4993287D2*
X5052023D1*
X5392619D2*
X5453076D1*
X5699248D2*
X5753323D1*
X4689623Y6553200D2*
X4743087D1*
X4988372D2*
X5047002D1*
X5397537D2*
X5457247D1*
X5702957D2*
X5756630D1*
X4686873Y6545580D2*
X4740003D1*
X4983705D2*
X5041865D1*
X5171440D2*
X5278120D1*
X5402558D2*
X5462512D1*
X5706462D2*
X5759939D1*
X4684931Y6537960D2*
X4737321D1*
X4979391D2*
X5037103D1*
X5147473D2*
X5299773D1*
X5407725D2*
X5468082D1*
X5709296D2*
X5762658D1*
X4683112Y6530340D2*
X4734604D1*
X4975079D2*
X5032752D1*
X5125508D2*
X5320446D1*
X5412725D2*
X5473146D1*
X5711270D2*
X5764362D1*
X4680880Y6522720D2*
X4732001D1*
X4970208D2*
X5028456D1*
X5106272D2*
X5340064D1*
X5417779D2*
X5477653D1*
X5713102D2*
X5765477D1*
X4678505Y6515100D2*
X4729546D1*
X4964529D2*
X5023818D1*
X5089077D2*
X5358466D1*
X5422929D2*
X5482019D1*
X5715338D2*
X5766825D1*
X4676147Y6507480D2*
X4726955D1*
X4958758D2*
X5018871D1*
X5073234D2*
X5375302D1*
X5427695D2*
X5486685D1*
X5717714D2*
X5768833D1*
X4673594Y6499860D2*
X4724657D1*
X4953608D2*
X5014191D1*
X5058644D2*
X5189995D1*
X5259565D2*
X5390461D1*
X5432048D2*
X5491673D1*
X5720073D2*
X5771113D1*
X4671310Y6492240D2*
X4723157D1*
X4949096D2*
X5009879D1*
X5045388D2*
X5159526D1*
X5290034D2*
X5403988D1*
X5436372D2*
X5496595D1*
X5722626D2*
X5773434D1*
X4669815Y6484620D2*
X4722129D1*
X4944956D2*
X5005636D1*
X5033250D2*
X5134925D1*
X5314635D2*
X5416240D1*
X5441257D2*
X5501618D1*
X5724910D2*
X5775973D1*
X4668788Y6477000D2*
X4720815D1*
X4940988D2*
X5001090D1*
X5022043D2*
X5115615D1*
X5333945D2*
X5427493D1*
X5447076D2*
X5506755D1*
X5726375D2*
X5778253D1*
X4667475Y6469380D2*
X4718850D1*
X4936853D2*
X4996180D1*
X5011420D2*
X5099946D1*
X5171440D2*
X5278120D1*
X5349614D2*
X5438140D1*
X5453380D2*
X5511517D1*
X5727164D2*
X5779716D1*
X4665510Y6461760D2*
X4716842D1*
X4932059D2*
X5085980D1*
X5132387D2*
X5316696D1*
X5363580D2*
X5515868D1*
X5727774D2*
X5780504D1*
X4663502Y6454140D2*
X4715494D1*
X4926411D2*
X5072380D1*
X5095240D2*
X5354320D1*
X5377180D2*
X5520164D1*
X5728885D2*
X5781114D1*
X4662154Y6446520D2*
X4714751D1*
X4920652D2*
X5057140D1*
X5072380D2*
X5377180D1*
X5392420D2*
X5524802D1*
X5730764D2*
X5782225D1*
X4661440Y6438900D2*
X4714157D1*
X4915506D2*
X5529779D1*
X5732737D2*
X5784104D1*
X4661115Y6431280D2*
X4713052D1*
X4910995D2*
X5142458D1*
X5170262D2*
X5279298D1*
X5307102D2*
X5534697D1*
X5734073D2*
X5786077D1*
X4660980Y6423660D2*
X4711175D1*
X4906856D2*
X5138001D1*
X5168373D2*
X5281187D1*
X5311559D2*
X5539718D1*
X5734782D2*
X5787413D1*
X4660929Y6416040D2*
X4709202D1*
X4902888D2*
X5080320D1*
X5102860D2*
X5135449D1*
X5166400D2*
X5283160D1*
X5314111D2*
X5346700D1*
X5371655D2*
X5544855D1*
X5735106D2*
X5788122D1*
X4660910Y6408420D2*
X4707867D1*
X4898783D2*
X5058705D1*
X5102890D2*
X5134212D1*
X5165096D2*
X5284464D1*
X5315348D2*
X5346670D1*
X5389964D2*
X5549617D1*
X5735240D2*
X5788446D1*
X4660903Y6400800D2*
X4707158D1*
X4894227D2*
X5038649D1*
X5103158D2*
X5133706D1*
X5164655D2*
X5284905D1*
X5315854D2*
X5346402D1*
X5408300D2*
X5553968D1*
X5735291D2*
X5788580D1*
X4660901Y6393180D2*
X4706834D1*
X4889283D2*
X5019651D1*
X5104129D2*
X5133761D1*
X5165332D2*
X5284228D1*
X5315799D2*
X5345431D1*
X5426136D2*
X5558264D1*
X5735310D2*
X5788631D1*
X4660900Y6385560D2*
X4706700D1*
X4884377D2*
X5000504D1*
X5105954D2*
X5134682D1*
X5167321D2*
X5282239D1*
X5314878D2*
X5343606D1*
X5443696D2*
X5562902D1*
X5735317D2*
X5788650D1*
X4660900Y6377940D2*
X4706678D1*
X4879360D2*
X4980940D1*
X5107937D2*
X5136746D1*
X5170522D2*
X5279038D1*
X5312814D2*
X5341623D1*
X5461000D2*
X5567849D1*
X5735319D2*
X5788657D1*
X4660900Y6370320D2*
X4706928D1*
X4874224D2*
X4990680D1*
X5109534D2*
X5139721D1*
X5175216D2*
X5274344D1*
X5309839D2*
X5340026D1*
X5453350D2*
X5572529D1*
X5735320D2*
X5788659D1*
X4660900Y6362700D2*
X4707892D1*
X4869462D2*
X5000407D1*
X5111242D2*
X5143437D1*
X5182135D2*
X5267425D1*
X5306123D2*
X5338318D1*
X5445433D2*
X5576847D1*
X5735320D2*
X5788660D1*
X4660900Y6355080D2*
X4709715D1*
X4865112D2*
X5010902D1*
X5113687D2*
X5148366D1*
X5191391D2*
X5258169D1*
X5301194D2*
X5335873D1*
X5436574D2*
X5581130D1*
X5735320D2*
X5788630D1*
X4660900Y6347460D2*
X4711668D1*
X4860787D2*
X4921158D1*
X4935510D2*
X5022427D1*
X5117044D2*
X5155228D1*
X5201920D2*
X5247640D1*
X5294332D2*
X5332516D1*
X5426128D2*
X5513162D1*
X5530787D2*
X5585764D1*
X5735290D2*
X5788362D1*
X4660900Y6339840D2*
X4712997D1*
X4855911D2*
X4915457D1*
X4944107D2*
X5034665D1*
X5121518D2*
X5164260D1*
X5285300D2*
X5328042D1*
X5414431D2*
X5503623D1*
X5532974D2*
X5590739D1*
X5735022D2*
X5787391D1*
X4660930Y6332220D2*
X4713733D1*
X4850230D2*
X4910077D1*
X4953553D2*
X5046859D1*
X5127320D2*
X5175016D1*
X5274544D2*
X5322269D1*
X5402260D2*
X5493763D1*
X5536186D2*
X5595657D1*
X5734051D2*
X5785566D1*
X4661198Y6324600D2*
X4714324D1*
X4844458D2*
X4904793D1*
X4963157D2*
X5058984D1*
X5134324D2*
X5186680D1*
X5262880D2*
X5315504D1*
X5389510D2*
X5483837D1*
X5540347D2*
X5600678D1*
X5732226D2*
X5783613D1*
X4662169Y6316980D2*
X4715429D1*
X4839308D2*
X4899974D1*
X4972374D2*
X5071660D1*
X5142812D2*
X5307719D1*
X5375783D2*
X5473684D1*
X5545101D2*
X5605815D1*
X5730273D2*
X5782254D1*
X4663994Y6309360D2*
X4717305D1*
X4834796D2*
X4895602D1*
X4981702D2*
X5085625D1*
X5153364D2*
X5298017D1*
X5360973D2*
X5463757D1*
X5549709D2*
X5610577D1*
X5728944D2*
X5781279D1*
X4665977Y6301740D2*
X4719278D1*
X4830656D2*
X4891300D1*
X4991767D2*
X5101855D1*
X5165962D2*
X5285502D1*
X5344221D2*
X5454376D1*
X5554001D2*
X5614899D1*
X5728207D2*
X5779985D1*
X4667574Y6294120D2*
X4720643D1*
X4826688D2*
X4886660D1*
X5002714D2*
X5121809D1*
X5179877D2*
X5270764D1*
X5323497D2*
X5444729D1*
X5558275D2*
X5618956D1*
X5727616D2*
X5778026D1*
X4669252Y6286500D2*
X4721620D1*
X4822583D2*
X4881682D1*
X5014570D2*
X5146124D1*
X5194300D2*
X5255260D1*
X5297138D2*
X5433674D1*
X5562905D2*
X5622890D1*
X5726511D2*
X5775991D1*
X4671400Y6278880D2*
X4722915D1*
X4818027D2*
X4876763D1*
X5027230D2*
X5173431D1*
X5265855D2*
X5420866D1*
X5567880D2*
X5627014D1*
X5724605D2*
X5774376D1*
X4673517Y6271260D2*
X4724903D1*
X4813112D2*
X4871742D1*
X5040464D2*
X5406786D1*
X5572797D2*
X5631803D1*
X5722365D2*
X5772691D1*
X4675166Y6263640D2*
X4727177D1*
X4808445D2*
X4866605D1*
X5054501D2*
X5391796D1*
X5577818D2*
X5637449D1*
X5720058D2*
X5770541D1*
X4676862Y6256020D2*
X4729495D1*
X4804131D2*
X4861843D1*
X5069678D2*
X5375732D1*
X5582955D2*
X5643238D1*
X5717494D2*
X5768423D1*
X4679047Y6248400D2*
X4732034D1*
X4799849D2*
X4857492D1*
X5086908D2*
X5358163D1*
X5587717D2*
X5648622D1*
X5714949D2*
X5766775D1*
X4681404Y6240780D2*
X4734342D1*
X4795216D2*
X4853196D1*
X5107394D2*
X5338622D1*
X5592068D2*
X5653836D1*
X5712485D2*
X5765078D1*
X4683756Y6233160D2*
X4736074D1*
X4790241D2*
X4848558D1*
X5131000D2*
X5316738D1*
X5596364D2*
X5658829D1*
X5709634D2*
X5762893D1*
X4686337Y6225540D2*
X4737833D1*
X4785323D2*
X4843611D1*
X5156200D2*
X5293360D1*
X5601002D2*
X5662918D1*
X5706361D2*
X5760536D1*
X4688888Y6217920D2*
X4740292D1*
X4780324D2*
X4838931D1*
X5605979D2*
X5666345D1*
X5702997D2*
X5758184D1*
X4691324Y6210300D2*
X4743582D1*
X4775370D2*
X4834643D1*
X5610897D2*
X5670112D1*
X5699928D2*
X5755603D1*
X4693938Y6202680D2*
X4747687D1*
X4771161D2*
X4830598D1*
X5615918D2*
X5674360D1*
X5697220D2*
X5753052D1*
X4696531Y6195060D2*
X4752340D1*
X4767580D2*
X4826667D1*
X5621085D2*
X5750586D1*
X4699240Y6187440D2*
X4822546D1*
X5626115D2*
X5747705D1*
X4702826Y6179820D2*
X4817727D1*
X5631437D2*
X5744170D1*
X4707215Y6172200D2*
X4811819D1*
X5637581D2*
X5739904D1*
X4711639Y6164580D2*
X4805104D1*
X5644399D2*
X5735336D1*
X4715821Y6156960D2*
X5731412D1*
X4719825Y6149340D2*
X5727997D1*
X4723711Y6141720D2*
X5724088D1*
X4727559Y6134100D2*
X5719565D1*
X4731405Y6126480D2*
X5715090D1*
X4735493Y6118860D2*
X5710859D1*
X4740270Y6111240D2*
X5706580D1*
X4745912Y6103620D2*
X4814798D1*
X5637438D2*
X5701722D1*
X4751699Y6096000D2*
X4817961D1*
X5631707D2*
X5696047D1*
X4757112Y6088380D2*
X4823029D1*
X5626060D2*
X5690247D1*
X4762594Y6080760D2*
X4829412D1*
X5619774D2*
X5684830D1*
X4768528Y6073140D2*
X4836496D1*
X5612862D2*
X5679317D1*
X4774154Y6065520D2*
X4843903D1*
X5605566D2*
X5673084D1*
X4778376Y6057900D2*
X4851443D1*
X5598080D2*
X5666192D1*
X4780982Y6050280D2*
X4859064D1*
X5590482D2*
X5658903D1*
X4798060Y6042660D2*
X4866942D1*
X5582583D2*
X5651419D1*
X4802192Y6035040D2*
X4875530D1*
X5573760D2*
X5643851D1*
X4807862Y6027420D2*
X4885004D1*
X5563584D2*
X5636250D1*
X4815107Y6019800D2*
X4894845D1*
X5552890D2*
X5628637D1*
X4823358Y6012180D2*
X4904795D1*
X5542811D2*
X5621019D1*
X4831879Y6004560D2*
X4915215D1*
X5532987D2*
X5613370D1*
X4840624Y5996940D2*
X4926112D1*
X5522443D2*
X5605482D1*
X4849578Y5989320D2*
X4937347D1*
X5510650D2*
X5596861D1*
X4858432Y5981700D2*
X4949216D1*
X5497414D2*
X5587149D1*
X4867805Y5974080D2*
X4962601D1*
X5483128D2*
X5576604D1*
X4878491Y5966460D2*
X4978209D1*
X5468050D2*
X5565800D1*
X4890258Y5958840D2*
X4995566D1*
X5451952D2*
X5555222D1*
X4902200Y5951220D2*
X5014142D1*
X5434356D2*
X5544681D1*
X4913993Y5943600D2*
X5034246D1*
X5414589D2*
X5533127D1*
X4925900Y5935980D2*
X5057189D1*
X5391245D2*
X5520085D1*
X4938699Y5928360D2*
X5085317D1*
X5362672D2*
X5505906D1*
X4953468Y5920740D2*
X5120900D1*
X5328227D2*
X5490877D1*
X4970446Y5913120D2*
X5163597D1*
X5288976D2*
X5474829D1*
X4988681Y5905500D2*
X5457539D1*
X5007525Y5897880D2*
X5439043D1*
X5028303Y5890260D2*
X5418794D1*
X5052758Y5882640D2*
X5395269D1*
X5081582Y5875020D2*
X5367199D1*
X5114230Y5867400D2*
X5335012D1*
X5148580Y5859780D2*
X5300980D1*
X5125720Y6903720D2*
X5095050Y6896100D1*
X5066675Y6888480D1*
X5041205Y6880860D1*
X5018597Y6873240D1*
X4998588Y6865620D1*
X4980517Y6858000D1*
X4964289Y6850380D1*
X4949360Y6842760D1*
X4934881Y6835140D1*
X4920979Y6827520D1*
X4908035Y6819900D1*
X4896095Y6812280D1*
X4885279Y6804660D1*
X4875537Y6797040D1*
X4866029Y6789420D1*
X4856182Y6781800D1*
X4846447Y6774180D1*
X4837437Y6766560D1*
X4829088Y6758940D1*
X4821137Y6751320D1*
X4813381Y6743700D1*
X4805709Y6736080D1*
X4798100Y6728460D1*
X4790771Y6720840D1*
X4784415Y6713220D1*
X4779861Y6705600D1*
X4777114Y6697980D1*
X4775200Y6690360D1*
X4759960D1*
X4757035Y6682740D1*
X4753522Y6675120D1*
X4749251Y6667500D1*
X4744428Y6659880D1*
X4739569Y6652260D1*
X4734600Y6644640D1*
X4729709Y6637020D1*
X4725652Y6629400D1*
X4722186Y6621780D1*
X4718258Y6614160D1*
X4713728Y6606540D1*
X4709280Y6598920D1*
X4705317Y6591300D1*
X4702039Y6583680D1*
X4699243Y6576060D1*
X4696256Y6568440D1*
X4692936Y6560820D1*
X4689623Y6553200D1*
X4686873Y6545580D1*
X4684931Y6537960D1*
X4683112Y6530340D1*
X4680880Y6522720D1*
X4678505Y6515100D1*
X4676147Y6507480D1*
X4673594Y6499860D1*
X4671310Y6492240D1*
X4669815Y6484620D1*
X4668788Y6477000D1*
X4667475Y6469380D1*
X4665510Y6461760D1*
X4663502Y6454140D1*
X4662154Y6446520D1*
X4661440Y6438900D1*
X4661115Y6431280D1*
X4660980Y6423660D1*
X4660929Y6416040D1*
X4660910Y6408420D1*
X4660903Y6400800D1*
X4660901Y6393180D1*
X4660900Y6385560D1*
Y6377940D1*
Y6370320D1*
Y6362700D1*
Y6355080D1*
Y6347460D1*
Y6339840D1*
X4660930Y6332220D1*
X4661198Y6324600D1*
X4662169Y6316980D1*
X4663994Y6309360D1*
X4665977Y6301740D1*
X4667574Y6294120D1*
X4669252Y6286500D1*
X4671400Y6278880D1*
X4673517Y6271260D1*
X4675166Y6263640D1*
X4676862Y6256020D1*
X4679047Y6248400D1*
X4681404Y6240780D1*
X4683756Y6233160D1*
X4686337Y6225540D1*
X4688888Y6217920D1*
X4691324Y6210300D1*
X4693938Y6202680D1*
X4696531Y6195060D1*
X4699240Y6187440D1*
X4702826Y6179820D1*
X4707215Y6172200D1*
X4711639Y6164580D1*
X4715821Y6156960D1*
X4719825Y6149340D1*
X4723711Y6141720D1*
X4727559Y6134100D1*
X4731405Y6126480D1*
X4735493Y6118860D1*
X4740270Y6111240D1*
X4745912Y6103620D1*
X4751699Y6096000D1*
X4757112Y6088380D1*
X4762594Y6080760D1*
X4768528Y6073140D1*
X4774154Y6065520D1*
X4778376Y6057900D1*
X4780982Y6050280D1*
X4782820Y6042660D1*
X4798060D1*
X4802192Y6035040D1*
X4807862Y6027420D1*
X4815107Y6019800D1*
X4823358Y6012180D1*
X4831879Y6004560D1*
X4840624Y5996940D1*
X4849578Y5989320D1*
X4858432Y5981700D1*
X4867805Y5974080D1*
X4878491Y5966460D1*
X4890258Y5958840D1*
X4902200Y5951220D1*
X4913993Y5943600D1*
X4925900Y5935980D1*
X4938699Y5928360D1*
X4953468Y5920740D1*
X4970446Y5913120D1*
X4988681Y5905500D1*
X5007525Y5897880D1*
X5028303Y5890260D1*
X5052758Y5882640D1*
X5081582Y5875020D1*
X5114230Y5867400D1*
X5148580Y5859780D1*
X5323840Y6903720D2*
X5352822Y6896100D1*
X5380109Y6888480D1*
X5405223Y6880860D1*
X5428052Y6873240D1*
X5448354Y6865620D1*
X5466350Y6858000D1*
X5482645Y6850380D1*
X5497480Y6842760D1*
X5511088Y6835140D1*
X5524190Y6827520D1*
X5537130Y6819900D1*
X5549551Y6812280D1*
X5561248Y6804660D1*
X5571963Y6797040D1*
X5581666Y6789420D1*
X5591158Y6781800D1*
X5601000Y6774180D1*
X5610734Y6766560D1*
X5619743Y6758940D1*
X5628062Y6751320D1*
X5635715Y6743700D1*
X5642204Y6736080D1*
X5646810Y6728460D1*
X5649576Y6720840D1*
X5651500Y6713220D1*
X5666740D1*
X5670813Y6705600D1*
X5675976Y6697980D1*
X5681518Y6690360D1*
X5686822Y6682740D1*
X5692259Y6675120D1*
X5698207Y6667500D1*
X5704092Y6659880D1*
X5709287Y6652260D1*
X5713816Y6644640D1*
X5717961Y6637020D1*
X5721901Y6629400D1*
X5725769Y6621780D1*
X5729592Y6614160D1*
X5733415Y6606540D1*
X5737221Y6598920D1*
X5741008Y6591300D1*
X5744574Y6583680D1*
X5747657Y6576060D1*
X5750369Y6568440D1*
X5753323Y6560820D1*
X5756630Y6553200D1*
X5759939Y6545580D1*
X5762658Y6537960D1*
X5764362Y6530340D1*
X5765477Y6522720D1*
X5766825Y6515100D1*
X5768833Y6507480D1*
X5771113Y6499860D1*
X5773434Y6492240D1*
X5775973Y6484620D1*
X5778253Y6477000D1*
X5779716Y6469380D1*
X5780504Y6461760D1*
X5781114Y6454140D1*
X5782225Y6446520D1*
X5784104Y6438900D1*
X5786077Y6431280D1*
X5787413Y6423660D1*
X5788122Y6416040D1*
X5788446Y6408420D1*
X5788580Y6400800D1*
X5788631Y6393180D1*
X5788650Y6385560D1*
X5788657Y6377940D1*
X5788659Y6370320D1*
X5788660Y6362700D1*
X5788630Y6355080D1*
X5788362Y6347460D1*
X5787391Y6339840D1*
X5785566Y6332220D1*
X5783613Y6324600D1*
X5782254Y6316980D1*
X5781279Y6309360D1*
X5779985Y6301740D1*
X5778026Y6294120D1*
X5775991Y6286500D1*
X5774376Y6278880D1*
X5772691Y6271260D1*
X5770541Y6263640D1*
X5768423Y6256020D1*
X5766775Y6248400D1*
X5765078Y6240780D1*
X5762893Y6233160D1*
X5760536Y6225540D1*
X5758184Y6217920D1*
X5755603Y6210300D1*
X5753052Y6202680D1*
X5750586Y6195060D1*
X5747705Y6187440D1*
X5744170Y6179820D1*
X5739904Y6172200D1*
X5735336Y6164580D1*
X5731412Y6156960D1*
X5727997Y6149340D1*
X5724088Y6141720D1*
X5719565Y6134100D1*
X5715090Y6126480D1*
X5710859Y6118860D1*
X5706580Y6111240D1*
X5701722Y6103620D1*
X5696047Y6096000D1*
X5690247Y6088380D1*
X5684830Y6080760D1*
X5679317Y6073140D1*
X5673084Y6065520D1*
X5666192Y6057900D1*
X5658903Y6050280D1*
X5651419Y6042660D1*
X5643851Y6035040D1*
X5636250Y6027420D1*
X5628637Y6019800D1*
X5621019Y6012180D1*
X5613370Y6004560D1*
X5605482Y5996940D1*
X5596861Y5989320D1*
X5587149Y5981700D1*
X5576604Y5974080D1*
X5565800Y5966460D1*
X5555222Y5958840D1*
X5544681Y5951220D1*
X5533127Y5943600D1*
X5520085Y5935980D1*
X5505906Y5928360D1*
X5490877Y5920740D1*
X5474829Y5913120D1*
X5457539Y5905500D1*
X5439043Y5897880D1*
X5418794Y5890260D1*
X5395269Y5882640D1*
X5367199Y5875020D1*
X5335012Y5867400D1*
X5300980Y5859780D1*
X5179060Y6858000D2*
X5138750Y6850380D1*
X5103701Y6842760D1*
X5074303Y6835140D1*
X5048995Y6827520D1*
X5026428Y6819900D1*
X5006114Y6812280D1*
X4988480Y6804660D1*
X4973044Y6797040D1*
X4958962Y6789420D1*
X4946014Y6781800D1*
X4933849Y6774180D1*
X4922089Y6766560D1*
X4910564Y6758940D1*
X4899406Y6751320D1*
X4889498Y6743700D1*
X4881034Y6736080D1*
X4877245Y6728460D1*
X4874260Y6720840D1*
X4859020D1*
X4852632Y6713220D1*
X4846205Y6705600D1*
X4841313Y6697980D1*
X4838289Y6690360D1*
X4836160Y6682740D1*
X4820920D1*
X4816847Y6675120D1*
X4811684Y6667500D1*
X4806142Y6659880D1*
X4800868Y6652260D1*
X4795669Y6644640D1*
X4790424Y6637020D1*
X4785393Y6629400D1*
X4780327Y6621780D1*
X4775173Y6614160D1*
X4770405Y6606540D1*
X4766082Y6598920D1*
X4762025Y6591300D1*
X4758119Y6583680D1*
X4754264Y6576060D1*
X4750446Y6568440D1*
X4746654Y6560820D1*
X4743087Y6553200D1*
X4740003Y6545580D1*
X4737321Y6537960D1*
X4734604Y6530340D1*
X4732001Y6522720D1*
X4729546Y6515100D1*
X4726955Y6507480D1*
X4724657Y6499860D1*
X4723157Y6492240D1*
X4722129Y6484620D1*
X4720815Y6477000D1*
X4718850Y6469380D1*
X4716842Y6461760D1*
X4715494Y6454140D1*
X4714751Y6446520D1*
X4714157Y6438900D1*
X4713052Y6431280D1*
X4711175Y6423660D1*
X4709202Y6416040D1*
X4707867Y6408420D1*
X4707158Y6400800D1*
X4706834Y6393180D1*
X4706700Y6385560D1*
X4706678Y6377940D1*
X4706928Y6370320D1*
X4707892Y6362700D1*
X4709715Y6355080D1*
X4711668Y6347460D1*
X4712997Y6339840D1*
X4713733Y6332220D1*
X4714324Y6324600D1*
X4715429Y6316980D1*
X4717305Y6309360D1*
X4719278Y6301740D1*
X4720643Y6294120D1*
X4721620Y6286500D1*
X4722915Y6278880D1*
X4724903Y6271260D1*
X4727177Y6263640D1*
X4729495Y6256020D1*
X4732034Y6248400D1*
X4734342Y6240780D1*
X4736074Y6233160D1*
X4737833Y6225540D1*
X4740292Y6217920D1*
X4743582Y6210300D1*
X4747687Y6202680D1*
X4752340Y6195060D1*
X5179060Y6858000D2*
X5172647Y6850380D1*
X5167184Y6842760D1*
X5162538Y6835140D1*
X5158346Y6827520D1*
X5154359Y6819900D1*
X5150216Y6812280D1*
X5145420Y6804660D1*
X5139772Y6797040D1*
X5133982Y6789420D1*
X5128598Y6781800D1*
X5123354Y6774180D1*
X5118123Y6766560D1*
X5113323Y6758940D1*
X5108989Y6751320D1*
X5104927Y6743700D1*
X5100990Y6736080D1*
X5096896Y6728460D1*
X5092345Y6720840D1*
X5087432Y6713220D1*
X5082764Y6705600D1*
X5078451Y6697980D1*
X5074139Y6690360D1*
X5069268Y6682740D1*
X5063589Y6675120D1*
X5057818Y6667500D1*
X5052668Y6659880D1*
X5048156Y6652260D1*
X5044016Y6644640D1*
X5040048Y6637020D1*
X5035913Y6629400D1*
X5031119Y6621780D1*
X5025471Y6614160D1*
X5019712Y6606540D1*
X5014566Y6598920D1*
X5010055Y6591300D1*
X5005916Y6583680D1*
X5001948Y6576060D1*
X4997843Y6568440D1*
X4993287Y6560820D1*
X4988372Y6553200D1*
X4983705Y6545580D1*
X4979391Y6537960D1*
X4975079Y6530340D1*
X4970208Y6522720D1*
X4964529Y6515100D1*
X4958758Y6507480D1*
X4953608Y6499860D1*
X4949096Y6492240D1*
X4944956Y6484620D1*
X4940988Y6477000D1*
X4936853Y6469380D1*
X4932059Y6461760D1*
X4926411Y6454140D1*
X4920652Y6446520D1*
X4915506Y6438900D1*
X4910995Y6431280D1*
X4906856Y6423660D1*
X4902888Y6416040D1*
X4898783Y6408420D1*
X4894227Y6400800D1*
X4889283Y6393180D1*
X4884377Y6385560D1*
X4879360Y6377940D1*
X4874224Y6370320D1*
X4869462Y6362700D1*
X4865112Y6355080D1*
X4860787Y6347460D1*
X4855911Y6339840D1*
X4850230Y6332220D1*
X4844458Y6324600D1*
X4839308Y6316980D1*
X4834796Y6309360D1*
X4830656Y6301740D1*
X4826688Y6294120D1*
X4822583Y6286500D1*
X4818027Y6278880D1*
X4813112Y6271260D1*
X4808445Y6263640D1*
X4804131Y6256020D1*
X4799849Y6248400D1*
X4795216Y6240780D1*
X4790241Y6233160D1*
X4785323Y6225540D1*
X4780324Y6217920D1*
X4775370Y6210300D1*
X4771161Y6202680D1*
X4767580Y6195060D1*
X5278120Y6858000D2*
X5279327Y6850380D1*
X5281514Y6842760D1*
X5284726Y6835140D1*
X5288887Y6827520D1*
X5293641Y6819900D1*
X5298249Y6812280D1*
X5302541Y6804660D1*
X5306815Y6797040D1*
X5311445Y6789420D1*
X5316420Y6781800D1*
X5321337Y6774180D1*
X5326358Y6766560D1*
X5331495Y6758940D1*
X5336257Y6751320D1*
X5340608Y6743700D1*
X5344904Y6736080D1*
X5349542Y6728460D1*
X5354519Y6720840D1*
X5359437Y6713220D1*
X5364458Y6705600D1*
X5369595Y6697980D1*
X5374357Y6690360D1*
X5378708Y6682740D1*
X5383004Y6675120D1*
X5387642Y6667500D1*
X5392589Y6659880D1*
X5397269Y6652260D1*
X5401557Y6644640D1*
X5405602Y6637020D1*
X5409533Y6629400D1*
X5413654Y6621780D1*
X5418443Y6614160D1*
X5424089Y6606540D1*
X5429878Y6598920D1*
X5435262Y6591300D1*
X5440476Y6583680D1*
X5445469Y6576060D1*
X5449565Y6568440D1*
X5453076Y6560820D1*
X5457247Y6553200D1*
X5462512Y6545580D1*
X5468082Y6537960D1*
X5473146Y6530340D1*
X5477653Y6522720D1*
X5482019Y6515100D1*
X5486685Y6507480D1*
X5491673Y6499860D1*
X5496595Y6492240D1*
X5501618Y6484620D1*
X5506755Y6477000D1*
X5511517Y6469380D1*
X5515868Y6461760D1*
X5520164Y6454140D1*
X5524802Y6446520D1*
X5529779Y6438900D1*
X5534697Y6431280D1*
X5539718Y6423660D1*
X5544855Y6416040D1*
X5549617Y6408420D1*
X5553968Y6400800D1*
X5558264Y6393180D1*
X5562902Y6385560D1*
X5567849Y6377940D1*
X5572529Y6370320D1*
X5576847Y6362700D1*
X5581130Y6355080D1*
X5585764Y6347460D1*
X5590739Y6339840D1*
X5595657Y6332220D1*
X5600678Y6324600D1*
X5605815Y6316980D1*
X5610577Y6309360D1*
X5614899Y6301740D1*
X5618956Y6294120D1*
X5622890Y6286500D1*
X5627014Y6278880D1*
X5631803Y6271260D1*
X5637449Y6263640D1*
X5643238Y6256020D1*
X5648622Y6248400D1*
X5653836Y6240780D1*
X5658829Y6233160D1*
X5662918Y6225540D1*
X5666345Y6217920D1*
X5670112Y6210300D1*
X5674360Y6202680D1*
X5278120Y6858000D2*
X5313485Y6850380D1*
X5345967Y6842760D1*
X5374756Y6835140D1*
X5399923Y6827520D1*
X5421960Y6819900D1*
X5441501Y6812280D1*
X5458822Y6804660D1*
X5474172Y6797040D1*
X5487793Y6789420D1*
X5500296Y6781800D1*
X5512393Y6774180D1*
X5524461Y6766560D1*
X5536086Y6758940D1*
X5546541Y6751320D1*
X5556231Y6743700D1*
X5565567Y6736080D1*
X5574288Y6728460D1*
X5582484Y6720840D1*
X5590367Y6713220D1*
X5598095Y6705600D1*
X5605757Y6697980D1*
X5613362Y6690360D1*
X5620720Y6682740D1*
X5627370Y6675120D1*
X5633166Y6667500D1*
X5638803Y6659880D1*
X5644826Y6652260D1*
X5650738Y6644640D1*
X5655942Y6637020D1*
X5660504Y6629400D1*
X5664918Y6621780D1*
X5669830Y6614160D1*
X5675493Y6606540D1*
X5681032Y6598920D1*
X5685450Y6591300D1*
X5688871Y6583680D1*
X5692149Y6576060D1*
X5695620Y6568440D1*
X5699248Y6560820D1*
X5702957Y6553200D1*
X5706462Y6545580D1*
X5709296Y6537960D1*
X5711270Y6530340D1*
X5713102Y6522720D1*
X5715338Y6515100D1*
X5717714Y6507480D1*
X5720073Y6499860D1*
X5722626Y6492240D1*
X5724910Y6484620D1*
X5726375Y6477000D1*
X5727164Y6469380D1*
X5727774Y6461760D1*
X5728885Y6454140D1*
X5730764Y6446520D1*
X5732737Y6438900D1*
X5734073Y6431280D1*
X5734782Y6423660D1*
X5735106Y6416040D1*
X5735240Y6408420D1*
X5735291Y6400800D1*
X5735310Y6393180D1*
X5735317Y6385560D1*
X5735319Y6377940D1*
X5735320Y6370320D1*
Y6362700D1*
Y6355080D1*
X5735290Y6347460D1*
X5735022Y6339840D1*
X5734051Y6332220D1*
X5732226Y6324600D1*
X5730273Y6316980D1*
X5728944Y6309360D1*
X5728207Y6301740D1*
X5727616Y6294120D1*
X5726511Y6286500D1*
X5724605Y6278880D1*
X5722365Y6271260D1*
X5720058Y6263640D1*
X5717494Y6256020D1*
X5714949Y6248400D1*
X5712485Y6240780D1*
X5709634Y6233160D1*
X5706361Y6225540D1*
X5702997Y6217920D1*
X5699928Y6210300D1*
X5697220Y6202680D1*
X5224780Y6827520D2*
X5217450Y6819900D1*
X5210807Y6812280D1*
X5205043Y6804660D1*
X5199645Y6797040D1*
X5194325Y6789420D1*
X5189267Y6781800D1*
X5184191Y6774180D1*
X5179035Y6766560D1*
X5174266Y6758940D1*
X5169913Y6751320D1*
X5165617Y6743700D1*
X5160979Y6736080D1*
X5156001Y6728460D1*
X5151083Y6720840D1*
X5146062Y6713220D1*
X5140925Y6705600D1*
X5136163Y6697980D1*
X5131812Y6690360D1*
X5127516Y6682740D1*
X5122878Y6675120D1*
X5117931Y6667500D1*
X5113251Y6659880D1*
X5108933Y6652260D1*
X5104650Y6644640D1*
X5100016Y6637020D1*
X5095041Y6629400D1*
X5090123Y6621780D1*
X5085102Y6614160D1*
X5079965Y6606540D1*
X5075203Y6598920D1*
X5070852Y6591300D1*
X5066556Y6583680D1*
X5061918Y6576060D1*
X5056941Y6568440D1*
X5052023Y6560820D1*
X5047002Y6553200D1*
X5041865Y6545580D1*
X5037103Y6537960D1*
X5032752Y6530340D1*
X5028456Y6522720D1*
X5023818Y6515100D1*
X5018871Y6507480D1*
X5014191Y6499860D1*
X5009879Y6492240D1*
X5005636Y6484620D1*
X5001090Y6477000D1*
X4996180Y6469380D1*
X5224780Y6827520D2*
X5232110Y6819900D1*
X5238723Y6812280D1*
X5244249Y6804660D1*
X5248914Y6797040D1*
X5253112Y6789420D1*
X5257101Y6781800D1*
X5261214Y6774180D1*
X5265772Y6766560D1*
X5270687Y6758940D1*
X5275355Y6751320D1*
X5279669Y6743700D1*
X5283951Y6736080D1*
X5288584Y6728460D1*
X5293559Y6720840D1*
X5298507Y6713220D1*
X5303766Y6705600D1*
X5309606Y6697980D1*
X5315222Y6690360D1*
X5319702Y6682740D1*
X5323373Y6675120D1*
X5327388Y6667500D1*
X5331982Y6659880D1*
X5336710Y6652260D1*
X5341650Y6644640D1*
X5346754Y6637020D1*
X5351504Y6629400D1*
X5355851Y6621780D1*
X5360144Y6614160D1*
X5364782Y6606540D1*
X5369729Y6598920D1*
X5374409Y6591300D1*
X5378727Y6583680D1*
X5383010Y6576060D1*
X5387644Y6568440D1*
X5392619Y6560820D1*
X5397537Y6553200D1*
X5402558Y6545580D1*
X5407725Y6537960D1*
X5412725Y6530340D1*
X5417779Y6522720D1*
X5422929Y6515100D1*
X5427695Y6507480D1*
X5432048Y6499860D1*
X5436372Y6492240D1*
X5441257Y6484620D1*
X5447076Y6477000D1*
X5453380Y6469380D1*
X5171440Y6545580D2*
X5147473Y6537960D1*
X5125508Y6530340D1*
X5106272Y6522720D1*
X5089077Y6515100D1*
X5073234Y6507480D1*
X5058644Y6499860D1*
X5045388Y6492240D1*
X5033250Y6484620D1*
X5022043Y6477000D1*
X5011420Y6469380D1*
X5278120Y6545580D2*
X5299773Y6537960D1*
X5320446Y6530340D1*
X5340064Y6522720D1*
X5358466Y6515100D1*
X5375302Y6507480D1*
X5390461Y6499860D1*
X5403988Y6492240D1*
X5416240Y6484620D1*
X5427493Y6477000D1*
X5438140Y6469380D1*
X5224780Y6507480D2*
X5189995Y6499860D1*
X5159526Y6492240D1*
X5134925Y6484620D1*
X5115615Y6477000D1*
X5099946Y6469380D1*
X5085980Y6461760D1*
X5072380Y6454140D1*
X5224780Y6507480D2*
X5259565Y6499860D1*
X5290034Y6492240D1*
X5314635Y6484620D1*
X5333945Y6477000D1*
X5349614Y6469380D1*
X5363580Y6461760D1*
X5377180Y6454140D1*
X5171440Y6469380D2*
X5132387Y6461760D1*
X5095240Y6454140D1*
X5278120Y6469380D2*
X5316696Y6461760D1*
X5354320Y6454140D1*
X5064760D2*
X5057140Y6446520D1*
X5072380D2*
X5377180D2*
X5384800Y6454140D2*
X5392420Y6446520D1*
X5148580Y6438900D2*
X5142458Y6431280D1*
X5138001Y6423660D1*
X5135449Y6416040D1*
X5134212Y6408420D1*
X5133706Y6400800D1*
X5133761Y6393180D1*
X5134682Y6385560D1*
X5136746Y6377940D1*
X5139721Y6370320D1*
X5143437Y6362700D1*
X5148366Y6355080D1*
X5155228Y6347460D1*
X5164260Y6339840D1*
X5175016Y6332220D1*
X5186680Y6324600D1*
X5171440Y6438900D2*
X5170262Y6431280D1*
X5168373Y6423660D1*
X5166400Y6416040D1*
X5165096Y6408420D1*
X5164655Y6400800D1*
X5165332Y6393180D1*
X5167321Y6385560D1*
X5170522Y6377940D1*
X5175216Y6370320D1*
X5182135Y6362700D1*
X5191391Y6355080D1*
X5201920Y6347460D1*
X5278120Y6438900D2*
X5279298Y6431280D1*
X5281187Y6423660D1*
X5283160Y6416040D1*
X5284464Y6408420D1*
X5284905Y6400800D1*
X5284228Y6393180D1*
X5282239Y6385560D1*
X5279038Y6377940D1*
X5274344Y6370320D1*
X5267425Y6362700D1*
X5258169Y6355080D1*
X5247640Y6347460D1*
X5300980Y6438900D2*
X5307102Y6431280D1*
X5311559Y6423660D1*
X5314111Y6416040D1*
X5315348Y6408420D1*
X5315854Y6400800D1*
X5315799Y6393180D1*
X5314878Y6385560D1*
X5312814Y6377940D1*
X5309839Y6370320D1*
X5306123Y6362700D1*
X5301194Y6355080D1*
X5294332Y6347460D1*
X5285300Y6339840D1*
X5274544Y6332220D1*
X5262880Y6324600D1*
X5102860Y6423660D2*
X5080320Y6416040D1*
X5058705Y6408420D1*
X5038649Y6400800D1*
X5019651Y6393180D1*
X5000504Y6385560D1*
X4980940Y6377940D1*
X4990680Y6370320D1*
X5000407Y6362700D1*
X5010902Y6355080D1*
X5022427Y6347460D1*
X5034665Y6339840D1*
X5046859Y6332220D1*
X5058984Y6324600D1*
X5071660Y6316980D1*
X5085625Y6309360D1*
X5101855Y6301740D1*
X5121809Y6294120D1*
X5146124Y6286500D1*
X5173431Y6278880D1*
X5201920Y6271260D1*
X5102860Y6423660D2*
Y6416040D1*
X5102890Y6408420D1*
X5103158Y6400800D1*
X5104129Y6393180D1*
X5105954Y6385560D1*
X5107937Y6377940D1*
X5109534Y6370320D1*
X5111242Y6362700D1*
X5113687Y6355080D1*
X5117044Y6347460D1*
X5121518Y6339840D1*
X5127320Y6332220D1*
X5134324Y6324600D1*
X5142812Y6316980D1*
X5153364Y6309360D1*
X5165962Y6301740D1*
X5179877Y6294120D1*
X5194300Y6286500D1*
X5346700Y6423660D2*
Y6416040D1*
X5346670Y6408420D1*
X5346402Y6400800D1*
X5345431Y6393180D1*
X5343606Y6385560D1*
X5341623Y6377940D1*
X5340026Y6370320D1*
X5338318Y6362700D1*
X5335873Y6355080D1*
X5332516Y6347460D1*
X5328042Y6339840D1*
X5322269Y6332220D1*
X5315504Y6324600D1*
X5307719Y6316980D1*
X5298017Y6309360D1*
X5285502Y6301740D1*
X5270764Y6294120D1*
X5255260Y6286500D1*
X5354320Y6423660D2*
X5371655Y6416040D1*
X5389964Y6408420D1*
X5408300Y6400800D1*
X5426136Y6393180D1*
X5443696Y6385560D1*
X5461000Y6377940D1*
X5453350Y6370320D1*
X5445433Y6362700D1*
X5436574Y6355080D1*
X5426128Y6347460D1*
X5414431Y6339840D1*
X5402260Y6332220D1*
X5389510Y6324600D1*
X5375783Y6316980D1*
X5360973Y6309360D1*
X5344221Y6301740D1*
X5323497Y6294120D1*
X5297138Y6286500D1*
X5265855Y6278880D1*
X5232400Y6271260D1*
X4927600Y6355080D2*
X4921158Y6347460D1*
X4915457Y6339840D1*
X4910077Y6332220D1*
X4904793Y6324600D1*
X4899974Y6316980D1*
X4895602Y6309360D1*
X4891300Y6301740D1*
X4886660Y6294120D1*
X4881682Y6286500D1*
X4876763Y6278880D1*
X4871742Y6271260D1*
X4866605Y6263640D1*
X4861843Y6256020D1*
X4857492Y6248400D1*
X4853196Y6240780D1*
X4848558Y6233160D1*
X4843611Y6225540D1*
X4838931Y6217920D1*
X4834643Y6210300D1*
X4830598Y6202680D1*
X4826667Y6195060D1*
X4822546Y6187440D1*
X4817727Y6179820D1*
X4811819Y6172200D1*
X4805104Y6164580D1*
X4798060Y6156960D1*
X4927600Y6355080D2*
X4935510Y6347460D1*
X4944107Y6339840D1*
X4953553Y6332220D1*
X4963157Y6324600D1*
X4972374Y6316980D1*
X4981702Y6309360D1*
X4991767Y6301740D1*
X5002714Y6294120D1*
X5014570Y6286500D1*
X5027230Y6278880D1*
X5040464Y6271260D1*
X5054501Y6263640D1*
X5069678Y6256020D1*
X5086908Y6248400D1*
X5107394Y6240780D1*
X5131000Y6233160D1*
X5156200Y6225540D1*
X5521960Y6355080D2*
X5513162Y6347460D1*
X5503623Y6339840D1*
X5493763Y6332220D1*
X5483837Y6324600D1*
X5473684Y6316980D1*
X5463757Y6309360D1*
X5454376Y6301740D1*
X5444729Y6294120D1*
X5433674Y6286500D1*
X5420866Y6278880D1*
X5406786Y6271260D1*
X5391796Y6263640D1*
X5375732Y6256020D1*
X5358163Y6248400D1*
X5338622Y6240780D1*
X5316738Y6233160D1*
X5293360Y6225540D1*
X5529580Y6355080D2*
X5530787Y6347460D1*
X5532974Y6339840D1*
X5536186Y6332220D1*
X5540347Y6324600D1*
X5545101Y6316980D1*
X5549709Y6309360D1*
X5554001Y6301740D1*
X5558275Y6294120D1*
X5562905Y6286500D1*
X5567880Y6278880D1*
X5572797Y6271260D1*
X5577818Y6263640D1*
X5582955Y6256020D1*
X5587717Y6248400D1*
X5592068Y6240780D1*
X5596364Y6233160D1*
X5601002Y6225540D1*
X5605979Y6217920D1*
X5610897Y6210300D1*
X5615918Y6202680D1*
X5621085Y6195060D1*
X5626115Y6187440D1*
X5631437Y6179820D1*
X5637581Y6172200D1*
X5644399Y6164580D1*
X5651500Y6156960D1*
X4813300Y6111240D2*
X4814798Y6103620D1*
X4817961Y6096000D1*
X4823029Y6088380D1*
X4829412Y6080760D1*
X4836496Y6073140D1*
X4843903Y6065520D1*
X4851443Y6057900D1*
X4859064Y6050280D1*
X4866942Y6042660D1*
X4875530Y6035040D1*
X4885004Y6027420D1*
X4894845Y6019800D1*
X4904795Y6012180D1*
X4915215Y6004560D1*
X4926112Y5996940D1*
X4937347Y5989320D1*
X4949216Y5981700D1*
X4962601Y5974080D1*
X4978209Y5966460D1*
X4995566Y5958840D1*
X5014142Y5951220D1*
X5034246Y5943600D1*
X5057189Y5935980D1*
X5085317Y5928360D1*
X5120900Y5920740D1*
X5163597Y5913120D1*
X5209540Y5905500D1*
X5643880Y6111240D2*
X5637438Y6103620D1*
X5631707Y6096000D1*
X5626060Y6088380D1*
X5619774Y6080760D1*
X5612862Y6073140D1*
X5605566Y6065520D1*
X5598080Y6057900D1*
X5590482Y6050280D1*
X5582583Y6042660D1*
X5573760Y6035040D1*
X5563584Y6027420D1*
X5552890Y6019800D1*
X5542811Y6012180D1*
X5532987Y6004560D1*
X5522443Y5996940D1*
X5510650Y5989320D1*
X5497414Y5981700D1*
X5483128Y5974080D1*
X5468050Y5966460D1*
X5451952Y5958840D1*
X5434356Y5951220D1*
X5414589Y5943600D1*
X5391245Y5935980D1*
X5362672Y5928360D1*
X5328227Y5920740D1*
X5288976Y5913120D1*
X5247640Y5905500D1*
X3237715Y4299387D2*
D91*
X3231679Y4311460D1*
X3219465Y4323673D1*
X3207392Y4329710D1*
X3183106D1*
X3170892Y4323673D1*
X3158819Y4311460D1*
X3152642Y4299387D1*
X3146606Y4281137D1*
Y4250673D1*
X3152642Y4232564D1*
X3158819Y4220350D1*
X3170892Y4208277D1*
X3183106Y4202100D1*
X3207392D1*
X3219465Y4208277D1*
X3231679Y4220350D1*
X3237715Y4232564D1*
X3276931Y4305283D2*
X3289144Y4311460D1*
X3307394Y4329570D1*
Y4202100D1*
X3242160Y3767940D2*
X3236124Y3780013D1*
X3223910Y3792227D1*
X3211837Y3798263D1*
X3187551D1*
X3175337Y3792227D1*
X3163264Y3780013D1*
X3157087Y3767940D1*
X3151051Y3749690D1*
Y3719227D1*
X3157087Y3701117D1*
X3163264Y3688904D1*
X3175337Y3676831D1*
X3187551Y3670654D1*
X3211837D1*
X3223910Y3676831D1*
X3236124Y3688904D1*
X3242160Y3701117D1*
X3287553Y3767800D2*
Y3773836D1*
X3293590Y3786050D1*
X3299626Y3792086D1*
X3311840Y3798123D1*
X3336126D1*
X3348199Y3792086D1*
X3354236Y3786050D1*
X3360413Y3773836D1*
Y3761763D1*
X3354236Y3749550D1*
X3342163Y3731440D1*
X3281376Y3670654D1*
X3366449D1*
X2976365Y3267540D2*
X2970329Y3279613D1*
X2958115Y3291827D1*
X2946042Y3297863D1*
X2921756D1*
X2909542Y3291827D1*
X2897469Y3279613D1*
X2891292Y3267540D1*
X2885256Y3249290D1*
Y3218827D1*
X2891292Y3200717D1*
X2897469Y3188504D1*
X2909542Y3176431D1*
X2921756Y3170254D1*
X2946042D1*
X2958115Y3176431D1*
X2970329Y3188504D1*
X2976365Y3200717D1*
X3076368Y3170254D2*
Y3297723D1*
X3015581Y3212790D1*
X3106691D1*
X5095134Y3495514D2*
X5089097Y3507587D1*
X5076884Y3519800D1*
X5064811Y3525837D1*
X5040524D1*
X5028311Y3519800D1*
X5016238Y3507587D1*
X5010061Y3495514D1*
X5004024Y3477264D1*
Y3446800D1*
X5010061Y3428690D1*
X5016238Y3416477D1*
X5028311Y3404404D1*
X5040524Y3398227D1*
X5064811D1*
X5076884Y3404404D1*
X5089097Y3416477D1*
X5095134Y3428690D1*
X5207209Y3525696D2*
X5146563D1*
X5140526Y3471087D1*
X5146563Y3477123D1*
X5164813Y3483300D1*
X5182923D1*
X5201173Y3477123D1*
X5213386Y3465050D1*
X5219423Y3446800D1*
Y3434727D1*
X5213386Y3416477D1*
X5201173Y3404264D1*
X5182923Y3398227D1*
X5164813D1*
X5146563Y3404264D1*
X5140526Y3410440D1*
X5134349Y3422514D1*
X1372737Y9237179D2*
X1360664Y9231142D1*
X1348450Y9218929D1*
X1342413Y9206856D1*
Y9182569D1*
X1348450Y9170356D1*
X1360663Y9158283D1*
X1372736Y9152106D1*
X1390986Y9146069D1*
X1421450D1*
X1439560Y9152106D1*
X1451773Y9158283D1*
X1463846Y9170356D1*
X1470023Y9182569D1*
Y9206856D1*
X1463846Y9218929D1*
X1451773Y9231142D1*
X1439560Y9237179D1*
X1384950Y9355431D2*
X1403200Y9349254D1*
X1415414Y9337181D1*
X1421450Y9318931D1*
Y9312894D1*
X1415414Y9294644D1*
X1403200Y9282571D1*
X1384950Y9276395D1*
X1378914D1*
X1360664Y9282571D1*
X1348590Y9294645D1*
X1342554Y9312895D1*
Y9318931D1*
X1348590Y9337181D1*
X1360664Y9349254D1*
X1384950Y9355431D1*
X1415414D1*
X1445737Y9349254D1*
X1463987Y9337181D1*
X1470023Y9318931D1*
Y9306858D1*
X1463987Y9288608D1*
X1451773Y9282571D1*
X1674337Y9235794D2*
X1662264Y9229758D1*
X1650050Y9217544D1*
X1644013Y9205471D1*
Y9181185D1*
X1650050Y9168971D1*
X1662263Y9156898D1*
X1674336Y9150721D1*
X1692586Y9144685D1*
X1723050D1*
X1741160Y9150721D1*
X1753373Y9156898D1*
X1765446Y9168971D1*
X1771623Y9181185D1*
Y9205471D1*
X1765446Y9217544D1*
X1753373Y9229758D1*
X1741160Y9235794D1*
X1668440Y9275010D2*
X1662264Y9287224D1*
X1644154Y9305474D1*
X1771623Y9305473D1*
X1644154Y9381189D2*
X1650190Y9362939D1*
X1668440Y9350726D1*
X1698764Y9344689D1*
X1717014D1*
X1747337Y9350726D1*
X1765587Y9362939D1*
X1771623Y9381189D1*
Y9393262D1*
X1765587Y9411512D1*
X1747337Y9423585D1*
X1717013Y9429762D1*
X1698764D1*
X1668440Y9423585D1*
X1650190Y9411512D1*
X1644154Y9393262D1*
Y9381189D1*
X1668440Y9423585D2*
X1747337Y9350726D1*
X1833087Y9231349D2*
X1821014Y9225313D1*
X1808800Y9213099D1*
X1802763Y9201026D1*
Y9176740D1*
X1808800Y9164526D1*
X1821013Y9152453D1*
X1833086Y9146276D1*
X1851336Y9140240D1*
X1881800D1*
X1899910Y9146276D1*
X1912123Y9152453D1*
X1924196Y9164526D1*
X1930373Y9176740D1*
Y9201026D1*
X1924196Y9213099D1*
X1912123Y9225313D1*
X1899910Y9231349D1*
X1827190Y9270565D2*
X1821014Y9282778D1*
X1802904Y9301028D1*
X1930373D1*
X1827190Y9340244D2*
X1821014Y9352457D1*
X1802904Y9370707D1*
X1930373D1*
X1991837Y9235794D2*
X1979764Y9229758D1*
X1967550Y9217544D1*
X1961513Y9205471D1*
Y9181185D1*
X1967550Y9168971D1*
X1979763Y9156898D1*
X1991836Y9150721D1*
X2010086Y9144685D1*
X2040550D1*
X2058660Y9150721D1*
X2070873Y9156898D1*
X2082946Y9168971D1*
X2089123Y9181185D1*
Y9205471D1*
X2082946Y9217544D1*
X2070873Y9229758D1*
X2058660Y9235794D1*
X1985940Y9275010D2*
X1979764Y9287224D1*
X1961654Y9305474D1*
X2089123Y9305473D1*
X1991977Y9350866D2*
X1985940D1*
X1973727Y9356903D1*
X1967690Y9362939D1*
X1961654Y9375153D1*
Y9399439D1*
X1967690Y9411512D1*
X1973727Y9417549D1*
X1985940Y9423726D1*
X1998014D1*
X2010227Y9417549D1*
X2028337Y9405476D1*
X2089123Y9344689D1*
Y9429762D1*
X2150587Y9235794D2*
X2138514Y9229758D1*
X2126300Y9217544D1*
X2120263Y9205471D1*
Y9181185D1*
X2126300Y9168971D1*
X2138513Y9156898D1*
X2150586Y9150721D1*
X2168836Y9144685D1*
X2199300D1*
X2217410Y9150721D1*
X2229623Y9156898D1*
X2241696Y9168971D1*
X2247873Y9181185D1*
Y9205471D1*
X2241696Y9217544D1*
X2229623Y9229758D1*
X2217410Y9235794D1*
X2144690Y9275010D2*
X2138514Y9287224D1*
X2120404Y9305474D1*
X2247873Y9305473D1*
X2120404Y9356903D2*
Y9423585D1*
X2168977Y9387226D1*
Y9405476D1*
X2175014Y9417549D1*
X2181050Y9423585D1*
X2199300Y9429762D1*
X2211373D1*
X2229623Y9423585D1*
X2241837Y9411512D1*
X2247873Y9393262D1*
Y9375012D1*
X2241837Y9356903D1*
X2235660Y9350866D1*
X2223587Y9344689D1*
X2309337Y9232776D2*
X2297264Y9226740D1*
X2285050Y9214526D1*
X2279013Y9202453D1*
Y9178167D1*
X2285050Y9165953D1*
X2297263Y9153880D1*
X2309336Y9147703D1*
X2327586Y9141667D1*
X2358050D1*
X2376160Y9147703D1*
X2388373Y9153880D1*
X2400446Y9165953D1*
X2406623Y9178167D1*
Y9202453D1*
X2400446Y9214526D1*
X2388373Y9226740D1*
X2376160Y9232776D1*
X2303440Y9271992D2*
X2297264Y9284205D1*
X2279154Y9302455D1*
X2406623D1*
Y9402457D2*
X2279154D1*
X2364087Y9341671D1*
Y9432780D1*
X2468087Y9235794D2*
X2456014Y9229758D1*
X2443800Y9217544D1*
X2437763Y9205471D1*
Y9181185D1*
X2443800Y9168971D1*
X2456013Y9156898D1*
X2468086Y9150721D1*
X2486336Y9144685D1*
X2516800D1*
X2534910Y9150721D1*
X2547123Y9156898D1*
X2559196Y9168971D1*
X2565373Y9181185D1*
Y9205471D1*
X2559196Y9217544D1*
X2547123Y9229758D1*
X2534910Y9235794D1*
X2462190Y9275010D2*
X2456014Y9287224D1*
X2437904Y9305474D1*
X2565373Y9305473D1*
X2437904Y9417549D2*
Y9356903D1*
X2492514Y9350866D1*
X2486477Y9356903D1*
X2480300Y9375153D1*
Y9393262D1*
X2486477Y9411512D1*
X2498550Y9423726D1*
X2516800Y9429762D1*
X2528873D1*
X2547123Y9423726D1*
X2559337Y9411512D1*
X2565373Y9393262D1*
Y9375152D1*
X2559337Y9356903D1*
X2553160Y9350866D1*
X2541087Y9344689D1*
X718033Y4403440D2*
X711996Y4415513D1*
X699783Y4427727D1*
X687710Y4433763D1*
X663423D1*
X651210Y4427727D1*
X639136Y4415513D1*
X632960Y4403440D1*
X626923Y4385190D1*
Y4354727D1*
X632960Y4336617D1*
X639136Y4324404D1*
X651210Y4312331D1*
X663423Y4306154D1*
X687710D1*
X699783Y4312331D1*
X711996Y4324404D1*
X718033Y4336617D1*
X757248Y4409336D2*
X769462Y4415513D1*
X787712Y4433623D1*
Y4306154D1*
X899787Y4415513D2*
X893751Y4427586D1*
X875501Y4433623D1*
X863427D1*
X845177Y4427586D1*
X832964Y4409336D1*
X826927Y4379013D1*
Y4348690D1*
X832964Y4324404D1*
X845177Y4312190D1*
X863427Y4306154D1*
X869464D1*
X887574Y4312190D1*
X899787Y4324404D1*
X905824Y4342654D1*
Y4348690D1*
X899787Y4366940D1*
X887574Y4379013D1*
X869464Y4385050D1*
X863427D1*
X845177Y4379013D1*
X832964Y4366940D1*
X826927Y4348690D1*
X1675044Y3410414D2*
X1669008Y3422487D1*
X1656794Y3434700D1*
X1644721Y3440737D1*
X1620435D1*
X1608221Y3434700D1*
X1596148Y3422487D1*
X1589971Y3410414D1*
X1583935Y3392164D1*
Y3361700D1*
X1589971Y3343590D1*
X1596148Y3331377D1*
X1608221Y3319304D1*
X1620435Y3313127D1*
X1644721D1*
X1656794Y3319304D1*
X1669008Y3331377D1*
X1675044Y3343590D1*
X1714260Y3416310D2*
X1726473Y3422487D1*
X1744723Y3440596D1*
Y3313127D1*
X1808226D2*
X1869012Y3440596D1*
X1783939D1*
X1260102Y4270363D2*
X1181066D1*
Y4142754D1*
Y4209577D2*
X1229639D1*
X1299318Y4227827D2*
Y4167040D1*
X1305355Y4148931D1*
X1317568Y4142754D1*
X1335818D1*
X1347891Y4148931D1*
X1366141Y4167040D1*
Y4227827D2*
Y4142754D1*
X1472180Y4209577D2*
X1466143Y4221790D1*
X1447893Y4227827D1*
X1429643D1*
X1411393Y4221790D1*
X1405357Y4209577D1*
X1411393Y4197504D1*
X1423607Y4191327D1*
X1453930Y4185290D1*
X1466143Y4179254D1*
X1472180Y4167040D1*
Y4161004D1*
X1466143Y4148931D1*
X1447893Y4142754D1*
X1429643D1*
X1411393Y4148931D1*
X1405357Y4161004D1*
X1511395Y4191327D2*
X1584255D1*
Y4203540D1*
X1578219Y4215754D1*
X1572182Y4221790D1*
X1559969Y4227827D1*
X1541719D1*
X1529645Y4221790D1*
X1517432Y4209577D1*
X1511395Y4191327D1*
Y4179254D1*
X1517432Y4161004D1*
X1529645Y4148931D1*
X1541719Y4142754D1*
X1559969D1*
X1572182Y4148931D1*
X1584255Y4161004D1*
X1623471Y4245936D2*
X1635684Y4252113D1*
X1653934Y4270223D1*
Y4142754D1*
X226763Y1178251D2*
X354373D1*
X226764Y1263324D2*
X354373D1*
X287550Y1178251D2*
Y1263324D1*
X257087Y1393650D2*
X245014Y1387613D1*
X232800Y1375400D1*
X226764Y1363326D1*
Y1339040D1*
X232800Y1326827D1*
X245014Y1314753D1*
X257087Y1308577D1*
X275337Y1302540D1*
X305800D1*
X323910Y1308576D1*
X336123Y1314753D1*
X348196Y1326826D1*
X354373Y1339040D1*
Y1363326D1*
X348196Y1375399D1*
X336123Y1387613D1*
X323910Y1393649D1*
X290639Y1432865D2*
X290638Y1503057D1*
X245013Y1627346D2*
X232800Y1615273D1*
X226764Y1597023D1*
Y1572737D1*
X232800Y1554487D1*
X245014Y1542273D1*
X257087D1*
X269300Y1548450D1*
X275337Y1554487D1*
X281373Y1566560D1*
X293587Y1603060D1*
X299623Y1615273D1*
X305800Y1621310D1*
X317873Y1627346D1*
X336123D1*
X348196Y1615273D1*
X354373Y1597023D1*
Y1572737D1*
X348196Y1554487D1*
X336123Y1542273D1*
X287550Y1666562D2*
Y1721171D1*
X281373Y1739421D1*
X275337Y1745598D1*
X263263Y1751635D1*
X251050D1*
X238977Y1745598D1*
X232800Y1739421D1*
X226763Y1721171D1*
Y1666562D1*
X354373D1*
X287550Y1709098D2*
X354373Y1751635D1*
X226904Y1827351D2*
X232940Y1809101D1*
X251190Y1796887D1*
X281513Y1790851D1*
X299763D1*
X330087Y1796887D1*
X348336Y1809101D1*
X354373Y1827351D1*
Y1839424D1*
X348336Y1857674D1*
X330086Y1869747D1*
X299763Y1875924D1*
X281513D1*
X251190Y1869747D1*
X232940Y1857674D1*
X226904Y1839424D1*
Y1827351D1*
X251190Y1869747D2*
X330087Y1796887D1*
X354373Y1975926D2*
X226904D1*
X311837Y1915139D1*
X311836Y2006249D1*
X2105726Y4370208D2*
Y4242599D1*
X2178586D1*
X2314948D2*
Y4370208D1*
X2266375Y4242599D1*
X2217801Y4370208D1*
Y4242599D1*
X2354163Y4345781D2*
X2366377Y4351958D1*
X2384627Y4370068D1*
Y4242599D1*
X2423842Y4345781D2*
X2436056Y4351958D1*
X2454306Y4370068D1*
Y4242599D1*
X2493522Y4345781D2*
X2505735Y4351958D1*
X2523985Y4370068D1*
Y4242599D1*
X2587487D2*
X2648274Y4370068D1*
X2563201D1*
X66227Y4138950D2*
Y4053877D1*
Y4114664D2*
X84477Y4132914D1*
X96690Y4138950D1*
X114800D1*
X127013Y4132914D1*
X133050Y4114664D1*
Y4053877D1*
Y4114664D2*
X151300Y4132914D1*
X163513Y4138950D1*
X181623D1*
X193837Y4132914D1*
X200013Y4114664D1*
Y4053877D1*
X239229Y4181487D2*
Y4090377D1*
X245266Y4072127D1*
X257479Y4060054D1*
X275729Y4053877D1*
X287802D1*
X306052Y4060054D1*
X318266Y4072127D1*
X324302Y4090377D1*
Y4181487D1*
X448591Y4163237D2*
X436518Y4175450D1*
X418268Y4181487D1*
X393981D1*
X375731Y4175450D1*
X363518Y4163237D1*
Y4151164D1*
X369695Y4138950D1*
X375731Y4132914D1*
X387804Y4126877D1*
X424304Y4114664D1*
X436518Y4108627D1*
X442554Y4102450D1*
X448591Y4090377D1*
Y4072127D1*
X436518Y4060054D1*
X418268Y4053877D1*
X393981D1*
X375731Y4060054D1*
X363518Y4072127D1*
X487807Y4181487D2*
Y4053877D1*
X542557D1*
X560807Y4060054D1*
X566843Y4066090D1*
X572880Y4078164D1*
Y4096414D1*
X566843Y4108627D1*
X560807Y4114664D1*
X542557Y4120700D1*
X560807Y4126877D1*
X566843Y4132914D1*
X572880Y4144987D1*
Y4157200D1*
X566843Y4169273D1*
X560807Y4175450D1*
X542557Y4181487D1*
X487807D1*
Y4120700D2*
X542557D1*
X4094250Y4534265D2*
X4082177Y4528369D1*
X4069964Y4516155D1*
X4063927Y4503942D1*
X4057750Y4485692D1*
Y4455369D1*
X4063927Y4437119D1*
X4069964Y4425046D1*
X4082177Y4412832D1*
X4094250Y4406796D1*
X4118537D1*
X4130750Y4412832D1*
X4142824Y4425046D1*
X4148860Y4437119D1*
X4155037Y4455369D1*
Y4485692D1*
X4148860Y4503942D1*
X4142824Y4516155D1*
X4130750Y4528369D1*
X4118537Y4534265D1*
X4094250D1*
X4112500Y4431082D2*
X4148860Y4394582D1*
X4194253Y4509838D2*
X4206466Y4516015D1*
X4224716Y4534125D1*
Y4406655D1*
X4606696Y4518392D2*
X4594623Y4512495D1*
X4582409Y4500282D1*
X4576373Y4488069D1*
X4570196Y4469819D1*
Y4439495D1*
X4576373Y4421245D1*
X4582409Y4409172D1*
X4594623Y4396959D1*
X4606696Y4390922D1*
X4630982D1*
X4643196Y4396959D1*
X4655269Y4409172D1*
X4661305Y4421245D1*
X4667482Y4439495D1*
Y4469819D1*
X4661305Y4488069D1*
X4655269Y4500282D1*
X4643196Y4512495D1*
X4630982Y4518392D1*
X4606696D1*
X4624946Y4415209D2*
X4661305Y4378709D1*
X4712875Y4487928D2*
Y4493965D1*
X4718911Y4506178D1*
X4724948Y4512215D1*
X4737161Y4518251D1*
X4761448D1*
X4773521Y4512215D1*
X4779558Y4506178D1*
X4785734Y4493965D1*
Y4481892D1*
X4779558Y4469678D1*
X4767484Y4451569D1*
X4706698Y4390782D1*
X4791771D1*
X3972819Y3881950D2*
X4027429D1*
X4045679Y3888127D1*
X4051856Y3894164D1*
X4057892Y3906237D1*
Y3918450D1*
X4051856Y3930523D1*
X4045679Y3936700D1*
X4027429Y3942737D1*
X3972819D1*
Y3815127D1*
X4015356Y3881950D2*
X4057892Y3815127D1*
X4109321Y3942596D2*
X4176004D1*
X4139644Y3894023D1*
X4157894D1*
X4169967Y3887987D1*
X4176004Y3881950D1*
X4182181Y3863700D1*
Y3851627D1*
X4176004Y3833377D1*
X4163931Y3821164D1*
X4145681Y3815127D1*
X4127431D1*
X4109321Y3821164D1*
X4103285Y3827340D1*
X4097108Y3839414D1*
X4763551Y3913700D2*
X4818160D1*
X4836410Y3919877D1*
X4842587Y3925914D1*
X4848624Y3937987D1*
Y3950200D1*
X4842587Y3962273D1*
X4836410Y3968450D1*
X4818160Y3974487D1*
X4763551D1*
Y3846877D1*
X4806087Y3913700D2*
X4848624Y3846877D1*
X4948626D2*
Y3974346D1*
X4887840Y3889414D1*
X4978949D1*
X3560069Y3881950D2*
X3614679D1*
X3632929Y3888127D1*
X3639106Y3894164D1*
X3645142Y3906237D1*
Y3918450D1*
X3639106Y3930523D1*
X3632929Y3936700D1*
X3614679Y3942737D1*
X3560069D1*
Y3815127D1*
X3602606Y3881950D2*
X3645142Y3815127D1*
X3757217Y3942596D2*
X3696571D1*
X3690535Y3887987D1*
X3696571Y3894023D1*
X3714821Y3900200D1*
X3732931D1*
X3751181Y3894023D1*
X3763394Y3881950D1*
X3769431Y3863700D1*
Y3851627D1*
X3763394Y3833377D1*
X3751181Y3821164D1*
X3732931Y3815127D1*
X3714821D1*
X3696571Y3821164D1*
X3690535Y3827340D1*
X3684358Y3839414D1*
X229408Y384827D2*
X284017D1*
X302267Y391004D1*
X308444Y397040D1*
X314481Y409113D1*
Y421327D1*
X308444Y433400D1*
X302267Y439577D1*
X284017Y445613D1*
X229408D1*
Y318004D1*
X271944Y384827D2*
X314481Y318004D1*
X426556Y427363D2*
X420519Y439436D1*
X402269Y445473D1*
X390196D1*
X371946Y439436D1*
X359733Y421186D1*
X353696Y390863D1*
Y360540D1*
X359733Y336254D1*
X371946Y324040D1*
X390196Y318004D1*
X396233D1*
X414342Y324040D1*
X426556Y336254D1*
X432592Y354504D1*
Y360540D1*
X426556Y378790D1*
X414342Y390863D1*
X396233Y396900D1*
X390196D1*
X371946Y390863D1*
X359733Y378790D1*
X353696Y360540D1*
X575569Y394200D2*
X630179D1*
X648429Y400377D1*
X654606Y406414D1*
X660642Y418487D1*
Y430700D1*
X654606Y442773D1*
X648429Y448950D1*
X630179Y454987D1*
X575569D1*
Y327377D1*
X618106Y394200D2*
X660642Y327377D1*
X724144D2*
X784931Y454846D1*
X699858D1*
X5381050Y3985640D2*
Y4040249D1*
X5374873Y4058499D1*
X5368837Y4064676D1*
X5356764Y4070713D1*
X5344550D1*
X5332477Y4064676D1*
X5326300Y4058499D1*
X5320263Y4040249D1*
Y3985640D1*
X5447873D1*
X5381050Y4028176D2*
X5447873Y4070712D1*
X5320404Y4140251D2*
X5326440Y4122142D1*
X5338514Y4115965D1*
X5350727D1*
X5362800Y4122142D1*
X5368977Y4134215D1*
X5375014Y4158501D1*
X5381050Y4176751D1*
X5393264Y4188824D1*
X5405337Y4194861D1*
X5423587D1*
X5435660Y4188824D1*
X5441837Y4182788D1*
X5447873Y4164538D1*
Y4140251D1*
X5441837Y4122142D1*
X5435660Y4115965D1*
X5423587Y4109928D1*
X5405337D1*
X5393264Y4115965D1*
X5381050Y4128178D1*
X5375014Y4146288D1*
X5368977Y4170574D1*
X5362800Y4182788D1*
X5350727Y4188824D1*
X5338514D1*
X5326440Y4182788D1*
X5320404Y4164538D1*
Y4140251D1*
X5666800Y3988588D2*
Y4043197D1*
X5660623Y4061447D1*
X5654587Y4067624D1*
X5642514Y4073661D1*
X5630300D1*
X5618227Y4067624D1*
X5612050Y4061447D1*
X5606013Y4043197D1*
Y3988588D1*
X5733623D1*
X5666800Y4031124D2*
X5733623Y4073661D1*
X5648550Y4191913D2*
X5666800Y4185736D1*
X5679014Y4173663D1*
X5685050Y4155413D1*
Y4149376D1*
X5679014Y4131126D1*
X5666800Y4119053D1*
X5648550Y4112876D1*
X5642514D1*
X5624264Y4119053D1*
X5612190Y4131126D1*
X5606154Y4149376D1*
Y4155413D1*
X5612190Y4173663D1*
X5624264Y4185736D1*
X5648550Y4191913D1*
X5679014D1*
X5709337Y4185736D1*
X5727587Y4173663D1*
X5733623Y4155413D1*
Y4143340D1*
X5727587Y4125090D1*
X5715373Y4119053D1*
X5920800Y3918980D2*
Y3973589D1*
X5914623Y3991839D1*
X5908587Y3998016D1*
X5896514Y4004053D1*
X5884300D1*
X5872227Y3998016D1*
X5866050Y3991839D1*
X5860013Y3973589D1*
Y3918980D1*
X5987623D1*
X5920800Y3961516D2*
X5987623Y4004053D1*
X5884440Y4043268D2*
X5878264Y4055482D1*
X5860154Y4073732D1*
X5987623D1*
X5860154Y4149448D2*
X5866190Y4131198D1*
X5884440Y4118984D1*
X5914764Y4112948D1*
X5933014Y4112947D1*
X5963337Y4118984D1*
X5981587Y4131197D1*
X5987623Y4149447D1*
Y4161521D1*
X5981587Y4179771D1*
X5963337Y4191844D1*
X5933013Y4198021D1*
X5914764D1*
X5884440Y4191844D1*
X5866190Y4179771D1*
X5860154Y4161521D1*
Y4149448D1*
X5884440Y4191844D2*
X5963337Y4118984D1*
X2843912Y2828737D2*
X2831839Y2840950D1*
X2813589Y2846987D1*
X2789302D1*
X2771052Y2840950D1*
X2758839Y2828737D1*
Y2816664D1*
X2765016Y2804450D1*
X2771052Y2798414D1*
X2783125Y2792377D1*
X2819625Y2780164D1*
X2831839Y2774127D1*
X2837875Y2767950D1*
X2843912Y2755877D1*
Y2737627D1*
X2831839Y2725554D1*
X2813589Y2719377D1*
X2789302D1*
X2771052Y2725554D1*
X2758839Y2737627D1*
X2925664Y2846987D2*
Y2719377D1*
X2883127Y2846987D2*
X2968201D1*
X3104562Y2719377D2*
Y2846987D1*
X3055989Y2719377D1*
X3007416Y2846987D1*
Y2719377D1*
X3155992Y2846846D2*
X3222674D1*
X3186315Y2798273D1*
X3204565D1*
X3216638Y2792237D1*
X3222674Y2786200D1*
X3228851Y2767950D1*
Y2755877D1*
X3222674Y2737627D1*
X3210601Y2725414D1*
X3192351Y2719377D1*
X3174101D1*
X3155992Y2725414D1*
X3149955Y2731590D1*
X3143778Y2743664D1*
X3274244Y2816523D2*
Y2822560D1*
X3280280Y2834773D1*
X3286317Y2840810D1*
X3298530Y2846846D1*
X3322817D1*
X3334890Y2840810D1*
X3340926Y2834773D1*
X3347103Y2822560D1*
Y2810487D1*
X3340926Y2798273D1*
X3328853Y2780164D1*
X3268067Y2719377D1*
X3353140D1*
X3471392Y2846987D2*
X3392356D1*
Y2719377D1*
Y2786200D2*
X3440929D1*
X3522821Y2846846D2*
X3589504D1*
X3553144Y2798273D1*
X3571394D1*
X3583467Y2792237D1*
X3589504Y2786200D1*
X3595681Y2767950D1*
Y2755877D1*
X3589504Y2737627D1*
X3577431Y2725414D1*
X3559181Y2719377D1*
X3540931D1*
X3522821Y2725414D1*
X3516785Y2731590D1*
X3510608Y2743664D1*
X3671397Y2846846D2*
X3653147Y2840810D1*
X3640933Y2822560D1*
X3634897Y2792237D1*
Y2773987D1*
X3640933Y2743664D1*
X3653147Y2725414D1*
X3671397Y2719377D1*
X3683470D1*
X3701720Y2725414D1*
X3713793Y2743664D1*
X3719970Y2773987D1*
Y2792237D1*
X3713793Y2822560D1*
X3701720Y2840810D1*
X3683470Y2846846D1*
X3671397D1*
X3713793Y2822560D2*
X3640933Y2743664D1*
X3771399Y2846846D2*
X3838082D1*
X3801722Y2798273D1*
X3819972D1*
X3832045Y2792237D1*
X3838082Y2786200D1*
X3844258Y2767950D1*
Y2755877D1*
X3838082Y2737627D1*
X3826008Y2725414D1*
X3807758Y2719377D1*
X3789508D1*
X3771399Y2725414D1*
X3765362Y2731590D1*
X3759185Y2743664D1*
X3883474Y2786200D2*
X3938084D1*
X3956334Y2792377D1*
X3962511Y2798414D1*
X3968547Y2810487D1*
Y2822700D1*
X3962511Y2834773D1*
X3956334Y2840950D1*
X3938084Y2846987D1*
X3883474D1*
Y2719377D1*
X3926011Y2786200D2*
X3968547Y2719377D1*
X4098873Y2816664D2*
X4092836Y2828737D1*
X4080623Y2840950D1*
X4068549Y2846987D1*
X4044263D1*
X4032049Y2840950D1*
X4019976Y2828737D1*
X4013799Y2816664D1*
X4007763Y2798414D1*
Y2767950D1*
X4013799Y2749840D1*
X4019976Y2737627D1*
X4032049Y2725554D1*
X4044263Y2719377D1*
X4068549D1*
X4080623Y2725554D1*
X4092836Y2737627D1*
X4098873Y2749840D1*
X4180625Y2846987D2*
Y2719377D1*
X4138088Y2846987D2*
X4223161D1*
X6186491Y3712610D2*
X6174418Y3724823D1*
X6156168Y3730860D1*
X6131881D1*
X6113631Y3724823D1*
X6101418Y3712610D1*
Y3700537D1*
X6107595Y3688323D1*
X6113631Y3682287D1*
X6125705Y3676250D1*
X6162205Y3664037D1*
X6174418Y3658000D1*
X6180455Y3651823D1*
X6186491Y3639750D1*
Y3621500D1*
X6174418Y3609427D1*
X6156168Y3603250D1*
X6131881D1*
X6113631Y3609427D1*
X6101418Y3621500D1*
X6225707Y3730860D2*
X6256170Y3603250D1*
X6286493Y3730860D1*
X6316816Y3603250D1*
X6347280Y3730860D1*
X6386496D2*
Y3603250D1*
X6429032D1*
X6447282Y3609427D1*
X6459496Y3621500D1*
X6465532Y3633714D1*
X6471569Y3651823D1*
Y3682287D1*
X6465532Y3700537D1*
X6459496Y3712610D1*
X6447282Y3724823D1*
X6429032Y3730860D1*
X6386496D1*
X1090164Y2957771D2*
D92*
X1041647D1*
X1036818Y2914083D1*
X1041647Y2918913D1*
X1056247Y2923854D1*
X1070735D1*
X1085335Y2918913D1*
X1095106Y2909254D1*
X1099935Y2894654D1*
Y2884996D1*
X1095106Y2870396D1*
X1085335Y2860625D1*
X1070735Y2855796D1*
X1056247D1*
X1041647Y2860625D1*
X1036818Y2865566D1*
X1031876Y2875225D1*
X1131307Y2957883D2*
X1170166Y2855796D1*
X1209024Y2957883D1*
X206376Y2528254D2*
X250064D1*
X264664Y2533196D1*
X269606Y2538025D1*
X274435Y2547683D1*
Y2557454D1*
X269606Y2567113D1*
X264664Y2572054D1*
X250064Y2576883D1*
X206376D1*
Y2474796D1*
X240406Y2528254D2*
X274435Y2474796D1*
X305807Y2557342D2*
X315578Y2562283D1*
X330178Y2576771D1*
Y2474796D1*
X111126Y2269425D2*
X154926D1*
X169414Y2274254D1*
X174356Y2279196D1*
X179185Y2288854D1*
Y2303454D1*
X174356Y2313113D1*
X169414Y2318054D1*
X154926Y2322883D1*
X111126D1*
Y2220796D1*
X210557Y2322883D2*
X234928Y2220796D1*
X259187Y2322883D1*
X283445Y2220796D1*
X307816Y2322883D1*
X339188Y2274254D2*
X382876D1*
X397476Y2279196D1*
X402418Y2284025D1*
X407247Y2293683D1*
Y2303454D1*
X402418Y2313113D1*
X397476Y2318054D1*
X382876Y2322883D1*
X339188D1*
Y2220796D1*
X373218Y2274254D2*
X407247Y2220796D1*
X566577Y2322883D2*
X556806Y2318054D1*
X547147Y2308283D1*
X542206Y2298625D1*
X537377Y2284025D1*
Y2259654D1*
X542206Y2245166D1*
X547147Y2235396D1*
X556806Y2225737D1*
X566577Y2220796D1*
X586006D1*
X595664Y2225737D1*
X605435Y2235396D1*
X610264Y2245166D1*
X615094Y2259654D1*
Y2284025D1*
X610264Y2298625D1*
X605435Y2308283D1*
X595664Y2318054D1*
X586006Y2322883D1*
X566577D1*
X646466D2*
Y2220796D1*
X714525Y2322883D2*
X646466Y2254825D1*
X670725Y2279196D2*
X714525Y2220796D1*
X896843Y2642581D2*
X940643D1*
X955131Y2647411D1*
X960072Y2652352D1*
X964902Y2662011D1*
Y2676611D1*
X960072Y2686269D1*
X955131Y2691211D1*
X940643Y2696040D1*
X896843D1*
Y2593952D1*
X1069162Y2671781D2*
X1064333Y2681440D1*
X1054562Y2691211D1*
X1044903Y2696040D1*
X1025474D1*
X1015703Y2691211D1*
X1006045Y2681440D1*
X1001103Y2671781D1*
X996274Y2657181D1*
Y2632811D1*
X1001103Y2618323D1*
X1006045Y2608552D1*
X1015703Y2598894D1*
X1025474Y2593952D1*
X1044903D1*
X1054562Y2598894D1*
X1064333Y2608552D1*
X1069162Y2618323D1*
X1100534Y2676498D2*
X1110305Y2681440D1*
X1124905Y2695928D1*
Y2593952D1*
X1204907D2*
Y2695928D1*
X1156278Y2627981D1*
X1229165D1*
X952500Y2396425D2*
X996300D1*
X1010787Y2401254D1*
X1015729Y2406196D1*
X1020558Y2415854D1*
Y2430454D1*
X1015729Y2440113D1*
X1010787Y2445054D1*
X996300Y2449883D1*
X952500D1*
Y2347796D1*
X1115160Y2449883D2*
X1051931D1*
Y2347796D1*
Y2401254D2*
X1090789D1*
X1175733Y2449771D2*
X1161133Y2444942D1*
X1151362Y2430342D1*
X1146533Y2406083D1*
Y2391483D1*
X1151362Y2367225D1*
X1161133Y2352625D1*
X1175733Y2347796D1*
X1185391D1*
X1199991Y2352625D1*
X1209650Y2367225D1*
X1214591Y2391483D1*
Y2406083D1*
X1209650Y2430342D1*
X1199991Y2444942D1*
X1185391Y2449771D1*
X1175733D1*
X1209650Y2430342D2*
X1151362Y2367225D1*
X952500Y2142425D2*
X996300D1*
X1010787Y2147254D1*
X1015729Y2152196D1*
X1020558Y2161854D1*
Y2176454D1*
X1015729Y2186113D1*
X1010787Y2191054D1*
X996300Y2195883D1*
X952500D1*
Y2093796D1*
X1124819Y2171625D2*
X1119989Y2181283D1*
X1110219Y2191054D1*
X1100560Y2195883D1*
X1081131D1*
X1071360Y2191054D1*
X1061702Y2181283D1*
X1056760Y2171625D1*
X1051931Y2157025D1*
Y2132654D1*
X1056760Y2118166D1*
X1061702Y2108396D1*
X1071360Y2098737D1*
X1081131Y2093796D1*
X1100560D1*
X1110219Y2098737D1*
X1119989Y2108396D1*
X1124819Y2118166D1*
X1185391Y2195771D2*
X1170791Y2190942D1*
X1161020Y2176342D1*
X1156191Y2152083D1*
Y2137483D1*
X1161020Y2113225D1*
X1170791Y2098625D1*
X1185391Y2093796D1*
X1195050D1*
X1209650Y2098625D1*
X1219308Y2113225D1*
X1224250Y2137483D1*
Y2152083D1*
X1219308Y2176342D1*
X1209650Y2190942D1*
X1195050Y2195771D1*
X1185391D1*
X1219308Y2176342D2*
X1161020Y2113225D1*
X952500Y1888425D2*
X996300D1*
X1010787Y1893254D1*
X1015729Y1898196D1*
X1020558Y1907854D1*
Y1922454D1*
X1015729Y1932113D1*
X1010787Y1937054D1*
X996300Y1941883D1*
X952500D1*
Y1839796D1*
X1124819Y1917625D2*
X1119989Y1927283D1*
X1110219Y1937054D1*
X1100560Y1941883D1*
X1081131D1*
X1071360Y1937054D1*
X1061702Y1927283D1*
X1056760Y1917625D1*
X1051931Y1903025D1*
Y1878654D1*
X1056760Y1864166D1*
X1061702Y1854396D1*
X1071360Y1844737D1*
X1081131Y1839796D1*
X1100560D1*
X1110219Y1844737D1*
X1119989Y1854396D1*
X1124819Y1864166D1*
X1161133Y1917513D2*
Y1922342D1*
X1165962Y1932113D1*
X1170791Y1936942D1*
X1180562Y1941771D1*
X1199991D1*
X1209650Y1936942D1*
X1214479Y1932113D1*
X1219420Y1922342D1*
Y1912683D1*
X1214479Y1902913D1*
X1204820Y1888425D1*
X1156191Y1839796D1*
X1224250D1*
X1084058Y1687883D2*
Y1585796D1*
X1016000Y1687883D1*
Y1585796D1*
X1188319Y1663625D2*
X1183489Y1673283D1*
X1173719Y1683054D1*
X1164060Y1687883D1*
X1144631D1*
X1134860Y1683054D1*
X1125202Y1673283D1*
X1120260Y1663625D1*
X1115431Y1649025D1*
Y1624654D1*
X1120260Y1610166D1*
X1125202Y1600396D1*
X1134860Y1590737D1*
X1144631Y1585796D1*
X1164060D1*
X1173719Y1590737D1*
X1183489Y1600396D1*
X1188319Y1610166D1*
X1084058Y1433883D2*
Y1331796D1*
X1016000Y1433883D1*
Y1331796D1*
X1188319Y1409625D2*
X1183489Y1419283D1*
X1173719Y1429054D1*
X1164060Y1433883D1*
X1144631D1*
X1134860Y1429054D1*
X1125202Y1419283D1*
X1120260Y1409625D1*
X1115431Y1395025D1*
Y1370654D1*
X1120260Y1356166D1*
X1125202Y1346396D1*
X1134860Y1336737D1*
X1144631Y1331796D1*
X1164060D1*
X1173719Y1336737D1*
X1183489Y1346396D1*
X1188319Y1356166D1*
X952500Y872425D2*
X996300D1*
X1010787Y877254D1*
X1015729Y882196D1*
X1020558Y891854D1*
Y906454D1*
X1015729Y916113D1*
X1010787Y921054D1*
X996300Y925883D1*
X952500D1*
Y823796D1*
X1124819Y901625D2*
X1119989Y911283D1*
X1110219Y921054D1*
X1100560Y925883D1*
X1081131D1*
X1071360Y921054D1*
X1061702Y911283D1*
X1056760Y901625D1*
X1051931Y887025D1*
Y862654D1*
X1056760Y848166D1*
X1061702Y838396D1*
X1071360Y828737D1*
X1081131Y823796D1*
X1100560D1*
X1110219Y828737D1*
X1119989Y838396D1*
X1124819Y848166D1*
X1204820Y823796D2*
Y925771D1*
X1156191Y857825D1*
X1229079D1*
X952500Y618425D2*
X996300D1*
X1010787Y623254D1*
X1015729Y628196D1*
X1020558Y637854D1*
Y652454D1*
X1015729Y662113D1*
X1010787Y667054D1*
X996300Y671883D1*
X952500D1*
Y569796D1*
X1051931Y671883D2*
Y569796D1*
X1095731D1*
X1110331Y574737D1*
X1115160Y579566D1*
X1119989Y589225D1*
Y603825D1*
X1115160Y613596D1*
X1110331Y618425D1*
X1095731Y623254D1*
X1110331Y628196D1*
X1115160Y633025D1*
X1119989Y642683D1*
Y652454D1*
X1115160Y662113D1*
X1110331Y667054D1*
X1095731Y671883D1*
X1051931D1*
Y623254D2*
X1095731D1*
X1180562Y671771D2*
X1165962Y666942D1*
X1156191Y652342D1*
X1151362Y628083D1*
Y613483D1*
X1156191Y589225D1*
X1165962Y574625D1*
X1180562Y569796D1*
X1190220D1*
X1204820Y574625D1*
X1214479Y589225D1*
X1219420Y613483D1*
Y628083D1*
X1214479Y652342D1*
X1204820Y666942D1*
X1190220Y671771D1*
X1180562D1*
X1214479Y652342D2*
X1156191Y589225D1*
X952500Y364425D2*
X996300D1*
X1010787Y369254D1*
X1015729Y374196D1*
X1020558Y383854D1*
Y398454D1*
X1015729Y408113D1*
X1010787Y413054D1*
X996300Y417883D1*
X952500D1*
Y315796D1*
X1051931Y417883D2*
Y315796D1*
X1095731D1*
X1110331Y320737D1*
X1115160Y325566D1*
X1119989Y335225D1*
Y349825D1*
X1115160Y359596D1*
X1110331Y364425D1*
X1095731Y369254D1*
X1110331Y374196D1*
X1115160Y379025D1*
X1119989Y388683D1*
Y398454D1*
X1115160Y408113D1*
X1110331Y413054D1*
X1095731Y417883D1*
X1051931D1*
Y369254D2*
X1095731D1*
X1156303Y393513D2*
Y398342D1*
X1161133Y408113D1*
X1165962Y412942D1*
X1175733Y417771D1*
X1195162D1*
X1204820Y412942D1*
X1209650Y408113D1*
X1214591Y398342D1*
Y388683D1*
X1209650Y378913D1*
X1199991Y364425D1*
X1151362Y315796D1*
X1219420D1*
X759048Y1360804D2*
D93*
X755426Y1368048D1*
X748098Y1375376D1*
X740854Y1378998D1*
X726282D1*
X718954Y1375376D1*
X711710Y1368048D1*
X708004Y1360804D1*
X704382Y1349854D1*
Y1331576D1*
X708004Y1320711D1*
X711710Y1313383D1*
X718954Y1306139D1*
X726282Y1302433D1*
X740854D1*
X748098Y1306139D1*
X755426Y1313383D1*
X759048Y1320711D1*
X800771Y1378914D2*
X789906Y1375292D1*
X786199Y1368048D1*
Y1360720D1*
X789906Y1353476D1*
X797149Y1349770D1*
X811721Y1346148D1*
X822671Y1342526D1*
X829915Y1335198D1*
X833537Y1327954D1*
Y1317004D1*
X829915Y1309761D1*
X826293Y1306054D1*
X815343Y1302433D1*
X800771D1*
X789906Y1306054D1*
X786199Y1309761D1*
X782578Y1317004D1*
Y1327954D1*
X786199Y1335198D1*
X793528Y1342526D1*
X804393Y1346148D1*
X818965Y1349770D1*
X826293Y1353476D1*
X829915Y1360720D1*
Y1368048D1*
X826293Y1375292D1*
X815343Y1378914D1*
X800771D1*
X1083422Y1099041D2*
D94*
X1105322D1*
X1112565Y1101455D1*
X1115036Y1103926D1*
X1117451Y1108755D1*
Y1116055D1*
X1115036Y1120885D1*
X1112565Y1123355D1*
X1105322Y1125770D1*
X1083422D1*
Y1074726D1*
X1164752Y1125770D2*
X1133137D1*
Y1074726D1*
Y1101455D2*
X1152566D1*
X1204753Y1074726D2*
Y1125714D1*
X1180438Y1091741D1*
X1216882D1*
X1841500Y2904425D2*
D92*
X1885300D1*
X1899787Y2909254D1*
X1904729Y2914196D1*
X1909558Y2923854D1*
Y2938454D1*
X1904729Y2948113D1*
X1899787Y2953054D1*
X1885300Y2957883D1*
X1841500D1*
Y2855796D1*
X2013819Y2933625D2*
X2008989Y2943283D1*
X1999219Y2953054D1*
X1989560Y2957883D1*
X1970131D1*
X1960360Y2953054D1*
X1950702Y2943283D1*
X1945760Y2933625D1*
X1940931Y2919025D1*
Y2894654D1*
X1945760Y2880166D1*
X1950702Y2870396D1*
X1960360Y2860737D1*
X1970131Y2855796D1*
X1989560D1*
X1999219Y2860737D1*
X2008989Y2870396D1*
X2013819Y2880166D1*
X2045191Y2938342D2*
X2054962Y2943283D1*
X2069562Y2957771D1*
Y2855796D1*
X2110705Y2957771D2*
X2164051D1*
X2134964Y2918913D1*
X2149564D1*
X2159222Y2914083D1*
X2164051Y2909254D1*
X2168993Y2894654D1*
Y2884996D1*
X2164051Y2870396D1*
X2154393Y2860625D1*
X2139793Y2855796D1*
X2125193D1*
X2110705Y2860625D1*
X2105876Y2865566D1*
X2100934Y2875225D1*
X1841500Y2650425D2*
X1885300D1*
X1899787Y2655254D1*
X1904729Y2660196D1*
X1909558Y2669854D1*
Y2684454D1*
X1904729Y2694113D1*
X1899787Y2699054D1*
X1885300Y2703883D1*
X1841500D1*
Y2601796D1*
X2013819Y2679625D2*
X2008989Y2689283D1*
X1999219Y2699054D1*
X1989560Y2703883D1*
X1970131D1*
X1960360Y2699054D1*
X1950702Y2689283D1*
X1945760Y2679625D1*
X1940931Y2665025D1*
Y2640654D1*
X1945760Y2626166D1*
X1950702Y2616396D1*
X1960360Y2606737D1*
X1970131Y2601796D1*
X1989560D1*
X1999219Y2606737D1*
X2008989Y2616396D1*
X2013819Y2626166D1*
X2045191Y2684342D2*
X2054962Y2689283D1*
X2069562Y2703771D1*
Y2601796D1*
X2159222Y2703771D2*
X2110705D1*
X2105876Y2660083D1*
X2110705Y2664913D1*
X2125305Y2669854D1*
X2139793D1*
X2154393Y2664913D1*
X2164164Y2655254D1*
X2168993Y2640654D1*
Y2630996D1*
X2164164Y2616396D1*
X2154393Y2606625D1*
X2139793Y2601796D1*
X2125305D1*
X2110705Y2606625D1*
X2105876Y2611566D1*
X2100934Y2621225D1*
X1841500Y2396425D2*
X1885300D1*
X1899787Y2401254D1*
X1904729Y2406196D1*
X1909558Y2415854D1*
Y2430454D1*
X1904729Y2440113D1*
X1899787Y2445054D1*
X1885300Y2449883D1*
X1841500D1*
Y2347796D1*
X2004160Y2449883D2*
X1940931D1*
Y2347796D1*
Y2401254D2*
X1979789D1*
X2035533Y2430342D2*
X2045303Y2435283D1*
X2059903Y2449771D1*
Y2347796D1*
X1841500Y2142425D2*
X1885300D1*
X1899787Y2147254D1*
X1904729Y2152196D1*
X1909558Y2161854D1*
Y2176454D1*
X1904729Y2186113D1*
X1899787Y2191054D1*
X1885300Y2195883D1*
X1841500D1*
Y2093796D1*
X2013819Y2171625D2*
X2008989Y2181283D1*
X1999219Y2191054D1*
X1989560Y2195883D1*
X1970131D1*
X1960360Y2191054D1*
X1950702Y2181283D1*
X1945760Y2171625D1*
X1940931Y2157025D1*
Y2132654D1*
X1945760Y2118166D1*
X1950702Y2108396D1*
X1960360Y2098737D1*
X1970131Y2093796D1*
X1989560D1*
X1999219Y2098737D1*
X2008989Y2108396D1*
X2013819Y2118166D1*
X2045191Y2176342D2*
X2054962Y2181283D1*
X2069562Y2195771D1*
Y2093796D1*
X1841500Y1888425D2*
X1885300D1*
X1899787Y1893254D1*
X1904729Y1898196D1*
X1909558Y1907854D1*
Y1922454D1*
X1904729Y1932113D1*
X1899787Y1937054D1*
X1885300Y1941883D1*
X1841500D1*
Y1839796D1*
X2013819Y1917625D2*
X2008989Y1927283D1*
X1999219Y1937054D1*
X1989560Y1941883D1*
X1970131D1*
X1960360Y1937054D1*
X1950702Y1927283D1*
X1945760Y1917625D1*
X1940931Y1903025D1*
Y1878654D1*
X1945760Y1864166D1*
X1950702Y1854396D1*
X1960360Y1844737D1*
X1970131Y1839796D1*
X1989560D1*
X1999219Y1844737D1*
X2008989Y1854396D1*
X2013819Y1864166D1*
X2054962Y1941771D2*
X2108308D1*
X2079220Y1902913D1*
X2093820D1*
X2103479Y1898083D1*
X2108308Y1893254D1*
X2113250Y1878654D1*
Y1868996D1*
X2108308Y1854396D1*
X2098650Y1844625D1*
X2084050Y1839796D1*
X2069450D1*
X2054962Y1844625D1*
X2050133Y1849566D1*
X2045191Y1859225D1*
X1909558Y1687883D2*
Y1585796D1*
X1841500Y1687883D1*
Y1585796D1*
X2013819Y1663625D2*
X2008989Y1673283D1*
X1999219Y1683054D1*
X1989560Y1687883D1*
X1970131D1*
X1960360Y1683054D1*
X1950702Y1673283D1*
X1945760Y1663625D1*
X1940931Y1649025D1*
Y1624654D1*
X1945760Y1610166D1*
X1950702Y1600396D1*
X1960360Y1590737D1*
X1970131Y1585796D1*
X1989560D1*
X1999219Y1590737D1*
X2008989Y1600396D1*
X2013819Y1610166D1*
X1909558Y1433883D2*
Y1331796D1*
X1841500Y1433883D1*
Y1331796D1*
X2013819Y1409625D2*
X2008989Y1419283D1*
X1999219Y1429054D1*
X1989560Y1433883D1*
X1970131D1*
X1960360Y1429054D1*
X1950702Y1419283D1*
X1945760Y1409625D1*
X1940931Y1395025D1*
Y1370654D1*
X1945760Y1356166D1*
X1950702Y1346396D1*
X1960360Y1336737D1*
X1970131Y1331796D1*
X1989560D1*
X1999219Y1336737D1*
X2008989Y1346396D1*
X2013819Y1356166D1*
X1841500Y1126425D2*
X1885300D1*
X1899787Y1131254D1*
X1904729Y1136196D1*
X1909558Y1145854D1*
Y1160454D1*
X1904729Y1170113D1*
X1899787Y1175054D1*
X1885300Y1179883D1*
X1841500D1*
Y1077796D1*
X2018760D2*
X1979789Y1179883D1*
X1940931Y1077796D1*
X1955531Y1111825D2*
X2004160D1*
X2098762Y1077796D2*
Y1179771D1*
X2050133Y1111825D1*
X2123020D1*
X1841500Y872425D2*
X1885300D1*
X1899787Y877254D1*
X1904729Y882196D1*
X1909558Y891854D1*
Y906454D1*
X1904729Y916113D1*
X1899787Y921054D1*
X1885300Y925883D1*
X1841500D1*
Y823796D1*
X2013819Y901625D2*
X2008989Y911283D1*
X1999219Y921054D1*
X1989560Y925883D1*
X1970131D1*
X1960360Y921054D1*
X1950702Y911283D1*
X1945760Y901625D1*
X1940931Y887025D1*
Y862654D1*
X1945760Y848166D1*
X1950702Y838396D1*
X1960360Y828737D1*
X1970131Y823796D1*
X1989560D1*
X1999219Y828737D1*
X2008989Y838396D1*
X2013819Y848166D1*
X2103479Y925771D2*
X2054962D1*
X2050133Y882083D1*
X2054962Y886913D1*
X2069562Y891854D1*
X2084050D1*
X2098650Y886913D1*
X2108420Y877254D1*
X2113250Y862654D1*
Y852996D1*
X2108420Y838396D1*
X2098650Y828625D1*
X2084050Y823796D1*
X2069562D1*
X2054962Y828625D1*
X2050133Y833566D1*
X2045191Y843225D1*
X1841500Y618425D2*
X1885300D1*
X1899787Y623254D1*
X1904729Y628196D1*
X1909558Y637854D1*
Y652454D1*
X1904729Y662113D1*
X1899787Y667054D1*
X1885300Y671883D1*
X1841500D1*
Y569796D1*
X1940931Y671883D2*
Y569796D1*
X1984731D1*
X1999331Y574737D1*
X2004160Y579566D1*
X2008989Y589225D1*
Y603825D1*
X2004160Y613596D1*
X1999331Y618425D1*
X1984731Y623254D1*
X1999331Y628196D1*
X2004160Y633025D1*
X2008989Y642683D1*
Y652454D1*
X2004160Y662113D1*
X1999331Y667054D1*
X1984731Y671883D1*
X1940931D1*
Y623254D2*
X1984731D1*
X2040362Y652342D2*
X2050133Y657283D1*
X2064733Y671771D1*
Y569796D1*
X1914387Y393625D2*
X1909558Y403283D1*
X1899787Y413054D1*
X1890129Y417883D1*
X1870700D1*
X1860929Y413054D1*
X1851271Y403283D1*
X1846329Y393625D1*
X1841500Y379025D1*
Y354654D1*
X1846329Y340166D1*
X1851271Y330396D1*
X1860929Y320737D1*
X1870700Y315796D1*
X1890129D1*
X1899787Y320737D1*
X1909558Y330396D1*
X1914387Y340166D1*
Y354654D1*
X1890129D1*
X2013819Y417883D2*
Y315796D1*
X1945760Y417883D1*
Y315796D1*
X2045191Y417883D2*
Y315796D1*
X2079220D1*
X2093820Y320737D1*
X2103591Y330396D1*
X2108420Y340166D1*
X2113250Y354654D1*
Y379025D1*
X2108420Y393625D1*
X2103591Y403283D1*
X2093820Y413054D1*
X2079220Y417883D1*
X2045191D1*
X2549387Y1282625D2*
X2544558Y1292283D1*
X2534787Y1302054D1*
X2525129Y1306883D1*
X2505700D1*
X2495929Y1302054D1*
X2486271Y1292283D1*
X2481329Y1282625D1*
X2476500Y1268025D1*
Y1243654D1*
X2481329Y1229166D1*
X2486271Y1219396D1*
X2495929Y1209737D1*
X2505700Y1204796D1*
X2525129D1*
X2534787Y1209737D1*
X2544558Y1219396D1*
X2549387Y1229166D1*
X2590531Y1306771D2*
X2643877D1*
X2614789Y1267913D1*
X2629389D1*
X2639048Y1263083D1*
X2643877Y1258254D1*
X2648819Y1243654D1*
Y1233996D1*
X2643877Y1219396D1*
X2634219Y1209625D1*
X2619619Y1204796D1*
X2605019D1*
X2590531Y1209625D1*
X2585702Y1214566D1*
X2580760Y1224225D1*
X3057387Y393625D2*
X3052558Y403283D1*
X3042787Y413054D1*
X3033129Y417883D1*
X3013700D1*
X3003929Y413054D1*
X2994271Y403283D1*
X2989329Y393625D1*
X2984500Y379025D1*
Y354654D1*
X2989329Y340166D1*
X2994271Y330396D1*
X3003929Y320737D1*
X3013700Y315796D1*
X3033129D1*
X3042787Y320737D1*
X3052558Y330396D1*
X3057387Y340166D1*
X3108189Y315796D2*
X3156819Y417771D1*
X3088760D1*
X4958367Y2934664D2*
D93*
X4998377D1*
X4976561Y2905520D1*
X4987511D1*
X4994755Y2901898D1*
X4998377Y2898276D1*
X5002083Y2887326D1*
Y2880083D1*
X4998377Y2869133D1*
X4991133Y2861804D1*
X4980183Y2858183D1*
X4969233D1*
X4958367Y2861804D1*
X4954745Y2865511D1*
X4951039Y2872754D1*
X5029234Y2865511D2*
X5025612Y2861804D1*
X5029234Y2858183D1*
X5032940Y2861804D1*
X5029234Y2865511D1*
X5063798Y2934664D2*
X5103807D1*
X5081992Y2905520D1*
X5092942D1*
X5100186Y2901898D1*
X5103807Y2898276D1*
X5107514Y2887326D1*
Y2880083D1*
X5103807Y2869133D1*
X5096564Y2861804D1*
X5085614Y2858183D1*
X5074664D1*
X5063798Y2861804D1*
X5060176Y2865511D1*
X5056470Y2872754D1*
X5131043Y2934748D2*
X5160187Y2858183D1*
X5189331Y2934748D1*
X4982789Y2632811D2*
X5015639D1*
X5026505Y2636433D1*
X5030211Y2640139D1*
X5033833Y2647383D1*
Y2658333D1*
X5030211Y2665577D1*
X5026505Y2669283D1*
X5015639Y2672905D1*
X4982789D1*
Y2596339D1*
X5057362Y2672905D2*
Y2596339D1*
X5090212D1*
X5101162Y2600045D1*
X5104784Y2603667D1*
X5108406Y2610911D1*
Y2621861D1*
X5104784Y2629189D1*
X5101162Y2632811D1*
X5090212Y2636433D1*
X5101162Y2640139D1*
X5104784Y2643761D1*
X5108406Y2651005D1*
Y2658333D1*
X5104784Y2665577D1*
X5101162Y2669283D1*
X5090212Y2672905D1*
X5057362D1*
Y2636433D2*
X5090212D1*
X5150129Y2672821D2*
X5139264Y2669199D1*
X5135557Y2661955D1*
Y2654627D1*
X5139264Y2647383D1*
X5146507Y2643677D1*
X5161079Y2640055D1*
X5172029Y2636433D1*
X5179273Y2629105D1*
X5182895Y2621861D1*
Y2610911D1*
X5179273Y2603667D1*
X5175651Y2599961D1*
X5164701Y2596339D1*
X5150129D1*
X5139264Y2599961D1*
X5135557Y2603667D1*
X5131936Y2610911D1*
Y2621861D1*
X5135557Y2629105D1*
X5142886Y2636433D1*
X5153751Y2640055D1*
X5168323Y2643677D1*
X5175651Y2647383D1*
X5179273Y2654627D1*
Y2661955D1*
X5175651Y2669199D1*
X5164701Y2672821D1*
X5150129D1*
X4982789Y2378811D2*
X5015639D1*
X5026505Y2382433D1*
X5030211Y2386139D1*
X5033833Y2393383D1*
Y2404333D1*
X5030211Y2411577D1*
X5026505Y2415283D1*
X5015639Y2418905D1*
X4982789D1*
Y2342339D1*
X5057362Y2418905D2*
Y2342339D1*
X5090212D1*
X5101162Y2346045D1*
X5104784Y2349667D1*
X5108406Y2356911D1*
Y2367861D1*
X5104784Y2375189D1*
X5101162Y2378811D1*
X5090212Y2382433D1*
X5101162Y2386139D1*
X5104784Y2389761D1*
X5108406Y2397005D1*
Y2404333D1*
X5104784Y2411577D1*
X5101162Y2415283D1*
X5090212Y2418905D1*
X5057362D1*
Y2382433D2*
X5090212D1*
X5175651Y2407955D2*
X5172029Y2415199D1*
X5161079Y2418821D1*
X5153836D1*
X5142886Y2415199D1*
X5135557Y2404249D1*
X5131936Y2386055D1*
Y2367861D1*
X5135557Y2353289D1*
X5142886Y2345961D1*
X5153836Y2342339D1*
X5157457D1*
X5168323Y2345961D1*
X5175651Y2353289D1*
X5179273Y2364239D1*
Y2367861D1*
X5175651Y2378811D1*
X5168323Y2386055D1*
X5157457Y2389677D1*
X5153836D1*
X5142886Y2386055D1*
X5135557Y2378811D1*
X5131936Y2367861D1*
X4982789Y2124811D2*
X5015639D1*
X5026505Y2128433D1*
X5030211Y2132139D1*
X5033833Y2139383D1*
Y2150333D1*
X5030211Y2157577D1*
X5026505Y2161283D1*
X5015639Y2164905D1*
X4982789D1*
Y2088339D1*
X5057362Y2164905D2*
Y2088339D1*
X5090212D1*
X5101162Y2092045D1*
X5104784Y2095667D1*
X5108406Y2102911D1*
Y2113861D1*
X5104784Y2121189D1*
X5101162Y2124811D1*
X5090212Y2128433D1*
X5101162Y2132139D1*
X5104784Y2135761D1*
X5108406Y2143005D1*
Y2150333D1*
X5104784Y2157577D1*
X5101162Y2161283D1*
X5090212Y2164905D1*
X5057362D1*
Y2128433D2*
X5090212D1*
X5168407Y2088339D2*
Y2164821D1*
X5131936Y2113861D1*
X5186601D1*
X4982789Y1870811D2*
X5015639D1*
X5026505Y1874433D1*
X5030211Y1878139D1*
X5033833Y1885383D1*
Y1896333D1*
X5030211Y1903577D1*
X5026505Y1907283D1*
X5015639Y1910905D1*
X4982789D1*
Y1834339D1*
X5057362Y1910905D2*
Y1834339D1*
X5082884D1*
X5093834Y1838045D1*
X5101162Y1845289D1*
X5104784Y1852617D1*
X5108406Y1863483D1*
Y1881761D1*
X5104784Y1892711D1*
X5101162Y1899955D1*
X5093834Y1907283D1*
X5082884Y1910905D1*
X5057362D1*
X5135642Y1892627D2*
Y1896249D1*
X5139264Y1903577D1*
X5142886Y1907199D1*
X5150214Y1910821D1*
X5164786D1*
X5172029Y1907199D1*
X5175651Y1903577D1*
X5179357Y1896249D1*
Y1889005D1*
X5175651Y1881677D1*
X5168407Y1870811D1*
X5131936Y1834339D1*
X5182979D1*
X4982789Y1616811D2*
X5015639D1*
X5026505Y1620433D1*
X5030211Y1624139D1*
X5033833Y1631383D1*
Y1642333D1*
X5030211Y1649577D1*
X5026505Y1653283D1*
X5015639Y1656905D1*
X4982789D1*
Y1580339D1*
X5112028Y1638711D2*
X5108406Y1645955D1*
X5101078Y1653283D1*
X5093834Y1656905D1*
X5079262D1*
X5071934Y1653283D1*
X5064690Y1645955D1*
X5060984Y1638711D1*
X5057362Y1627761D1*
Y1609483D1*
X5060984Y1598617D1*
X5064690Y1591289D1*
X5071934Y1584045D1*
X5079262Y1580339D1*
X5093834D1*
X5101078Y1584045D1*
X5108406Y1591289D1*
X5112028Y1598617D1*
X5135557Y1642249D2*
X5142886Y1645955D1*
X5153836Y1656821D1*
Y1580339D1*
X5177365Y1642249D2*
X5184693Y1645955D1*
X5195643Y1656821D1*
Y1580339D1*
X4601789Y1370654D2*
X4634639D1*
X4645505Y1374276D1*
X4649211Y1377983D1*
X4652833Y1385226D1*
Y1396176D1*
X4649211Y1403420D1*
X4645505Y1407126D1*
X4634639Y1410748D1*
X4601789D1*
Y1334183D1*
X4734734D2*
X4705506Y1410748D1*
X4676362Y1334183D1*
X4687312Y1359704D2*
X4723784D1*
X4758264Y1396092D2*
X4765592Y1399798D1*
X4776542Y1410664D1*
Y1334183D1*
X4843787Y1410664D2*
X4807399D1*
X4803777Y1377898D1*
X4807399Y1381520D1*
X4818349Y1385226D1*
X4829215D1*
X4840165Y1381520D1*
X4847493Y1374276D1*
X4851115Y1363326D1*
Y1356083D1*
X4847493Y1345133D1*
X4840165Y1337804D1*
X4829215Y1334183D1*
X4818349D1*
X4807399Y1337804D1*
X4803777Y1341511D1*
X4800071Y1348754D1*
X4781793Y1186538D2*
Y1109973D1*
X4730749Y1186538D1*
Y1109973D1*
X4859988Y1168344D2*
X4856366Y1175588D1*
X4849038Y1182916D1*
X4841794Y1186538D1*
X4827222D1*
X4819894Y1182916D1*
X4812650Y1175588D1*
X4808944Y1168344D1*
X4805322Y1157394D1*
Y1139116D1*
X4808944Y1128251D1*
X4812650Y1120923D1*
X4819894Y1113679D1*
X4827222Y1109973D1*
X4841794D1*
X4849038Y1113679D1*
X4856366Y1120923D1*
X4859988Y1128251D1*
X4601789Y862654D2*
X4634639D1*
X4645505Y866276D1*
X4649211Y869983D1*
X4652833Y877226D1*
Y888176D1*
X4649211Y895420D1*
X4645505Y899126D1*
X4634639Y902748D1*
X4601789D1*
Y826183D1*
X4731028Y884554D2*
X4727406Y891798D1*
X4720078Y899126D1*
X4712834Y902748D1*
X4698262D1*
X4690934Y899126D1*
X4683690Y891798D1*
X4679984Y884554D1*
X4676362Y873604D1*
Y855326D1*
X4679984Y844461D1*
X4683690Y837133D1*
X4690934Y829889D1*
X4698262Y826183D1*
X4712834D1*
X4720078Y829889D1*
X4727406Y837133D1*
X4731028Y844461D1*
X4772751Y902664D2*
X4761886Y899042D1*
X4758179Y891798D1*
Y884470D1*
X4761886Y877226D1*
X4769129Y873520D1*
X4783701Y869898D1*
X4794651Y866276D1*
X4801895Y858948D1*
X4805517Y851704D1*
Y840754D1*
X4801895Y833511D1*
X4798273Y829804D1*
X4787323Y826183D1*
X4772751D1*
X4761886Y829804D1*
X4758179Y833511D1*
X4754557Y840754D1*
Y851704D1*
X4758179Y858948D1*
X4765507Y866276D1*
X4776373Y869898D1*
X4790945Y873520D1*
X4798273Y877226D1*
X4801895Y884470D1*
Y891798D1*
X4798273Y899042D1*
X4787323Y902664D1*
X4772751D1*
X4601789Y608654D2*
X4634639D1*
X4645505Y612276D1*
X4649211Y615983D1*
X4652833Y623226D1*
Y634176D1*
X4649211Y641420D1*
X4645505Y645126D1*
X4634639Y648748D1*
X4601789D1*
Y572183D1*
X4676362Y648748D2*
Y572183D1*
X4709212D1*
X4720162Y575889D1*
X4723784Y579511D1*
X4727406Y586754D1*
Y597704D1*
X4723784Y605033D1*
X4720162Y608654D1*
X4709212Y612276D1*
X4720162Y615983D1*
X4723784Y619604D1*
X4727406Y626848D1*
Y634176D1*
X4723784Y641420D1*
X4720162Y645126D1*
X4709212Y648748D1*
X4676362D1*
Y612276D2*
X4709212D1*
X4750936Y634092D2*
X4758264Y637798D1*
X4769214Y648664D1*
Y572183D1*
X4836459Y648664D2*
X4800071D1*
X4796449Y615898D1*
X4800071Y619520D1*
X4811021Y623226D1*
X4821887D1*
X4832837Y619520D1*
X4840165Y612276D1*
X4843787Y601326D1*
Y594083D1*
X4840165Y583133D1*
X4832837Y575804D1*
X4821887Y572183D1*
X4811021D1*
X4800071Y575804D1*
X4796449Y579511D1*
X4792743Y586754D1*
X4601789Y346811D2*
X4634639D1*
X4645505Y350433D1*
X4649211Y354139D1*
X4652833Y361383D1*
Y372333D1*
X4649211Y379577D1*
X4645505Y383283D1*
X4634639Y386905D1*
X4601789D1*
Y310339D1*
X4676362Y386905D2*
Y310339D1*
X4709212D1*
X4720162Y314045D1*
X4723784Y317667D1*
X4727406Y324911D1*
Y335861D1*
X4723784Y343189D1*
X4720162Y346811D1*
X4709212Y350433D1*
X4720162Y354139D1*
X4723784Y357761D1*
X4727406Y365005D1*
Y372333D1*
X4723784Y379577D1*
X4720162Y383283D1*
X4709212Y386905D1*
X4676362D1*
Y350433D2*
X4709212D1*
X4750936Y372249D2*
X4758264Y375955D1*
X4769214Y386821D1*
Y310339D1*
X4800071Y386821D2*
X4840081D1*
X4818265Y357677D1*
X4829215D1*
X4836459Y354055D1*
X4840081Y350433D1*
X4843787Y339483D1*
Y332239D1*
X4840081Y321289D1*
X4832837Y313961D1*
X4821887Y310339D1*
X4810937D1*
X4800071Y313961D1*
X4796449Y317667D1*
X4792743Y324911D1*
X5776539Y2918561D2*
X5809389D1*
X5820255Y2922183D1*
X5823961Y2925889D1*
X5827583Y2933133D1*
Y2944083D1*
X5823961Y2951327D1*
X5820255Y2955033D1*
X5809389Y2958655D1*
X5776539D1*
Y2882089D1*
X5851112Y2958655D2*
Y2882089D1*
X5883962D1*
X5894912Y2885795D1*
X5898534Y2889417D1*
X5902156Y2896661D1*
Y2907611D1*
X5898534Y2914939D1*
X5894912Y2918561D1*
X5883962Y2922183D1*
X5894912Y2925889D1*
X5898534Y2929511D1*
X5902156Y2936755D1*
Y2944083D1*
X5898534Y2951327D1*
X5894912Y2955033D1*
X5883962Y2958655D1*
X5851112D1*
Y2922183D2*
X5883962D1*
X5973107Y2933133D2*
X5969401Y2922183D1*
X5962157Y2914855D1*
X5951207Y2911233D1*
X5947586D1*
X5936636Y2914855D1*
X5929392Y2922183D1*
X5925686Y2933133D1*
Y2936755D1*
X5929392Y2947705D1*
X5936636Y2954949D1*
X5947586Y2958571D1*
X5951207D1*
X5962157Y2954949D1*
X5969401Y2947705D1*
X5973107Y2933133D1*
Y2914855D1*
X5969401Y2896661D1*
X5962157Y2885711D1*
X5951207Y2882089D1*
X5943964D1*
X5933014Y2885711D1*
X5929392Y2893039D1*
X5776539Y2664561D2*
X5809389D1*
X5820255Y2668183D1*
X5823961Y2671889D1*
X5827583Y2679133D1*
Y2690083D1*
X5823961Y2697327D1*
X5820255Y2701033D1*
X5809389Y2704655D1*
X5776539D1*
Y2628089D1*
X5851112Y2704655D2*
Y2628089D1*
X5883962D1*
X5894912Y2631795D1*
X5898534Y2635417D1*
X5902156Y2642661D1*
Y2653611D1*
X5898534Y2660939D1*
X5894912Y2664561D1*
X5883962Y2668183D1*
X5894912Y2671889D1*
X5898534Y2675511D1*
X5902156Y2682755D1*
Y2690083D1*
X5898534Y2697327D1*
X5894912Y2701033D1*
X5883962Y2704655D1*
X5851112D1*
Y2668183D2*
X5883962D1*
X5940257Y2628089D2*
X5976729Y2704571D1*
X5925686D1*
X5776539Y2410561D2*
X5809389D1*
X5820255Y2414183D1*
X5823961Y2417889D1*
X5827583Y2425133D1*
Y2436083D1*
X5823961Y2443327D1*
X5820255Y2447033D1*
X5809389Y2450655D1*
X5776539D1*
Y2374089D1*
X5851112Y2450655D2*
Y2374089D1*
X5883962D1*
X5894912Y2377795D1*
X5898534Y2381417D1*
X5902156Y2388661D1*
Y2399611D1*
X5898534Y2406939D1*
X5894912Y2410561D1*
X5883962Y2414183D1*
X5894912Y2417889D1*
X5898534Y2421511D1*
X5902156Y2428755D1*
Y2436083D1*
X5898534Y2443327D1*
X5894912Y2447033D1*
X5883962Y2450655D1*
X5851112D1*
Y2414183D2*
X5883962D1*
X5969401Y2450571D2*
X5933014D1*
X5929392Y2417805D1*
X5933014Y2421427D1*
X5943964Y2425133D1*
X5954829D1*
X5965779Y2421427D1*
X5973107Y2414183D1*
X5976729Y2403233D1*
Y2395989D1*
X5973107Y2385039D1*
X5965779Y2377711D1*
X5954829Y2374089D1*
X5943964D1*
X5933014Y2377711D1*
X5929392Y2381417D1*
X5925686Y2388661D1*
X5776539Y2156561D2*
X5809389D1*
X5820255Y2160183D1*
X5823961Y2163889D1*
X5827583Y2171133D1*
Y2182083D1*
X5823961Y2189327D1*
X5820255Y2193033D1*
X5809389Y2196655D1*
X5776539D1*
Y2120089D1*
X5851112Y2196655D2*
Y2120089D1*
X5883962D1*
X5894912Y2123795D1*
X5898534Y2127417D1*
X5902156Y2134661D1*
Y2145611D1*
X5898534Y2152939D1*
X5894912Y2156561D1*
X5883962Y2160183D1*
X5894912Y2163889D1*
X5898534Y2167511D1*
X5902156Y2174755D1*
Y2182083D1*
X5898534Y2189327D1*
X5894912Y2193033D1*
X5883962Y2196655D1*
X5851112D1*
Y2160183D2*
X5883962D1*
X5933014Y2196571D2*
X5973023D1*
X5951207Y2167427D1*
X5962157D1*
X5969401Y2163805D1*
X5973023Y2160183D1*
X5976729Y2149233D1*
Y2141989D1*
X5973023Y2131039D1*
X5965779Y2123711D1*
X5954829Y2120089D1*
X5943879D1*
X5933014Y2123711D1*
X5929392Y2127417D1*
X5925686Y2134661D1*
X5776539Y1902561D2*
X5809389D1*
X5820255Y1906183D1*
X5823961Y1909889D1*
X5827583Y1917133D1*
Y1928083D1*
X5823961Y1935327D1*
X5820255Y1939033D1*
X5809389Y1942655D1*
X5776539D1*
Y1866089D1*
X5905778Y1924461D2*
X5902156Y1931705D1*
X5894828Y1939033D1*
X5887584Y1942655D1*
X5873012D1*
X5865684Y1939033D1*
X5858440Y1931705D1*
X5854734Y1924461D1*
X5851112Y1913511D1*
Y1895233D1*
X5854734Y1884367D1*
X5858440Y1877039D1*
X5865684Y1869795D1*
X5873012Y1866089D1*
X5887584D1*
X5894828Y1869795D1*
X5902156Y1877039D1*
X5905778Y1884367D1*
X5929307Y1927999D2*
X5936636Y1931705D1*
X5947586Y1942571D1*
Y1866089D1*
X5974821Y1924377D2*
Y1927999D1*
X5978443Y1935327D1*
X5982065Y1938949D1*
X5989393Y1942571D1*
X6003965D1*
X6011209Y1938949D1*
X6014831Y1935327D1*
X6018537Y1927999D1*
Y1920755D1*
X6014831Y1913427D1*
X6007587Y1902561D1*
X5971115Y1866089D1*
X6022159D1*
X5776539Y1648561D2*
X5809389D1*
X5820255Y1652183D1*
X5823961Y1655889D1*
X5827583Y1663133D1*
Y1674083D1*
X5823961Y1681327D1*
X5820255Y1685033D1*
X5809389Y1688655D1*
X5776539D1*
Y1612089D1*
X5905778Y1670461D2*
X5902156Y1677705D1*
X5894828Y1685033D1*
X5887584Y1688655D1*
X5873012D1*
X5865684Y1685033D1*
X5858440Y1677705D1*
X5854734Y1670461D1*
X5851112Y1659511D1*
Y1641233D1*
X5854734Y1630367D1*
X5858440Y1623039D1*
X5865684Y1615795D1*
X5873012Y1612089D1*
X5887584D1*
X5894828Y1615795D1*
X5902156Y1623039D1*
X5905778Y1630367D1*
X5929307Y1673999D2*
X5936636Y1677705D1*
X5947586Y1688571D1*
Y1612089D1*
X5993015Y1688571D2*
X5982065Y1684949D1*
X5974737Y1673999D1*
X5971115Y1655805D1*
Y1644855D1*
X5974737Y1626661D1*
X5982065Y1615711D1*
X5993015Y1612089D1*
X6000259D1*
X6011209Y1615711D1*
X6018453Y1626661D1*
X6022159Y1644855D1*
Y1655805D1*
X6018453Y1673999D1*
X6011209Y1684949D1*
X6000259Y1688571D1*
X5993015D1*
X6018453Y1673999D2*
X5974737Y1626661D1*
X5905500Y1370383D2*
D92*
Y1268296D1*
X5973558Y1370383D2*
Y1268296D1*
X5905500Y1321754D2*
X5973558D1*
X6077819Y1346125D2*
X6072989Y1355783D1*
X6063219Y1365554D1*
X6053560Y1370383D1*
X6034131D1*
X6024360Y1365554D1*
X6014702Y1355783D1*
X6009760Y1346125D1*
X6004931Y1331525D1*
Y1307154D1*
X6009760Y1292666D1*
X6014702Y1282896D1*
X6024360Y1273237D1*
X6034131Y1268296D1*
X6053560D1*
X6063219Y1273237D1*
X6072989Y1282896D1*
X6077819Y1292666D1*
X6109191Y1319283D2*
X6165345D1*
X6225917Y1370271D2*
X6211317Y1365442D1*
X6201547Y1350842D1*
X6196717Y1326583D1*
Y1311983D1*
X6201547Y1287725D1*
X6211317Y1273125D1*
X6225917Y1268296D1*
X6235576D1*
X6250176Y1273125D1*
X6259834Y1287725D1*
X6264776Y1311983D1*
Y1326583D1*
X6259834Y1350842D1*
X6250176Y1365442D1*
X6235576Y1370271D1*
X6225917D1*
X6259834Y1350842D2*
X6201547Y1287725D1*
X6354436Y1355783D2*
X6349607Y1365442D1*
X6335007Y1370271D1*
X6325348D1*
X6310748Y1365442D1*
X6300978Y1350842D1*
X6296148Y1326583D1*
Y1302325D1*
X6300978Y1282896D1*
X6310748Y1273125D1*
X6325348Y1268296D1*
X6330178D1*
X6344665Y1273125D1*
X6354436Y1282896D1*
X6359265Y1297496D1*
Y1302325D1*
X6354436Y1316925D1*
X6344665Y1326583D1*
X6330178Y1331413D1*
X6325348D1*
X6310748Y1326583D1*
X6300978Y1316925D1*
X6296148Y1302325D1*
X4984749Y1368694D2*
D93*
X5017599D1*
X5028465Y1372316D1*
X5032171Y1376023D1*
X5035793Y1383266D1*
Y1394216D1*
X5032171Y1401460D1*
X5028465Y1405166D1*
X5017599Y1408788D1*
X4984749D1*
Y1332223D1*
X5113988Y1390594D2*
X5110366Y1397838D1*
X5103038Y1405166D1*
X5095794Y1408788D1*
X5081222D1*
X5073894Y1405166D1*
X5066650Y1397838D1*
X5062944Y1390594D1*
X5059322Y1379644D1*
Y1361366D1*
X5062944Y1350501D1*
X5066650Y1343173D1*
X5073894Y1335929D1*
X5081222Y1332223D1*
X5095794D1*
X5103038Y1335929D1*
X5110366Y1343173D1*
X5113988Y1350501D1*
X5184939Y1383266D2*
X5181233Y1372316D1*
X5173989Y1364988D1*
X5163039Y1361366D1*
X5159417D1*
X5148467Y1364988D1*
X5141224Y1372316D1*
X5137517Y1383266D1*
Y1386888D1*
X5141224Y1397838D1*
X5148467Y1405082D1*
X5159417Y1408704D1*
X5163039D1*
X5173989Y1405082D1*
X5181233Y1397838D1*
X5184939Y1383266D1*
Y1364988D1*
X5181233Y1346794D1*
X5173989Y1335844D1*
X5163039Y1332223D1*
X5155796D1*
X5144846Y1335844D1*
X5141224Y1343173D1*
X4136887Y1092125D2*
D92*
X4132058Y1101783D1*
X4122287Y1111554D1*
X4112629Y1116383D1*
X4093200D1*
X4083429Y1111554D1*
X4073771Y1101783D1*
X4068829Y1092125D1*
X4064000Y1077525D1*
Y1053154D1*
X4068829Y1038666D1*
X4073771Y1028896D1*
X4083429Y1019237D1*
X4093200Y1014296D1*
X4112629D1*
X4122287Y1019237D1*
X4132058Y1028896D1*
X4136887Y1038666D1*
X4226548Y1101783D2*
X4221719Y1111442D1*
X4207119Y1116271D1*
X4197460D1*
X4182860Y1111442D1*
X4173089Y1096842D1*
X4168260Y1072583D1*
Y1048325D1*
X4173089Y1028896D1*
X4182860Y1019125D1*
X4197460Y1014296D1*
X4202289D1*
X4216777Y1019125D1*
X4226548Y1028896D1*
X4231377Y1043496D1*
Y1048325D1*
X4226548Y1062925D1*
X4216777Y1072583D1*
X4202289Y1077413D1*
X4197460D1*
X4182860Y1072583D1*
X4173089Y1062925D1*
X4168260Y1048325D1*
X5067543Y1186538D2*
D93*
Y1109973D1*
X5016499Y1186538D1*
Y1109973D1*
X5145738Y1168344D2*
X5142116Y1175588D1*
X5134788Y1182916D1*
X5127544Y1186538D1*
X5112972D1*
X5105644Y1182916D1*
X5098400Y1175588D1*
X5094694Y1168344D1*
X5091072Y1157394D1*
Y1139116D1*
X5094694Y1128251D1*
X5098400Y1120923D1*
X5105644Y1113679D1*
X5112972Y1109973D1*
X5127544D1*
X5134788Y1113679D1*
X5142116Y1120923D1*
X5145738Y1128251D1*
X4984749Y860694D2*
X5017599D1*
X5028465Y864316D1*
X5032171Y868023D1*
X5035793Y875266D1*
Y886216D1*
X5032171Y893460D1*
X5028465Y897166D1*
X5017599Y900788D1*
X4984749D1*
Y824223D1*
X5113988Y882594D2*
X5110366Y889838D1*
X5103038Y897166D1*
X5095794Y900788D1*
X5081222D1*
X5073894Y897166D1*
X5066650Y889838D1*
X5062944Y882594D1*
X5059322Y871644D1*
Y853366D1*
X5062944Y842501D1*
X5066650Y835173D1*
X5073894Y827929D1*
X5081222Y824223D1*
X5095794D1*
X5103038Y827929D1*
X5110366Y835173D1*
X5113988Y842501D1*
X5181233Y889838D2*
X5177611Y897082D1*
X5166661Y900704D1*
X5159417D1*
X5148467Y897082D1*
X5141139Y886132D1*
X5137517Y867938D1*
Y849744D1*
X5141139Y835173D1*
X5148467Y827844D1*
X5159417Y824223D1*
X5163039D1*
X5173905Y827844D1*
X5181233Y835173D1*
X5184855Y846123D1*
Y849744D1*
X5181233Y860694D1*
X5173905Y867938D1*
X5163039Y871560D1*
X5159417D1*
X5148467Y867938D1*
X5141139Y860694D1*
X5137517Y849744D1*
X4952999Y606694D2*
X4985849D1*
X4996715Y610316D1*
X5000421Y614023D1*
X5004043Y621266D1*
Y632216D1*
X5000421Y639460D1*
X4996715Y643166D1*
X4985849Y646788D1*
X4952999D1*
Y570223D1*
X5027572Y646788D2*
Y570223D1*
X5060422D1*
X5071372Y573929D1*
X5074994Y577551D1*
X5078616Y584794D1*
Y595744D1*
X5074994Y603073D1*
X5071372Y606694D1*
X5060422Y610316D1*
X5071372Y614023D1*
X5074994Y617644D1*
X5078616Y624888D1*
Y632216D1*
X5074994Y639460D1*
X5071372Y643166D1*
X5060422Y646788D1*
X5027572D1*
Y610316D2*
X5060422D1*
X5102146Y632132D2*
X5109474Y635838D1*
X5120424Y646704D1*
Y570223D1*
X5180425D2*
Y646704D1*
X5143953Y595744D1*
X5198619D1*
X4952999Y352694D2*
X4985849D1*
X4996715Y356316D1*
X5000421Y360023D1*
X5004043Y367266D1*
Y378216D1*
X5000421Y385460D1*
X4996715Y389166D1*
X4985849Y392788D1*
X4952999D1*
Y316223D1*
X5027572Y392788D2*
Y316223D1*
X5060422D1*
X5071372Y319929D1*
X5074994Y323551D1*
X5078616Y330794D1*
Y341744D1*
X5074994Y349073D1*
X5071372Y352694D1*
X5060422Y356316D1*
X5071372Y360023D1*
X5074994Y363644D1*
X5078616Y370888D1*
Y378216D1*
X5074994Y385460D1*
X5071372Y389166D1*
X5060422Y392788D1*
X5027572D1*
Y356316D2*
X5060422D1*
X5102146Y378132D2*
X5109474Y381838D1*
X5120424Y392704D1*
Y316223D1*
X5147659Y374510D2*
Y378132D1*
X5151281Y385460D1*
X5154903Y389082D1*
X5162231Y392704D1*
X5176803D1*
X5184047Y389082D1*
X5187669Y385460D1*
X5191375Y378132D1*
Y370888D1*
X5187669Y363560D1*
X5180425Y352694D1*
X5143953Y316223D1*
X5194997D1*
X6171549Y2451816D2*
X6164221Y2459144D1*
X6156893Y2462766D1*
X6146027D1*
X6138699Y2459144D1*
X6131455Y2451816D1*
X6127749Y2440866D1*
Y2433623D1*
X6131455Y2422673D1*
X6138699Y2415429D1*
X6146027Y2411723D1*
X6156893D1*
X6164221Y2415429D1*
X6171549Y2422673D1*
X6171465Y2713144D2*
Y2654773D1*
X6167843Y2643907D1*
X6164221Y2640201D1*
X6156893Y2636579D1*
X6145943D1*
X6138699Y2640201D1*
X6171465Y2702194D2*
X6164221Y2709438D1*
X6156893Y2713144D1*
X6145943D1*
X6138699Y2709438D1*
X6131371Y2702194D1*
X6127749Y2691244D1*
Y2683916D1*
X6131371Y2673051D1*
X6138699Y2665723D1*
X6145943Y2662101D1*
X6156893D1*
X6164221Y2665723D1*
X6171465Y2673051D1*
Y2964538D2*
Y2887973D1*
Y2928066D2*
X6164221Y2935394D1*
X6156893Y2939016D1*
X6145943D1*
X6138699Y2935394D1*
X6131371Y2928066D1*
X6127749Y2917116D1*
Y2909873D1*
X6131371Y2898923D1*
X6138699Y2891679D1*
X6145943Y2887973D1*
X6156893D1*
X6164221Y2891679D1*
X6171465Y2898923D1*
X6149509Y3193016D2*
Y3141973D1*
Y3171116D2*
X6153215Y3182066D1*
X6160459Y3189394D1*
X6167787Y3193016D1*
X6178737D1*
X99171Y9487808D2*
D91*
X147744Y9360199D1*
X196317Y9487808D1*
X235532D2*
X241569Y9481772D1*
X247746Y9487808D1*
X241569Y9493985D1*
X235532Y9487808D1*
X241569Y9445272D2*
Y9360199D1*
X286962Y9487808D2*
Y9360199D1*
X347748Y9445272D2*
X286962Y9384485D1*
X311248Y9408772D2*
X353785Y9360199D1*
X411250Y9487808D2*
Y9384485D1*
X417287Y9366376D1*
X429500Y9360199D1*
X441573D1*
X393000Y9445272D2*
X435537D1*
X511112D2*
X499039Y9439235D1*
X486826Y9427022D1*
X480789Y9408772D1*
Y9396699D1*
X486826Y9378449D1*
X499039Y9366376D1*
X511112Y9360199D1*
X529362D1*
X541576Y9366376D1*
X553649Y9378449D1*
X559826Y9396699D1*
Y9408772D1*
X553649Y9427022D1*
X541576Y9439235D1*
X529362Y9445272D1*
X511112D1*
X599041D2*
Y9360199D1*
Y9408772D2*
X605218Y9427022D1*
X617291Y9439235D1*
X629505Y9445272D1*
X647755D1*
X871203Y9487808D2*
Y9390662D1*
X865167Y9372412D1*
X858990Y9366376D1*
X846917Y9360199D1*
X834703D1*
X822630Y9366376D1*
X816594Y9372412D1*
X810417Y9390662D1*
Y9402735D1*
X983279Y9445272D2*
Y9360199D1*
Y9427022D2*
X971206Y9439235D1*
X958992Y9445272D1*
X940883D1*
X928669Y9439235D1*
X916596Y9427022D1*
X910419Y9408772D1*
Y9396699D1*
X916596Y9378449D1*
X928669Y9366376D1*
X940883Y9360199D1*
X958992D1*
X971206Y9366376D1*
X983279Y9378449D1*
X1095354Y9439235D2*
Y9341949D1*
X1089318Y9323839D1*
X1083281Y9317662D1*
X1071068Y9311626D1*
X1052818D1*
X1040744Y9317662D1*
X1095354Y9420985D2*
X1083281Y9433058D1*
X1071068Y9439235D1*
X1052818D1*
X1040744Y9433058D1*
X1028531Y9420985D1*
X1022494Y9402735D1*
Y9390522D1*
X1028531Y9372412D1*
X1040744Y9360199D1*
X1052818Y9354162D1*
X1071068D1*
X1083281Y9360199D1*
X1095354Y9372412D1*
X1134570Y9408772D2*
X1207429D1*
Y9420985D1*
X1201393Y9433199D1*
X1195356Y9439235D1*
X1183143Y9445272D1*
X1164893D1*
X1152820Y9439235D1*
X1140606Y9427022D1*
X1134570Y9408772D1*
Y9396699D1*
X1140606Y9378449D1*
X1152820Y9366376D1*
X1164893Y9360199D1*
X1183143D1*
X1195356Y9366376D1*
X1207429Y9378449D1*
X1246645Y9445272D2*
Y9360199D1*
Y9408772D2*
X1252822Y9427022D1*
X1264895Y9439235D1*
X1277109Y9445272D1*
X1295359D1*
X130705Y9264510D2*
D93*
Y9268132D1*
X134327Y9275460D1*
X137949Y9279082D1*
X145277Y9282704D1*
X159849D1*
X167093Y9279082D1*
X170715Y9275460D1*
X174421Y9268132D1*
Y9260888D1*
X170715Y9253560D1*
X163471Y9242694D1*
X126999Y9206223D1*
X178043D1*
X223472Y9282704D2*
X212522Y9279082D1*
X205194Y9268132D1*
X201572Y9249938D1*
Y9238988D1*
X205194Y9220794D1*
X212522Y9209844D1*
X223472Y9206223D1*
X230716D1*
X241666Y9209844D1*
X248910Y9220794D1*
X252616Y9238988D1*
Y9249938D1*
X248910Y9268132D1*
X241666Y9279082D1*
X230716Y9282704D1*
X223472D1*
X248910Y9268132D2*
X205194Y9220794D1*
X276146Y9268132D2*
X283474Y9271838D1*
X294424Y9282704D1*
Y9206223D1*
X365375Y9257266D2*
X361669Y9246316D1*
X354425Y9238988D1*
X343475Y9235366D1*
X339853D1*
X328903Y9238988D1*
X321659Y9246316D1*
X317953Y9257266D1*
Y9260888D1*
X321659Y9271838D1*
X328903Y9279082D1*
X339853Y9282704D1*
X343475D1*
X354425Y9279082D1*
X361669Y9271838D1*
X365375Y9257266D1*
Y9238988D1*
X361669Y9220794D1*
X354425Y9209844D1*
X343475Y9206223D1*
X336231D1*
X325281Y9209844D1*
X321659Y9217173D1*
X410804Y9282704D2*
X399854Y9279082D1*
X392526Y9268132D1*
X388904Y9249938D1*
Y9238988D1*
X392526Y9220794D1*
X399854Y9209844D1*
X410804Y9206223D1*
X418048D1*
X428998Y9209844D1*
X436242Y9220794D1*
X439948Y9238988D1*
Y9249938D1*
X436242Y9268132D1*
X428998Y9279082D1*
X418048Y9282704D1*
X410804D1*
X436242Y9268132D2*
X392526Y9220794D1*
X470806Y9282704D2*
X510815D1*
X489000Y9253560D1*
X499950D1*
X507193Y9249938D1*
X510815Y9246316D1*
X514521Y9235366D1*
Y9228123D1*
X510815Y9217173D1*
X503571Y9209844D1*
X492621Y9206223D1*
X481671D1*
X470806Y9209844D1*
X467184Y9213551D1*
X463478Y9220794D1*
X541757Y9264510D2*
Y9268132D1*
X545379Y9275460D1*
X549001Y9279082D1*
X556329Y9282704D1*
X570901D1*
X578145Y9279082D1*
X581767Y9275460D1*
X585473Y9268132D1*
Y9260888D1*
X581767Y9253560D1*
X574523Y9242694D1*
X538051Y9206223D1*
X589095D1*
X627196D2*
X663668Y9282704D1*
X612624D1*
M02*
