G04 DipTrace 3.3.1.3*
G04 ViktorJager_MessageDisplay.GBL*
%MOMM*%
G04 #@! TF.FileFunction,Copper,L2,Bot*
G04 #@! TF.Part,Single*
%AMOUTLINE0*
4,1,8,
0.6929,0.287,
0.6929,-0.287,
0.287,-0.6929,
-0.287,-0.6929,
-0.6929,-0.287,
-0.6929,0.287,
-0.287,0.6929,
0.287,0.6929,
0.6929,0.287,
0*%
%AMOUTLINE3*
4,1,8,
-0.6929,-0.287,
-0.6929,0.287,
-0.287,0.6929,
0.287,0.6929,
0.6929,0.287,
0.6929,-0.287,
0.287,-0.6929,
-0.287,-0.6929,
-0.6929,-0.287,
0*%
G04 #@! TA.AperFunction,Conductor*
%ADD10C,0.25*%
%ADD13C,0.3*%
G04 #@! TA.AperFunction,ViaPad*
%ADD14C,0.6*%
G04 #@! TA.AperFunction,Conductor*
%ADD15C,0.4*%
G04 #@! TA.AperFunction,CopperBalancing*
%ADD16C,0.635*%
%ADD17C,0.33*%
G04 #@! TA.AperFunction,ComponentPad*
%ADD23C,1.5*%
%ADD24R,1.5X1.5*%
%ADD26R,1.75X1.75*%
%ADD27C,1.75*%
%ADD42R,1.7X1.7*%
%ADD43C,1.7*%
%ADD44C,1.8*%
G04 #@! TA.AperFunction,ViaPad*
%ADD45C,0.7*%
%ADD47C,0.9*%
G04 #@! TA.AperFunction,ComponentPad*
%ADD95OUTLINE0*%
%ADD98OUTLINE3*%
%FSLAX35Y35*%
G04*
G71*
G90*
G75*
G01*
G04 Bottom*
%LPD*%
X3766377Y2036000D2*
D13*
X3619500Y2182877D1*
Y3603627D1*
X3778250Y2190750D2*
X3698877Y2270123D1*
Y3556003D1*
X3857623Y3714750D1*
X4048127D1*
Y3730627D1*
X4349753Y2095500D2*
X4397377Y2143123D1*
Y3429007D1*
X4270377Y3556007D1*
Y3635377D1*
X4460877Y3825877D1*
X4492627D1*
X3651250Y1841500D2*
Y2000250D1*
X3556000Y2095500D1*
Y3492500D1*
X3460750Y3587750D1*
Y4746627D1*
X571500Y7635877D1*
Y8704250D1*
X1016000Y4032250D2*
D14*
Y4079877D1*
X682627Y3714750D2*
D15*
X698500D1*
X1820877Y3179750D2*
X1825627Y3175000D1*
X3016250Y4524377D2*
Y4540250D1*
X6132000Y9402250D2*
X6143627Y9413877D1*
X4417500Y9402250D2*
X4413250Y9398000D1*
X4381500Y8493127D2*
Y8477250D1*
X3619500Y8874123D2*
Y8890000D1*
X3032127Y9239250D2*
X3079750Y9191627D1*
X1047747Y238127D2*
D13*
X1190623Y95250D1*
X2873377D1*
X3095627Y317500D1*
X4381500D1*
X4810127Y746127D1*
Y1619250D1*
X4699000Y1730377D1*
X4460873D1*
X4222750Y1968500D1*
Y2143127D1*
X4294187Y2214563D1*
X1222373Y190500D2*
X2873377D1*
X3095627Y412750D1*
X4397377D1*
X4714877Y730250D1*
Y1587500D1*
X4651377Y1651000D1*
X4413250D1*
X4079873Y1984377D1*
X3921127D1*
Y2186000D1*
X3952877Y4000500D2*
X5365750D1*
X5524500Y4159250D1*
Y4270373D1*
X4143377Y2460627D2*
X4206877Y2524127D1*
Y3698877D1*
X4445000Y3937000D1*
X5592750D1*
X6350000Y3179750D1*
X4127500Y592877D2*
X3447500D1*
X3175000Y2000250D2*
Y1571627D1*
X3365500Y1381127D1*
X4191000D1*
X4651377Y920750D1*
Y762003D1*
X4381500Y492127D1*
X4228250D1*
X4127500Y592877D1*
X3048003Y1127127D2*
X3036877Y1116000D1*
X1651000D1*
X3381377Y1000127D2*
X3286127Y904877D1*
X1920877D1*
X1746250Y730250D1*
D10*
X1519250D1*
D13*
X1397000Y608000D1*
X3524250Y873127D2*
X3333753D1*
X2809877Y349250D1*
X2079623D1*
X1820873Y608000D1*
X1651000D1*
X3697750Y919627D2*
X3556000Y777877D1*
X3317877D1*
X2825750Y285750D1*
X2047873D1*
X1857373Y476250D1*
D10*
X1519250D1*
D13*
X1397000Y354000D1*
X3429000Y1238250D2*
X3286123D1*
X3079750Y1031877D1*
X1793877D1*
X1746250Y984250D1*
D10*
X1519250D1*
D13*
X1397000Y862000D1*
X3286127Y1111250D2*
Y1095377D1*
X3159127Y968377D1*
X1857377D1*
X1751000Y862000D1*
X1651000D1*
X2952753Y1317627D2*
X2841627Y1206500D1*
X1857373D1*
X1825623Y1238250D1*
D10*
X1519250D1*
D13*
X1397000Y1116000D1*
X3397750Y1745750D2*
Y1794377D1*
X3429000Y1825627D1*
Y3444873D1*
X3333750Y3540123D1*
Y4699003D1*
X2238377Y5794377D1*
X2095500D1*
Y6953250D2*
Y8704250D1*
X3492500Y1698627D2*
X3476627D1*
Y1682750D1*
X3492500Y1698627D2*
Y3460750D1*
X3397250Y3556000D1*
Y4714877D1*
X2063750Y6048377D1*
X1841500D1*
Y6937377D2*
Y8704250D1*
X3286127Y1635127D2*
Y1762127D1*
X3365500Y1841500D1*
Y3429000D1*
X3270250Y3524250D1*
Y4683127D1*
X2286000Y5667377D1*
X1889123D1*
X1587500Y5969000D1*
Y6937377D2*
Y8704250D1*
X4111623Y3571877D2*
Y2746373D1*
X3984627Y2619377D1*
X4460877Y2000250D2*
Y3349627D1*
X4683127Y3571877D1*
X5857877D1*
X6175377Y3254377D1*
Y3100373D1*
X6350000Y2925750D1*
X1778000Y3921127D2*
D14*
Y4968877D1*
X4000500Y7191377D2*
Y9239250D1*
X2746373Y2682870D2*
Y1349377D1*
X1793877Y3413127D2*
D15*
X1730377Y3349627D1*
X1000127D1*
X444500Y2794000D1*
X4286250Y968377D2*
D14*
X4064000Y746127D1*
D45*
X3766377Y2036000D3*
X3619500Y3603627D3*
X4349753Y2095500D3*
X4492627Y3825877D3*
X3651250Y1841500D3*
D47*
X1016000Y4032250D3*
X682627Y3714750D3*
X1820877Y3179750D3*
X3016250Y4524377D3*
X6132000Y9402250D3*
X4417500D3*
X4381500Y8493127D3*
X3619500Y8874123D3*
X3032127Y9239250D3*
D45*
X1047747Y238127D3*
D47*
X4294187Y2214563D3*
D45*
X1222373Y190500D3*
X3921127Y2186000D3*
X3952877Y4000500D3*
X5524500Y4270373D3*
X4143377Y2460627D3*
X3175000Y2000250D3*
X3048003Y1127127D3*
X3381377Y1000127D3*
X3524250Y873127D3*
X3697750Y919627D3*
X3429000Y1238250D3*
X3286127Y1111250D3*
X2952753Y1317627D3*
X3397750Y1745750D3*
X2095500Y5794377D3*
Y6953250D3*
X3492500Y1698627D3*
X1841500Y6048377D3*
Y6937377D3*
X3492500Y1698627D3*
X3286127Y1635127D3*
X1587500Y5969000D3*
Y6937377D3*
X4111623Y3571877D3*
X3984627Y2619377D3*
X4460877Y2000250D3*
D47*
X1778000Y3921127D3*
Y4968877D3*
X4000500Y7191377D3*
Y9239250D3*
X2746373Y2682870D3*
Y1349377D3*
D3*
X1793877Y3413127D3*
X444500Y2794000D3*
D45*
X4286250Y968377D3*
X4064000Y746127D3*
D47*
X2746373Y1349377D3*
D45*
X3825877Y4397377D3*
X4254500Y4095750D3*
X4572000Y4349750D3*
X5429250Y3333750D3*
X6143627Y2809877D3*
X6397627Y1492250D3*
X3222627Y95250D3*
X2222500Y1666877D3*
X1079500Y1270000D3*
X777877Y698500D3*
X1841500Y285750D3*
X539750Y2032000D3*
X158750Y2778127D3*
X3254377Y3127377D3*
X3873500Y2301877D3*
X3937000Y1238250D3*
X2667000Y3381377D3*
X3016250Y3444877D3*
X3778250Y2190750D3*
X4048127Y3730627D3*
D14*
X4254500Y587377D3*
X3921127Y3635377D3*
X104147Y9439083D2*
D16*
X6395913D1*
X104147Y9375917D2*
X6395913D1*
X104147Y9312750D2*
X3909270D1*
X4091777D2*
X6395913D1*
X104147Y9249583D2*
X3882293D1*
X4118663D2*
X6395913D1*
X104147Y9186417D2*
X3895053D1*
X4105903D2*
X6395913D1*
X104147Y9123250D2*
X3896877D1*
X4104170D2*
X6395913D1*
X104147Y9060083D2*
X3896877D1*
X4104170D2*
X6395913D1*
X104147Y8996917D2*
X3896877D1*
X4104170D2*
X6395913D1*
X104147Y8933750D2*
X3896877D1*
X4104170D2*
X6395913D1*
X104147Y8870583D2*
X3896877D1*
X4104170D2*
X6395913D1*
X104147Y8807417D2*
X446460D1*
X6030540D2*
X6395913D1*
X104147Y8744250D2*
X413007D1*
X6063990D2*
X6395913D1*
X104147Y8681083D2*
X409543D1*
X6067453D2*
X6395913D1*
X104147Y8617917D2*
X433697D1*
X6043300D2*
X6395913D1*
X104147Y8554750D2*
X482827D1*
X660137D2*
X770300D1*
X880707D2*
X1024233D1*
X1134730D2*
X1278257D1*
X1388753D2*
X1498830D1*
X1676137D2*
X1752853D1*
X1930160D2*
X2006877D1*
X2184183D2*
X2294257D1*
X2404757D2*
X2548280D1*
X2658780D2*
X2802303D1*
X2912713D2*
X3056237D1*
X3166737D2*
X3310260D1*
X3420760D2*
X3564283D1*
X3674693D2*
X3818307D1*
X4182740D2*
X4326263D1*
X4436763D2*
X4580287D1*
X4690697D2*
X4834220D1*
X4944720D2*
X5088243D1*
X5198743D2*
X5342267D1*
X5452767D2*
X5596290D1*
X5706697D2*
X5850220D1*
X5960720D2*
X6395913D1*
X104147Y8491583D2*
X482827D1*
X660137D2*
X1498830D1*
X1676137D2*
X1752853D1*
X1930160D2*
X2006877D1*
X2184183D2*
X3896877D1*
X4104170D2*
X6395913D1*
X104147Y8428417D2*
X482827D1*
X660137D2*
X1498830D1*
X1676137D2*
X1752853D1*
X1930160D2*
X2006877D1*
X2184183D2*
X3896877D1*
X4104170D2*
X6395913D1*
X104147Y8365250D2*
X482827D1*
X660137D2*
X1498830D1*
X1676137D2*
X1752853D1*
X1930160D2*
X2006877D1*
X2184183D2*
X3896877D1*
X4104170D2*
X6395913D1*
X104147Y8302083D2*
X482827D1*
X660137D2*
X1498830D1*
X1676137D2*
X1752853D1*
X1930160D2*
X2006877D1*
X2184183D2*
X3896877D1*
X4104170D2*
X6395913D1*
X104147Y8238917D2*
X482827D1*
X660137D2*
X1498830D1*
X1676137D2*
X1752853D1*
X1930160D2*
X2006877D1*
X2184183D2*
X3896877D1*
X4104170D2*
X6395913D1*
X104147Y8175750D2*
X482827D1*
X660137D2*
X1498830D1*
X1676137D2*
X1752853D1*
X1930160D2*
X2006877D1*
X2184183D2*
X3896877D1*
X4104170D2*
X6395913D1*
X104147Y8112583D2*
X482827D1*
X660137D2*
X1498830D1*
X1676137D2*
X1752853D1*
X1930160D2*
X2006877D1*
X2184183D2*
X3896877D1*
X4104170D2*
X6395913D1*
X104147Y8049417D2*
X482827D1*
X660137D2*
X1498830D1*
X1676137D2*
X1752853D1*
X1930160D2*
X2006877D1*
X2184183D2*
X3896877D1*
X4104170D2*
X6395913D1*
X104147Y7986250D2*
X482827D1*
X660137D2*
X1498830D1*
X1676137D2*
X1752853D1*
X1930160D2*
X2006877D1*
X2184183D2*
X3896877D1*
X4104170D2*
X6395913D1*
X104147Y7923083D2*
X482827D1*
X660137D2*
X1498830D1*
X1676137D2*
X1752853D1*
X1930160D2*
X2006877D1*
X2184183D2*
X3896877D1*
X4104170D2*
X6395913D1*
X104147Y7859917D2*
X482827D1*
X660137D2*
X1498830D1*
X1676137D2*
X1752853D1*
X1930160D2*
X2006877D1*
X2184183D2*
X3896877D1*
X4104170D2*
X6395913D1*
X104147Y7796750D2*
X482827D1*
X660137D2*
X1498830D1*
X1676137D2*
X1752853D1*
X1930160D2*
X2006877D1*
X2184183D2*
X3896877D1*
X4104170D2*
X6395913D1*
X104147Y7733583D2*
X482827D1*
X660137D2*
X1498830D1*
X1676137D2*
X1752853D1*
X1930160D2*
X2006877D1*
X2184183D2*
X3896877D1*
X4104170D2*
X6395913D1*
X104147Y7670417D2*
X482827D1*
X660137D2*
X1498830D1*
X1676137D2*
X1752853D1*
X1930160D2*
X2006877D1*
X2184183D2*
X3896877D1*
X4104170D2*
X6395913D1*
X104147Y7607250D2*
X488020D1*
X722843D2*
X1498830D1*
X1676137D2*
X1752853D1*
X1930160D2*
X2006877D1*
X2184183D2*
X3896877D1*
X4104170D2*
X6395913D1*
X104147Y7544083D2*
X540613D1*
X786007D2*
X1498830D1*
X1676137D2*
X1752853D1*
X1930160D2*
X2006877D1*
X2184183D2*
X3896877D1*
X4104170D2*
X6395913D1*
X104147Y7480917D2*
X603777D1*
X849170D2*
X1498830D1*
X1676137D2*
X1752853D1*
X1930160D2*
X2006877D1*
X2184183D2*
X3896877D1*
X4104170D2*
X6395913D1*
X104147Y7417750D2*
X666940D1*
X912337D2*
X1498830D1*
X1676137D2*
X1752853D1*
X1930160D2*
X2006877D1*
X2184183D2*
X3896877D1*
X4104170D2*
X6395913D1*
X104147Y7354583D2*
X730103D1*
X975500D2*
X1498830D1*
X1676137D2*
X1752853D1*
X1930160D2*
X2006877D1*
X2184183D2*
X3896877D1*
X4104170D2*
X6395913D1*
X104147Y7291417D2*
X793270D1*
X1038663D2*
X1498830D1*
X1676137D2*
X1752853D1*
X1930160D2*
X2006877D1*
X2184183D2*
X3896877D1*
X4104170D2*
X6395913D1*
X104147Y7228250D2*
X856433D1*
X1101827D2*
X1498830D1*
X1676137D2*
X1752853D1*
X1930160D2*
X2006877D1*
X2184183D2*
X3888127D1*
X4112920D2*
X6395913D1*
X104147Y7165083D2*
X919597D1*
X1164993D2*
X1498830D1*
X1676137D2*
X1752853D1*
X1930160D2*
X2006877D1*
X2184183D2*
X3885027D1*
X4116020D2*
X6395913D1*
X104147Y7101917D2*
X982760D1*
X1228157D2*
X1498830D1*
X1676137D2*
X1752853D1*
X1930160D2*
X2006877D1*
X2184183D2*
X3926317D1*
X4074730D2*
X6395913D1*
X104147Y7038750D2*
X1045923D1*
X1291320D2*
X1498830D1*
X1676137D2*
X1752853D1*
X1930160D2*
X2006877D1*
X2184183D2*
X6395913D1*
X104147Y6975583D2*
X1109090D1*
X1354483D2*
X1486250D1*
X1688717D2*
X1740273D1*
X1942740D2*
X1989283D1*
X2201683D2*
X6395913D1*
X104147Y6912417D2*
X1172253D1*
X1417647D2*
X1481967D1*
X1693090D2*
X1735990D1*
X1947023D2*
X1995390D1*
X2195670D2*
X6395913D1*
X104147Y6849250D2*
X1235417D1*
X1480813D2*
X1529180D1*
X1645787D2*
X1783203D1*
X1899810D2*
X6395913D1*
X104147Y6786083D2*
X1298580D1*
X1543977D2*
X6395913D1*
X104147Y6722917D2*
X1361747D1*
X1607140D2*
X6395913D1*
X104147Y6659750D2*
X1424910D1*
X1670397D2*
X6395913D1*
X104147Y6596583D2*
X1488073D1*
X1733560D2*
X6395913D1*
X104147Y6533417D2*
X1551237D1*
X1796723D2*
X6395913D1*
X104147Y6470250D2*
X1614400D1*
X1859887D2*
X6395913D1*
X104147Y6407083D2*
X1677567D1*
X1923053D2*
X6395913D1*
X104147Y6343917D2*
X1740730D1*
X1986217D2*
X6395913D1*
X104147Y6280750D2*
X1803893D1*
X2049380D2*
X6395913D1*
X104147Y6217583D2*
X1867057D1*
X2112543D2*
X6395913D1*
X104147Y6154417D2*
X1930220D1*
X2175707D2*
X6395913D1*
X104147Y6091250D2*
X1742280D1*
X2238873D2*
X6395913D1*
X104147Y6028083D2*
X1497643D1*
X1677323D2*
X1734897D1*
X2302037D2*
X6395913D1*
X104147Y5964917D2*
X1478960D1*
X1714327D2*
X1776003D1*
X1907010D2*
X2024467D1*
X2365200D2*
X6395913D1*
X104147Y5901750D2*
X1504113D1*
X1777493D2*
X2087630D1*
X2428363D2*
X6395913D1*
X104147Y5838583D2*
X1595170D1*
X1840657D2*
X1996940D1*
X2491530D2*
X6395913D1*
X104147Y5775417D2*
X1658333D1*
X1903820D2*
X1988647D1*
X2554693D2*
X6395913D1*
X104147Y5712250D2*
X1721497D1*
X2617857D2*
X6395913D1*
X104147Y5649083D2*
X1784663D1*
X2681020D2*
X6395913D1*
X104147Y5585917D2*
X1871160D1*
X2744183D2*
X6395913D1*
X104147Y5522750D2*
X2307930D1*
X2807350D2*
X6395913D1*
X104147Y5459583D2*
X2371093D1*
X2870513D2*
X6395913D1*
X104147Y5396417D2*
X2434257D1*
X2933677D2*
X6395913D1*
X104147Y5333250D2*
X2497423D1*
X2996840D2*
X6395913D1*
X104147Y5270083D2*
X2560587D1*
X3060003D2*
X6395913D1*
X104147Y5206917D2*
X2623750D1*
X3123170D2*
X6395913D1*
X104147Y5143750D2*
X2686913D1*
X3186333D2*
X6395913D1*
X104147Y5080583D2*
X1760233D1*
X1795777D2*
X2750080D1*
X3249497D2*
X6395913D1*
X104147Y5017417D2*
X467330D1*
X675720D2*
X721353D1*
X929653D2*
X975287D1*
X1183677D2*
X1670363D1*
X1885590D2*
X2813243D1*
X3312660D2*
X5293320D1*
X5501710D2*
X5547343D1*
X5755643D2*
X5801367D1*
X6009667D2*
X6395913D1*
X104147Y4954250D2*
X419753D1*
X1231253D2*
X1660340D1*
X1895707D2*
X2876407D1*
X3375827D2*
X5245743D1*
X6057243D2*
X6395913D1*
X104147Y4891083D2*
X407903D1*
X1243103D2*
X1674377D1*
X1881670D2*
X2939570D1*
X3438990D2*
X5233893D1*
X6069093D2*
X6395913D1*
X104147Y4827917D2*
X422487D1*
X1228430D2*
X1674377D1*
X1881670D2*
X3002733D1*
X3502153D2*
X5248567D1*
X6054510D2*
X6395913D1*
X104147Y4764750D2*
X475900D1*
X667153D2*
X729830D1*
X921087D2*
X983853D1*
X1175110D2*
X1674377D1*
X1881670D2*
X3065900D1*
X3547363D2*
X5301887D1*
X5493143D2*
X5555913D1*
X5747167D2*
X5809843D1*
X6001100D2*
X6395913D1*
X104147Y4701583D2*
X1674377D1*
X1881670D2*
X3129063D1*
X3549367D2*
X6395913D1*
X104147Y4638417D2*
X1674377D1*
X1881670D2*
X3181653D1*
X3549367D2*
X6395913D1*
X104147Y4575250D2*
X1674377D1*
X1881670D2*
X3181653D1*
X3549367D2*
X6395913D1*
X104147Y4512083D2*
X1674377D1*
X1881670D2*
X3181653D1*
X3549367D2*
X6395913D1*
X104147Y4448917D2*
X1674377D1*
X1881670D2*
X3181653D1*
X3549367D2*
X6395913D1*
X104147Y4385750D2*
X1674377D1*
X1881670D2*
X3181653D1*
X3549367D2*
X6395913D1*
X104147Y4322583D2*
X1674377D1*
X1881670D2*
X3181653D1*
X3549367D2*
X5430220D1*
X5618833D2*
X6395913D1*
X104147Y4259417D2*
X1674377D1*
X1881670D2*
X3181653D1*
X3549367D2*
X5416460D1*
X5632597D2*
X6395913D1*
X104147Y4196250D2*
X1674377D1*
X1881670D2*
X3181653D1*
X3549367D2*
X5435873D1*
X5613183D2*
X6395913D1*
X104147Y4133083D2*
X1674377D1*
X1881670D2*
X3181653D1*
X3549367D2*
X5375627D1*
X5608897D2*
X6395913D1*
X104147Y4069917D2*
X1674377D1*
X1881670D2*
X3181653D1*
X3549367D2*
X3871353D1*
X5557857D2*
X6395913D1*
X104147Y4006750D2*
X1674377D1*
X1881670D2*
X3181653D1*
X3549367D2*
X3844467D1*
X5642803D2*
X6395913D1*
X104147Y3943583D2*
X1661613D1*
X1894340D2*
X3181653D1*
X3549367D2*
X3861510D1*
X5708887D2*
X6395913D1*
X104147Y3880417D2*
X1666993D1*
X1888963D2*
X3181653D1*
X3549367D2*
X4265650D1*
X5772050D2*
X6395913D1*
X104147Y3817250D2*
X1728970D1*
X1826983D2*
X3181653D1*
X3549367D2*
X3987383D1*
X4108910D2*
X4202487D1*
X5835213D2*
X6395913D1*
X104147Y3754083D2*
X3181653D1*
X3549367D2*
X3774193D1*
X5898377D2*
X6395913D1*
X104147Y3690917D2*
X3181653D1*
X3679160D2*
X3711030D1*
X5961540D2*
X6395913D1*
X104147Y3627750D2*
X3181653D1*
X3893350D2*
X4019557D1*
X6024707D2*
X6395913D1*
X104147Y3564583D2*
X3181653D1*
X3830187D2*
X4003243D1*
X6087870D2*
X6265663D1*
X104147Y3501417D2*
X1718127D1*
X1869640D2*
X3184843D1*
X3787530D2*
X4023020D1*
X6151033D2*
X6207240D1*
X104147Y3438250D2*
X1678113D1*
X1909653D2*
X3233517D1*
X3787530D2*
X4023020D1*
X4672193D2*
X5868817D1*
X104147Y3375083D2*
X895807D1*
X1905917D2*
X3276900D1*
X3787530D2*
X4023020D1*
X4609030D2*
X5931980D1*
X104147Y3311917D2*
X832643D1*
X1848860D2*
X3276900D1*
X3787530D2*
X4023020D1*
X4549510D2*
X5995143D1*
X104147Y3248750D2*
X769480D1*
X1029003D2*
X3276900D1*
X3787530D2*
X4023020D1*
X4549510D2*
X6058307D1*
X104147Y3185583D2*
X706317D1*
X965837D2*
X3276900D1*
X3787530D2*
X4023020D1*
X4549510D2*
X6086747D1*
X104147Y3122417D2*
X643150D1*
X902673D2*
X3276900D1*
X3787530D2*
X4023020D1*
X4549510D2*
X6086747D1*
X104147Y3059250D2*
X579987D1*
X839510D2*
X3276900D1*
X3787530D2*
X4023020D1*
X4549510D2*
X6097773D1*
X104147Y2996083D2*
X516823D1*
X776347D2*
X1235873D1*
X1773663D2*
X3276900D1*
X3787530D2*
X4023020D1*
X4549510D2*
X5204637D1*
X5742427D2*
X6156927D1*
X104147Y2932917D2*
X453660D1*
X713183D2*
X1235873D1*
X1807207D2*
X3276900D1*
X3787530D2*
X4023020D1*
X4549510D2*
X5204637D1*
X5775877D2*
X6191563D1*
X104147Y2869750D2*
X355220D1*
X650017D2*
X1235873D1*
X1810213D2*
X3276900D1*
X3787530D2*
X4023020D1*
X4549510D2*
X5204637D1*
X5778977D2*
X6202043D1*
X104147Y2806583D2*
X326603D1*
X586853D2*
X1235873D1*
X1785057D2*
X3276900D1*
X3787530D2*
X4023020D1*
X4549510D2*
X5204637D1*
X5753820D2*
X6248803D1*
X104147Y2743417D2*
X337903D1*
X551123D2*
X1235873D1*
X1772480D2*
X2645443D1*
X2847270D2*
X3276900D1*
X3787530D2*
X3985923D1*
X4549510D2*
X5204637D1*
X5741243D2*
X6209247D1*
X104147Y2680250D2*
X1241160D1*
X1806840D2*
X2627760D1*
X2864953D2*
X3276900D1*
X3787530D2*
X3896053D1*
X4549510D2*
X5209923D1*
X5775603D2*
X6191563D1*
X104147Y2617083D2*
X1237603D1*
X1810397D2*
X2642710D1*
X2850003D2*
X3276900D1*
X3787530D2*
X3876003D1*
X4549510D2*
X5206277D1*
X5779160D2*
X6201497D1*
X104147Y2553917D2*
X1262030D1*
X1785970D2*
X2642710D1*
X2850003D2*
X3276900D1*
X3787530D2*
X3899700D1*
X4549510D2*
X5230793D1*
X5754730D2*
X6247163D1*
X104147Y2490750D2*
X1276707D1*
X1771293D2*
X2642710D1*
X2850003D2*
X3276900D1*
X3787530D2*
X4039247D1*
X4549510D2*
X5245470D1*
X5740057D2*
X6209973D1*
X104147Y2427583D2*
X1241523D1*
X1806477D2*
X2642710D1*
X2850003D2*
X3276900D1*
X3787530D2*
X4040247D1*
X4246540D2*
X4308763D1*
X4549510D2*
X5210287D1*
X5775240D2*
X6191653D1*
X104147Y2364417D2*
X1237330D1*
X1810670D2*
X2642710D1*
X2850003D2*
X3276900D1*
X3787530D2*
X4102317D1*
X4184470D2*
X4308763D1*
X4549510D2*
X5206093D1*
X5779340D2*
X6201043D1*
X104147Y2301250D2*
X1261120D1*
X1786880D2*
X2642710D1*
X2850003D2*
X3276900D1*
X3790447D2*
X4216433D1*
X4549510D2*
X5229883D1*
X5755643D2*
X6191380D1*
X104147Y2238083D2*
X1277890D1*
X1770110D2*
X2642710D1*
X2850003D2*
X3276900D1*
X4015487D2*
X4178060D1*
X4549510D2*
X5246653D1*
X5738780D2*
X6191380D1*
X104147Y2174917D2*
X1241887D1*
X1806113D2*
X2642710D1*
X2850003D2*
X3276900D1*
X4029160D2*
X4140507D1*
X4549510D2*
X5210650D1*
X5774783D2*
X6191380D1*
X104147Y2111750D2*
X1237150D1*
X1810850D2*
X2642710D1*
X2850003D2*
X3276900D1*
X4009743D2*
X4134127D1*
X4549510D2*
X5205913D1*
X5779523D2*
X6191380D1*
X104147Y2048583D2*
X1260300D1*
X1787700D2*
X2642710D1*
X2850003D2*
X3078477D1*
X4557350D2*
X5228970D1*
X5756463D2*
X6191380D1*
X104147Y1985417D2*
X503790D1*
X575733D2*
X1279167D1*
X1768833D2*
X2642710D1*
X2850003D2*
X3067447D1*
X4568470D2*
X5247930D1*
X5737597D2*
X6395913D1*
X104147Y1922250D2*
X413100D1*
X666423D2*
X1242343D1*
X1805657D2*
X2642710D1*
X2850003D2*
X3086317D1*
X4533377D2*
X5211107D1*
X5774420D2*
X6395913D1*
X104147Y1859083D2*
X391680D1*
X687843D2*
X1237057D1*
X1810943D2*
X2642710D1*
X2850003D2*
X3086317D1*
X4454900D2*
X5205730D1*
X5779707D2*
X6395913D1*
X104147Y1795917D2*
X400340D1*
X679183D2*
X1259387D1*
X1788613D2*
X2642710D1*
X2850003D2*
X3086317D1*
X4755137D2*
X5228150D1*
X5757373D2*
X6395913D1*
X104147Y1732750D2*
X447553D1*
X631880D2*
X1280533D1*
X1767467D2*
X2642710D1*
X2850003D2*
X3086317D1*
X4819393D2*
X5249207D1*
X5736230D2*
X6395913D1*
X104147Y1669583D2*
X413920D1*
X665513D2*
X1242710D1*
X1805290D2*
X2642710D1*
X2850003D2*
X3086317D1*
X4881553D2*
X5211470D1*
X5774053D2*
X6395913D1*
X104147Y1606417D2*
X391863D1*
X687660D2*
X1236877D1*
X1811123D2*
X2642710D1*
X2850003D2*
X3086317D1*
X4898780D2*
X5205637D1*
X5779887D2*
X6395913D1*
X104147Y1543250D2*
X399793D1*
X679730D2*
X1258567D1*
X1789433D2*
X2642710D1*
X2850003D2*
X3091420D1*
X4898780D2*
X5227330D1*
X5758197D2*
X6395913D1*
X104147Y1480083D2*
X445820D1*
X633613D2*
X1281810D1*
X1766190D2*
X2642710D1*
X2850003D2*
X3143830D1*
X4898780D2*
X5250573D1*
X5734953D2*
X6395913D1*
X104147Y1416917D2*
X414830D1*
X664693D2*
X1243163D1*
X1804837D2*
X2642710D1*
X2850003D2*
X2921797D1*
X2983717D2*
X3206993D1*
X4898780D2*
X5211927D1*
X5773600D2*
X6395913D1*
X104147Y1353750D2*
X391953D1*
X687570D2*
X1236693D1*
X1811307D2*
X2627853D1*
X3054810D2*
X3270157D1*
X4898780D2*
X5205457D1*
X5780070D2*
X6395913D1*
X104147Y1290583D2*
X399337D1*
X680187D2*
X1257747D1*
X1895980D2*
X2644350D1*
X3057727D2*
X3215743D1*
X3523207D2*
X4158830D1*
X4898780D2*
X5226510D1*
X5758923D2*
X6395913D1*
X104147Y1227417D2*
X444180D1*
X635343D2*
X1283177D1*
X3074497D2*
X3152580D1*
X3537063D2*
X4221993D1*
X4898780D2*
X5251940D1*
X5733587D2*
X5905913D1*
X104147Y1164250D2*
X391133D1*
X688390D2*
X1243530D1*
X3505980D2*
X4285157D1*
X4898780D2*
X5212293D1*
X5773143D2*
X5860520D1*
X104147Y1101083D2*
X391133D1*
X688390D2*
X1236603D1*
X3404170D2*
X4348320D1*
X4898780D2*
X5205363D1*
X5780160D2*
X5852863D1*
X104147Y1037917D2*
X391133D1*
X688390D2*
X1257020D1*
X3482740D2*
X4204857D1*
X4367583D2*
X4411483D1*
X4898780D2*
X5225780D1*
X5759743D2*
X5875470D1*
X104147Y974750D2*
X391133D1*
X688390D2*
X1284637D1*
X3542317D2*
X3605210D1*
X3790267D2*
X4148710D1*
X4394653D2*
X4474650D1*
X4898780D2*
X5253307D1*
X5732127D2*
X5907643D1*
X104147Y911583D2*
X1243983D1*
X3806033D2*
X4085547D1*
X4377700D2*
X4537813D1*
X4898780D2*
X5212747D1*
X5772780D2*
X5861067D1*
X104147Y848417D2*
X1236420D1*
X3777503D2*
X4022383D1*
X4310253D2*
X4562697D1*
X4898780D2*
X5205183D1*
X5780253D2*
X5852773D1*
X104147Y785250D2*
X1256197D1*
X3686087D2*
X3963137D1*
X4247087D2*
X4551940D1*
X4898780D2*
X5224960D1*
X5760563D2*
X5874557D1*
X104147Y722083D2*
X1286003D1*
X3622920D2*
X3958217D1*
X4193220D2*
X4488777D1*
X4895137D2*
X5254767D1*
X5730760D2*
X5909377D1*
X6346177D2*
X6395913D1*
X104147Y658917D2*
X1244440D1*
X4259120D2*
X4425520D1*
X4845643D2*
X5213203D1*
X5772230D2*
X5861523D1*
X104147Y595750D2*
X1236330D1*
X4270420D2*
X4362357D1*
X4782480D2*
X5205090D1*
X5780433D2*
X5852683D1*
X104147Y532583D2*
X1255470D1*
X4719313D2*
X5224233D1*
X5761293D2*
X5873737D1*
X104147Y469417D2*
X1287460D1*
X4656150D2*
X5256223D1*
X5729210D2*
X5911197D1*
X6344353D2*
X6395913D1*
X104147Y406250D2*
X1244987D1*
X4592987D2*
X5213660D1*
X5771777D2*
X5862070D1*
X104147Y343083D2*
X1236237D1*
X1811763D2*
X1867787D1*
X4529823D2*
X5205000D1*
X5780527D2*
X5852500D1*
X104147Y279917D2*
X948033D1*
X1793260D2*
X1930950D1*
X4466660D2*
X5223503D1*
X5762023D2*
X5872917D1*
X104147Y216750D2*
X941380D1*
X3117610D2*
X3322020D1*
X3572973D2*
X4001967D1*
X4253013D2*
X5287853D1*
X5443650D2*
X5541783D1*
X5697673D2*
X5956863D1*
X6044667D2*
X6210887D1*
X6298600D2*
X6395913D1*
X104147Y153583D2*
X983853D1*
X3054447D2*
X3304610D1*
X3590473D2*
X3984557D1*
X4270420D2*
X6395913D1*
X4264080Y171450D2*
X4263910Y109397D1*
X4262600Y100143D1*
X4266000Y97750D1*
X6402183D1*
X6402250Y2011507D1*
X6197710Y2011460D1*
Y2316040D1*
X6236630D1*
X6226793Y2328237D1*
X6214310Y2348613D1*
X6205163Y2370690D1*
X6199583Y2393927D1*
X6197710Y2417750D1*
X6199583Y2441573D1*
X6205163Y2464810D1*
X6214310Y2486887D1*
X6226793Y2507263D1*
X6242313Y2525437D1*
X6260487Y2540957D1*
X6266040Y2544667D1*
X6252263Y2554960D1*
X6238717Y2567787D1*
X6226843Y2582170D1*
X6216813Y2597903D1*
X6208783Y2614740D1*
X6202873Y2632433D1*
X6199170Y2650717D1*
X6197730Y2669317D1*
X6198573Y2687953D1*
X6201690Y2706347D1*
X6207033Y2724220D1*
X6214523Y2741307D1*
X6224043Y2757347D1*
X6235453Y2772107D1*
X6248583Y2785357D1*
X6263233Y2796907D1*
X6265973Y2798743D1*
X6251097Y2809947D1*
X6234197Y2826847D1*
X6220150Y2846180D1*
X6209303Y2867470D1*
X6201917Y2890200D1*
X6198180Y2913800D1*
Y2937700D1*
X6201270Y2958050D1*
X6112803Y3046930D1*
X6105213Y3057377D1*
X6099350Y3068883D1*
X6095360Y3081163D1*
X6093340Y3093917D1*
X6093087Y3220230D1*
X5823750Y3489630D1*
X4717187Y3489587D1*
X4543130Y3315507D1*
X4543167Y2061097D1*
X4552017Y2046690D1*
X4558160Y2031860D1*
X4561907Y2016253D1*
X4563167Y2000250D1*
X4561907Y1984247D1*
X4558160Y1968640D1*
X4552017Y1953810D1*
X4543630Y1940127D1*
X4533207Y1927920D1*
X4521000Y1917497D1*
X4507317Y1909110D1*
X4492487Y1902967D1*
X4476880Y1899220D1*
X4460877Y1897960D1*
X4444873Y1899220D1*
X4429267Y1902967D1*
X4414437Y1909110D1*
X4400753Y1917497D1*
X4388547Y1927920D1*
X4378123Y1940127D1*
X4369737Y1953810D1*
X4363593Y1968640D1*
X4359847Y1984247D1*
X4358847Y1993637D1*
X4341727Y1993527D1*
X4325873Y1996037D1*
X4310610Y2000997D1*
X4305040Y2003127D1*
X4330437Y1977190D1*
X4494977Y1812650D1*
X4705457Y1812413D1*
X4718210Y1810393D1*
X4730490Y1806403D1*
X4741997Y1800540D1*
X4752443Y1792950D1*
X4868313Y1677437D1*
X4876700Y1667620D1*
X4883447Y1656610D1*
X4888390Y1644680D1*
X4891403Y1632123D1*
X4892417Y1619223D1*
X4892163Y739670D1*
X4890143Y726917D1*
X4886153Y714637D1*
X4880290Y703130D1*
X4872700Y692683D1*
X4752820Y572443D1*
X4434943Y254927D1*
X4424497Y247337D1*
X4412990Y241473D1*
X4400710Y237483D1*
X4387957Y235463D1*
X4228283Y235210D1*
X4250493Y212123D1*
X4257710Y200157D1*
X4262300Y186957D1*
X4264063Y173073D1*
X3990920Y118843D2*
X3991090Y176357D1*
X3993523Y190120D1*
X3998750Y203080D1*
X4006540Y214683D1*
X4026677Y235207D1*
X3548337Y235210D1*
X3570563Y212030D1*
X3577760Y200050D1*
X3582327Y186840D1*
X3584067Y172977D1*
X3583920Y109513D1*
X3582623Y100260D1*
X3589333Y97750D1*
X3993017D1*
X3991193Y108120D1*
X3990920Y118843D1*
X4264080Y621487D2*
Y574450D1*
X4347377Y574417D1*
X4569060Y796063D1*
X4569087Y886600D1*
X4156927Y1298823D1*
X3511753Y1298373D1*
X3520140Y1284690D1*
X3526283Y1269860D1*
X3530030Y1254253D1*
X3531290Y1238250D1*
X3530030Y1222247D1*
X3526283Y1206640D1*
X3520140Y1191810D1*
X3511753Y1178127D1*
X3501330Y1165920D1*
X3489123Y1155497D1*
X3475440Y1147110D1*
X3460610Y1140967D1*
X3445003Y1137220D1*
X3429000Y1135960D1*
X3412997Y1137220D1*
X3397390Y1140967D1*
X3381767Y1147553D1*
X3385590Y1135130D1*
X3388100Y1119277D1*
X3387980Y1102197D1*
X3405257Y1099590D1*
X3420520Y1094630D1*
X3434823Y1087343D1*
X3447810Y1077910D1*
X3459160Y1066560D1*
X3468593Y1053573D1*
X3475880Y1039270D1*
X3480840Y1024007D1*
X3483350Y1008153D1*
Y992100D1*
X3480840Y976247D1*
X3476933Y963837D1*
X3492640Y970410D1*
X3508247Y974157D1*
X3524250Y975417D1*
X3540253Y974157D1*
X3555860Y970410D1*
X3570690Y964267D1*
X3584373Y955880D1*
X3598303Y943590D1*
X3603247Y958770D1*
X3610533Y973073D1*
X3619967Y986060D1*
X3631317Y997410D1*
X3644303Y1006843D1*
X3658607Y1014130D1*
X3673870Y1019090D1*
X3689723Y1021600D1*
X3705777D1*
X3721630Y1019090D1*
X3736893Y1014130D1*
X3751197Y1006843D1*
X3764183Y997410D1*
X3775533Y986060D1*
X3784967Y973073D1*
X3792253Y958770D1*
X3797213Y943507D1*
X3799723Y927653D1*
Y911600D1*
X3797213Y895747D1*
X3792253Y880483D1*
X3784967Y866180D1*
X3775533Y853193D1*
X3764183Y841843D1*
X3751197Y832410D1*
X3736893Y825123D1*
X3721630Y820163D1*
X3713037Y818510D1*
X3609443Y715303D1*
X3598997Y707713D1*
X3587490Y701850D1*
X3575210Y697860D1*
X3562457Y695840D1*
X3537863Y695587D1*
X3558350Y675177D1*
X3990273Y675167D1*
X3981247Y686003D1*
X3972860Y699687D1*
X3966717Y714517D1*
X3962970Y730123D1*
X3961710Y746127D1*
X3962970Y762130D1*
X3966717Y777737D1*
X3972860Y792567D1*
X3981247Y806250D1*
X3991670Y818457D1*
X4003877Y828880D1*
X4017533Y837253D1*
X4195063Y1014780D1*
X4203497Y1028500D1*
X4213920Y1040707D1*
X4226127Y1051130D1*
X4239810Y1059517D1*
X4254640Y1065660D1*
X4270247Y1069407D1*
X4286250Y1070667D1*
X4302253Y1069407D1*
X4317860Y1065660D1*
X4332690Y1059517D1*
X4346373Y1051130D1*
X4358580Y1040707D1*
X4369003Y1028500D1*
X4377390Y1014817D1*
X4383533Y999987D1*
X4387280Y984380D1*
X4388540Y968377D1*
X4387280Y952373D1*
X4383533Y936767D1*
X4377390Y921937D1*
X4369003Y908253D1*
X4358580Y896047D1*
X4346373Y885623D1*
X4332717Y877250D1*
X4180450Y724987D1*
X4191360Y719540D1*
X4199900Y713333D1*
X4247957Y665277D1*
X4254163Y656737D1*
X4258957Y647327D1*
X4262220Y637287D1*
X4263873Y626857D1*
X4264080Y621557D1*
X3553767Y679763D2*
X3553797Y679733D1*
X3310920Y118843D2*
X3311090Y176357D1*
X3313523Y190117D1*
X3318750Y203080D1*
X3326540Y214683D1*
X3346677Y235207D1*
X3129793Y235210D1*
X2992240Y97737D1*
X3312887Y97750D1*
X3310933Y112777D1*
X3310920Y118843D1*
X6112433Y1028010D2*
X6101363Y1015387D1*
X6084387Y1000883D1*
X6064913Y989017D1*
X6084387Y977117D1*
X6101363Y962613D1*
X6115867Y945637D1*
X6127733Y926163D1*
X6139633Y945637D1*
X6154137Y962613D1*
X6166760Y973683D1*
X6112460Y973710D1*
Y1027870D1*
X5936587Y989017D2*
X5917113Y1000883D1*
X5900137Y1015387D1*
X5885633Y1032363D1*
X5873970Y1051403D1*
X5865423Y1072030D1*
X5860213Y1093740D1*
X5858460Y1116000D1*
X5860213Y1138260D1*
X5865423Y1159970D1*
X5873970Y1180597D1*
X5885633Y1199637D1*
X5900137Y1216613D1*
X5917113Y1231117D1*
X5936153Y1242780D1*
X5956780Y1251327D1*
X5978490Y1256537D1*
X6000750Y1258290D1*
X6023010Y1256537D1*
X6044720Y1251327D1*
X6065347Y1242780D1*
X6084387Y1231117D1*
X6101363Y1216613D1*
X6112433Y1203990D1*
X6112460Y1258290D1*
X6397040D1*
Y973710D1*
X6342880D1*
X6355363Y962613D1*
X6369867Y945637D1*
X6381530Y926597D1*
X6390077Y905970D1*
X6395287Y884260D1*
X6397040Y862000D1*
X6395287Y839740D1*
X6390077Y818030D1*
X6381530Y797403D1*
X6369867Y778363D1*
X6355363Y761387D1*
X6338387Y746883D1*
X6318913Y735017D1*
X6338387Y723117D1*
X6355363Y708613D1*
X6369867Y691637D1*
X6381530Y672597D1*
X6390077Y651970D1*
X6395287Y630260D1*
X6397040Y608000D1*
X6395287Y585740D1*
X6390077Y564030D1*
X6381530Y543403D1*
X6369867Y524363D1*
X6355363Y507387D1*
X6338387Y492883D1*
X6318913Y481017D1*
X6338387Y469117D1*
X6355363Y454613D1*
X6369867Y437637D1*
X6381530Y418597D1*
X6390077Y397970D1*
X6395287Y376260D1*
X6397040Y354000D1*
X6395287Y331740D1*
X6390077Y310030D1*
X6381530Y289403D1*
X6369867Y270363D1*
X6355363Y253387D1*
X6338387Y238883D1*
X6319347Y227220D1*
X6298720Y218673D1*
X6277010Y213463D1*
X6254750Y211710D1*
X6232490Y213463D1*
X6210780Y218673D1*
X6190153Y227220D1*
X6171113Y238883D1*
X6154137Y253387D1*
X6139633Y270363D1*
X6127767Y289837D1*
X6115867Y270363D1*
X6101363Y253387D1*
X6084387Y238883D1*
X6065347Y227220D1*
X6044720Y218673D1*
X6023010Y213463D1*
X6000750Y211710D1*
X5978490Y213463D1*
X5956780Y218673D1*
X5936153Y227220D1*
X5917113Y238883D1*
X5900137Y253387D1*
X5885633Y270363D1*
X5873970Y289403D1*
X5865423Y310030D1*
X5860213Y331740D1*
X5858460Y354000D1*
X5860213Y376260D1*
X5865423Y397970D1*
X5873970Y418597D1*
X5885633Y437637D1*
X5900137Y454613D1*
X5917113Y469117D1*
X5936587Y480983D1*
X5917113Y492883D1*
X5900137Y507387D1*
X5885633Y524363D1*
X5873970Y543403D1*
X5865423Y564030D1*
X5860213Y585740D1*
X5858460Y608000D1*
X5860213Y630260D1*
X5865423Y651970D1*
X5873970Y672597D1*
X5885633Y691637D1*
X5900137Y708613D1*
X5917113Y723117D1*
X5936587Y734983D1*
X5917113Y746883D1*
X5900137Y761387D1*
X5885633Y778363D1*
X5873970Y797403D1*
X5865423Y818030D1*
X5860213Y839740D1*
X5858460Y862000D1*
X5860213Y884260D1*
X5865423Y905970D1*
X5873970Y926597D1*
X5885633Y945637D1*
X5900137Y962613D1*
X5917113Y977117D1*
X5936587Y988983D1*
X1265543Y3048790D2*
X1551790D1*
Y3012787D1*
X1570123Y3025980D1*
X1591763Y3037007D1*
X1614863Y3044513D1*
X1638857Y3048313D1*
X1663143D1*
X1687137Y3044513D1*
X1710237Y3037007D1*
X1731877Y3025980D1*
X1751527Y3011703D1*
X1768703Y2994527D1*
X1782980Y2974877D1*
X1794007Y2953237D1*
X1801513Y2930137D1*
X1805313Y2906143D1*
Y2881857D1*
X1801513Y2857863D1*
X1794007Y2834763D1*
X1782980Y2813123D1*
X1768703Y2793473D1*
X1751527Y2776297D1*
X1739417Y2767057D1*
X1751527Y2757703D1*
X1768703Y2740527D1*
X1782980Y2720877D1*
X1794007Y2699237D1*
X1801513Y2676137D1*
X1805313Y2652143D1*
Y2627857D1*
X1801513Y2603863D1*
X1794007Y2580763D1*
X1782980Y2559123D1*
X1768703Y2539473D1*
X1751527Y2522297D1*
X1739417Y2513057D1*
X1751527Y2503703D1*
X1768703Y2486527D1*
X1782980Y2466877D1*
X1794007Y2445237D1*
X1801513Y2422137D1*
X1805313Y2398143D1*
Y2373857D1*
X1801513Y2349863D1*
X1794007Y2326763D1*
X1782980Y2305123D1*
X1768703Y2285473D1*
X1751527Y2268297D1*
X1739417Y2259057D1*
X1751527Y2249703D1*
X1768703Y2232527D1*
X1782980Y2212877D1*
X1794007Y2191237D1*
X1801513Y2168137D1*
X1805313Y2144143D1*
Y2119857D1*
X1801513Y2095863D1*
X1794007Y2072763D1*
X1782980Y2051123D1*
X1768703Y2031473D1*
X1751527Y2014297D1*
X1739417Y2005057D1*
X1751527Y1995703D1*
X1768703Y1978527D1*
X1782980Y1958877D1*
X1794007Y1937237D1*
X1801513Y1914137D1*
X1805313Y1890143D1*
Y1865857D1*
X1801513Y1841863D1*
X1794007Y1818763D1*
X1782980Y1797123D1*
X1768703Y1777473D1*
X1751527Y1760297D1*
X1739417Y1751057D1*
X1751527Y1741703D1*
X1768703Y1724527D1*
X1782980Y1704877D1*
X1794007Y1683237D1*
X1801513Y1660137D1*
X1805313Y1636143D1*
Y1611857D1*
X1801513Y1587863D1*
X1794007Y1564763D1*
X1782980Y1543123D1*
X1768703Y1523473D1*
X1751527Y1506297D1*
X1739417Y1497057D1*
X1751527Y1487703D1*
X1768703Y1470527D1*
X1782980Y1450877D1*
X1794007Y1429237D1*
X1801513Y1406137D1*
X1805313Y1382143D1*
Y1357857D1*
X1801513Y1333863D1*
X1796687Y1318023D1*
X1806413Y1318267D1*
X1819167Y1320287D1*
X1832080D1*
X1844833Y1318267D1*
X1857113Y1314277D1*
X1868620Y1308413D1*
X1879067Y1300823D1*
X1891477Y1288773D1*
X2651890Y1288790D1*
X2646323Y1298397D1*
X2639580Y1314677D1*
X2635467Y1331810D1*
X2634083Y1349377D1*
X2635467Y1366943D1*
X2639580Y1384077D1*
X2646323Y1400357D1*
X2649100Y1405313D1*
X2649083Y2626787D1*
X2642630Y2639900D1*
X2637187Y2656657D1*
X2634430Y2674060D1*
Y2691680D1*
X2637187Y2709083D1*
X2642630Y2725840D1*
X2650630Y2741540D1*
X2660987Y2755797D1*
X2673447Y2768257D1*
X2687703Y2778613D1*
X2703403Y2786613D1*
X2720160Y2792057D1*
X2737563Y2794813D1*
X2755183D1*
X2772587Y2792057D1*
X2789343Y2786613D1*
X2805043Y2778613D1*
X2819300Y2768257D1*
X2831760Y2755797D1*
X2842117Y2741540D1*
X2850117Y2725840D1*
X2855560Y2709083D1*
X2858317Y2691680D1*
Y2674060D1*
X2855560Y2656657D1*
X2850117Y2639900D1*
X2843647Y2626933D1*
X2843663Y1405460D1*
X2850117Y1392347D1*
X2855560Y1375590D1*
X2858363Y1357050D1*
X2865537Y1371073D1*
X2874970Y1384060D1*
X2886320Y1395410D1*
X2899307Y1404843D1*
X2913610Y1412130D1*
X2928873Y1417090D1*
X2944727Y1419600D1*
X2960780D1*
X2976633Y1417090D1*
X2991897Y1412130D1*
X3006200Y1404843D1*
X3019187Y1395410D1*
X3030537Y1384060D1*
X3039970Y1371073D1*
X3047257Y1356770D1*
X3052217Y1341507D1*
X3054727Y1325653D1*
Y1309600D1*
X3052217Y1293747D1*
X3047257Y1278483D1*
X3039970Y1264180D1*
X3030537Y1251193D1*
X3019187Y1239843D1*
X3006200Y1230410D1*
X2991897Y1223123D1*
X2976633Y1218163D1*
X2968040Y1216510D1*
X2949780Y1198277D1*
X2974530Y1198290D1*
X2987880Y1209880D1*
X3001563Y1218267D1*
X3016393Y1224410D1*
X3032000Y1228157D1*
X3048003Y1229417D1*
X3064007Y1228157D1*
X3079613Y1224410D1*
X3094443Y1218267D1*
X3108127Y1209880D1*
X3120333Y1199457D1*
X3125423Y1193950D1*
X3232680Y1300823D1*
X3243127Y1308413D1*
X3254633Y1314277D1*
X3266913Y1318267D1*
X3279667Y1320287D1*
X3309730Y1320540D1*
X3112427Y1518183D1*
X3104837Y1528630D1*
X3098973Y1540137D1*
X3094983Y1552417D1*
X3092963Y1565170D1*
X3092710Y1734960D1*
X3092247Y1940127D1*
X3083860Y1953810D1*
X3077717Y1968640D1*
X3073970Y1984247D1*
X3072710Y2000250D1*
X3073970Y2016253D1*
X3077717Y2031860D1*
X3083860Y2046690D1*
X3092247Y2060373D1*
X3102670Y2072580D1*
X3114877Y2083003D1*
X3128560Y2091390D1*
X3143390Y2097533D1*
X3158997Y2101280D1*
X3175000Y2102540D1*
X3191003Y2101280D1*
X3206610Y2097533D1*
X3221440Y2091390D1*
X3235123Y2083003D1*
X3247330Y2072580D1*
X3257753Y2060373D1*
X3266140Y2046690D1*
X3272283Y2031860D1*
X3276030Y2016253D1*
X3277290Y2000250D1*
X3276030Y1984247D1*
X3272283Y1968640D1*
X3266140Y1953810D1*
X3257307Y1939560D1*
X3257290Y1849587D1*
X3283173Y1875547D1*
X3283210Y3394900D1*
X3207677Y3470807D1*
X3200087Y3481253D1*
X3194223Y3492760D1*
X3190233Y3505040D1*
X3188213Y3517793D1*
X3187960Y3687583D1*
Y4649080D1*
X2251953Y5585047D1*
X1882667Y5585340D1*
X1869913Y5587360D1*
X1857633Y5591350D1*
X1846127Y5597213D1*
X1835680Y5604803D1*
X1715440Y5724683D1*
X1571497Y5867970D1*
X1555890Y5871717D1*
X1541060Y5877860D1*
X1527377Y5886247D1*
X1515170Y5896670D1*
X1504747Y5908877D1*
X1496360Y5922560D1*
X1490217Y5937390D1*
X1486470Y5952997D1*
X1485210Y5969000D1*
X1486470Y5985003D1*
X1490217Y6000610D1*
X1496360Y6015440D1*
X1504747Y6029123D1*
X1515170Y6041330D1*
X1527377Y6051753D1*
X1541060Y6060140D1*
X1555890Y6066283D1*
X1571497Y6070030D1*
X1587500Y6071290D1*
X1603503Y6070030D1*
X1619110Y6066283D1*
X1633940Y6060140D1*
X1647623Y6051753D1*
X1659830Y6041330D1*
X1670253Y6029123D1*
X1678640Y6015440D1*
X1684783Y6000610D1*
X1688617Y5984287D1*
X1923273Y5749603D1*
X2003510Y5749667D1*
X1998217Y5762767D1*
X1994470Y5778373D1*
X1993210Y5794377D1*
X1994470Y5810380D1*
X1998217Y5825987D1*
X2004360Y5840817D1*
X2012747Y5854500D1*
X2023170Y5866707D1*
X2035377Y5877130D1*
X2049060Y5885517D1*
X2063890Y5891660D1*
X2079497Y5895407D1*
X2095500Y5896667D1*
X2099230Y5896520D1*
X2029633Y5966117D1*
X1901623Y5965623D1*
X1887940Y5957237D1*
X1873110Y5951093D1*
X1857503Y5947347D1*
X1841500Y5946087D1*
X1825497Y5947347D1*
X1809890Y5951093D1*
X1795060Y5957237D1*
X1781377Y5965623D1*
X1769170Y5976047D1*
X1758747Y5988253D1*
X1750360Y6001937D1*
X1744217Y6016767D1*
X1740470Y6032373D1*
X1739210Y6048377D1*
X1740470Y6064380D1*
X1744217Y6079987D1*
X1750360Y6094817D1*
X1758747Y6108500D1*
X1769170Y6120707D1*
X1781377Y6131130D1*
X1795060Y6139517D1*
X1809890Y6145660D1*
X1825497Y6149407D1*
X1841500Y6150667D1*
X1857503Y6149407D1*
X1873110Y6145660D1*
X1887940Y6139517D1*
X1902190Y6130683D1*
X1960263Y6130667D1*
X508927Y7582433D1*
X501337Y7592880D1*
X495473Y7604387D1*
X491483Y7616667D1*
X489463Y7629420D1*
X489210Y7799210D1*
Y8570213D1*
X469347Y8584647D1*
X451897Y8602097D1*
X437387Y8622067D1*
X426183Y8644057D1*
X418557Y8667530D1*
X414693Y8691910D1*
Y8716590D1*
X418557Y8740970D1*
X426183Y8764443D1*
X437387Y8786433D1*
X451897Y8806403D1*
X469347Y8823853D1*
X489317Y8838363D1*
X511307Y8849567D1*
X534780Y8857193D1*
X559160Y8861057D1*
X583840D1*
X608220Y8857193D1*
X631693Y8849567D1*
X653683Y8838363D1*
X673653Y8823853D1*
X691103Y8806403D1*
X698480Y8797043D1*
X714280Y8815470D1*
X733047Y8831500D1*
X754093Y8844397D1*
X776893Y8853843D1*
X800893Y8859603D1*
X825500Y8861540D1*
X850107Y8859603D1*
X874107Y8853843D1*
X896907Y8844397D1*
X917953Y8831500D1*
X936720Y8815470D1*
X952480Y8797043D1*
X968280Y8815470D1*
X987047Y8831500D1*
X1008093Y8844397D1*
X1030893Y8853843D1*
X1054893Y8859603D1*
X1079500Y8861540D1*
X1104107Y8859603D1*
X1128107Y8853843D1*
X1150907Y8844397D1*
X1171953Y8831500D1*
X1190720Y8815470D1*
X1206480Y8797043D1*
X1222280Y8815470D1*
X1241047Y8831500D1*
X1262093Y8844397D1*
X1284893Y8853843D1*
X1308893Y8859603D1*
X1333500Y8861540D1*
X1358107Y8859603D1*
X1382107Y8853843D1*
X1404907Y8844397D1*
X1425953Y8831500D1*
X1444720Y8815470D1*
X1460480Y8797043D1*
X1476280Y8815470D1*
X1495047Y8831500D1*
X1516093Y8844397D1*
X1538893Y8853843D1*
X1562893Y8859603D1*
X1587500Y8861540D1*
X1612107Y8859603D1*
X1636107Y8853843D1*
X1658907Y8844397D1*
X1679953Y8831500D1*
X1698720Y8815470D1*
X1714480Y8797043D1*
X1730280Y8815470D1*
X1749047Y8831500D1*
X1770093Y8844397D1*
X1792893Y8853843D1*
X1816893Y8859603D1*
X1841500Y8861540D1*
X1866107Y8859603D1*
X1890107Y8853843D1*
X1912907Y8844397D1*
X1933953Y8831500D1*
X1952720Y8815470D1*
X1968480Y8797043D1*
X1984280Y8815470D1*
X2003047Y8831500D1*
X2024093Y8844397D1*
X2046893Y8853843D1*
X2070893Y8859603D1*
X2095500Y8861540D1*
X2120107Y8859603D1*
X2144107Y8853843D1*
X2166907Y8844397D1*
X2187953Y8831500D1*
X2206720Y8815470D1*
X2222480Y8797043D1*
X2238280Y8815470D1*
X2257047Y8831500D1*
X2278093Y8844397D1*
X2300893Y8853843D1*
X2324893Y8859603D1*
X2349500Y8861540D1*
X2374107Y8859603D1*
X2398107Y8853843D1*
X2420907Y8844397D1*
X2441953Y8831500D1*
X2460720Y8815470D1*
X2476480Y8797043D1*
X2492280Y8815470D1*
X2511047Y8831500D1*
X2532093Y8844397D1*
X2554893Y8853843D1*
X2578893Y8859603D1*
X2603500Y8861540D1*
X2628107Y8859603D1*
X2652107Y8853843D1*
X2674907Y8844397D1*
X2695953Y8831500D1*
X2714720Y8815470D1*
X2730480Y8797043D1*
X2746280Y8815470D1*
X2765047Y8831500D1*
X2786093Y8844397D1*
X2808893Y8853843D1*
X2832893Y8859603D1*
X2857500Y8861540D1*
X2882107Y8859603D1*
X2906107Y8853843D1*
X2928907Y8844397D1*
X2949953Y8831500D1*
X2968720Y8815470D1*
X2984480Y8797043D1*
X3000280Y8815470D1*
X3019047Y8831500D1*
X3040093Y8844397D1*
X3062893Y8853843D1*
X3086893Y8859603D1*
X3111500Y8861540D1*
X3136107Y8859603D1*
X3160107Y8853843D1*
X3182907Y8844397D1*
X3203953Y8831500D1*
X3222720Y8815470D1*
X3238480Y8797043D1*
X3254280Y8815470D1*
X3273047Y8831500D1*
X3294093Y8844397D1*
X3316893Y8853843D1*
X3340893Y8859603D1*
X3365500Y8861540D1*
X3390107Y8859603D1*
X3414107Y8853843D1*
X3436907Y8844397D1*
X3457953Y8831500D1*
X3476720Y8815470D1*
X3492480Y8797043D1*
X3503887Y8810897D1*
X3517327Y8823833D1*
X3532203Y8835090D1*
X3548307Y8844507D1*
X3565417Y8851950D1*
X3583283Y8857313D1*
X3601660Y8860527D1*
X3620287Y8861537D1*
X3638907Y8860340D1*
X3657250Y8856943D1*
X3675063Y8851400D1*
X3692093Y8843787D1*
X3708103Y8834210D1*
X3722867Y8822803D1*
X3736177Y8809733D1*
X3746480Y8797043D1*
X3762280Y8815470D1*
X3781047Y8831500D1*
X3802093Y8844397D1*
X3824893Y8853843D1*
X3848893Y8859603D1*
X3873500Y8861540D1*
X3898107Y8859603D1*
X3903170Y8858597D1*
X3903210Y9183187D1*
X3896757Y9196280D1*
X3891313Y9213037D1*
X3888557Y9230440D1*
Y9248060D1*
X3891313Y9265463D1*
X3896757Y9282220D1*
X3904757Y9297920D1*
X3915113Y9312177D1*
X3927573Y9324637D1*
X3941830Y9334993D1*
X3957530Y9342993D1*
X3974287Y9348437D1*
X3991690Y9351193D1*
X4009310D1*
X4026713Y9348437D1*
X4043470Y9342993D1*
X4059170Y9334993D1*
X4073427Y9324637D1*
X4085887Y9312177D1*
X4096243Y9297920D1*
X4104243Y9282220D1*
X4109687Y9265463D1*
X4112443Y9248060D1*
Y9230440D1*
X4109687Y9213037D1*
X4104243Y9196280D1*
X4097773Y9183313D1*
X4097790Y8858717D1*
X4115160Y8861057D1*
X4139840D1*
X4164220Y8857193D1*
X4187693Y8849567D1*
X4209683Y8838363D1*
X4229653Y8823853D1*
X4247103Y8806403D1*
X4254480Y8797043D1*
X4265887Y8810897D1*
X4279327Y8823833D1*
X4294203Y8835090D1*
X4310307Y8844507D1*
X4327417Y8851950D1*
X4345283Y8857313D1*
X4363660Y8860527D1*
X4382287Y8861537D1*
X4400907Y8860340D1*
X4419250Y8856943D1*
X4437063Y8851400D1*
X4454093Y8843787D1*
X4470103Y8834210D1*
X4484867Y8822803D1*
X4498177Y8809733D1*
X4508480Y8797043D1*
X4524280Y8815470D1*
X4543047Y8831500D1*
X4564093Y8844397D1*
X4586893Y8853843D1*
X4610893Y8859603D1*
X4635500Y8861540D1*
X4660107Y8859603D1*
X4684107Y8853843D1*
X4706907Y8844397D1*
X4727953Y8831500D1*
X4746720Y8815470D1*
X4762480Y8797043D1*
X4778280Y8815470D1*
X4797047Y8831500D1*
X4818093Y8844397D1*
X4840893Y8853843D1*
X4864893Y8859603D1*
X4889500Y8861540D1*
X4914107Y8859603D1*
X4938107Y8853843D1*
X4960907Y8844397D1*
X4981953Y8831500D1*
X5000720Y8815470D1*
X5016480Y8797043D1*
X5032280Y8815470D1*
X5051047Y8831500D1*
X5072093Y8844397D1*
X5094893Y8853843D1*
X5118893Y8859603D1*
X5143500Y8861540D1*
X5168107Y8859603D1*
X5192107Y8853843D1*
X5214907Y8844397D1*
X5235953Y8831500D1*
X5254720Y8815470D1*
X5270480Y8797043D1*
X5286280Y8815470D1*
X5305047Y8831500D1*
X5326093Y8844397D1*
X5348893Y8853843D1*
X5372893Y8859603D1*
X5397500Y8861540D1*
X5422107Y8859603D1*
X5446107Y8853843D1*
X5468907Y8844397D1*
X5489953Y8831500D1*
X5508720Y8815470D1*
X5524480Y8797043D1*
X5540280Y8815470D1*
X5559047Y8831500D1*
X5580093Y8844397D1*
X5602893Y8853843D1*
X5626893Y8859603D1*
X5651500Y8861540D1*
X5676107Y8859603D1*
X5700107Y8853843D1*
X5722907Y8844397D1*
X5743953Y8831500D1*
X5762720Y8815470D1*
X5778480Y8797043D1*
X5794280Y8815470D1*
X5813047Y8831500D1*
X5834093Y8844397D1*
X5856893Y8853843D1*
X5880893Y8859603D1*
X5905500Y8861540D1*
X5930107Y8859603D1*
X5954107Y8853843D1*
X5976907Y8844397D1*
X5997953Y8831500D1*
X6016720Y8815470D1*
X6032750Y8796703D1*
X6045647Y8775657D1*
X6055093Y8752857D1*
X6060853Y8728857D1*
X6062790Y8704250D1*
X6060853Y8679643D1*
X6055093Y8655643D1*
X6045647Y8632843D1*
X6032750Y8611797D1*
X6016720Y8593030D1*
X5997953Y8577000D1*
X5976907Y8564103D1*
X5954107Y8554657D1*
X5930107Y8548897D1*
X5905500Y8546960D1*
X5880893Y8548897D1*
X5856893Y8554657D1*
X5834093Y8564103D1*
X5813047Y8577000D1*
X5794280Y8593030D1*
X5778520Y8611457D1*
X5762720Y8593030D1*
X5743953Y8577000D1*
X5722907Y8564103D1*
X5700107Y8554657D1*
X5676107Y8548897D1*
X5651500Y8546960D1*
X5626893Y8548897D1*
X5602893Y8554657D1*
X5580093Y8564103D1*
X5559047Y8577000D1*
X5540280Y8593030D1*
X5524520Y8611457D1*
X5508720Y8593030D1*
X5489953Y8577000D1*
X5468907Y8564103D1*
X5446107Y8554657D1*
X5422107Y8548897D1*
X5397500Y8546960D1*
X5372893Y8548897D1*
X5348893Y8554657D1*
X5326093Y8564103D1*
X5305047Y8577000D1*
X5286280Y8593030D1*
X5270520Y8611457D1*
X5254720Y8593030D1*
X5235953Y8577000D1*
X5214907Y8564103D1*
X5192107Y8554657D1*
X5168107Y8548897D1*
X5143500Y8546960D1*
X5118893Y8548897D1*
X5094893Y8554657D1*
X5072093Y8564103D1*
X5051047Y8577000D1*
X5032280Y8593030D1*
X5016520Y8611457D1*
X5000720Y8593030D1*
X4981953Y8577000D1*
X4960907Y8564103D1*
X4938107Y8554657D1*
X4914107Y8548897D1*
X4889500Y8546960D1*
X4864893Y8548897D1*
X4840893Y8554657D1*
X4818093Y8564103D1*
X4797047Y8577000D1*
X4778280Y8593030D1*
X4762520Y8611457D1*
X4746720Y8593030D1*
X4727953Y8577000D1*
X4706907Y8564103D1*
X4684107Y8554657D1*
X4660107Y8548897D1*
X4635500Y8546960D1*
X4610893Y8548897D1*
X4586893Y8554657D1*
X4564093Y8564103D1*
X4543047Y8577000D1*
X4524280Y8593030D1*
X4508520Y8611457D1*
X4497470Y8597990D1*
X4484073Y8585007D1*
X4469233Y8573700D1*
X4453160Y8564233D1*
X4436077Y8556733D1*
X4418227Y8551307D1*
X4399863Y8548037D1*
X4381237Y8546960D1*
X4362617Y8548097D1*
X4344260Y8551433D1*
X4326430Y8556917D1*
X4309373Y8564473D1*
X4293330Y8573997D1*
X4278530Y8585350D1*
X4265177Y8598380D1*
X4254507Y8611473D1*
X4238720Y8593030D1*
X4219953Y8577000D1*
X4198907Y8564103D1*
X4176107Y8554657D1*
X4152107Y8548897D1*
X4127500Y8546960D1*
X4102893Y8548897D1*
X4097830Y8549903D1*
X4097790Y7247440D1*
X4104243Y7234347D1*
X4109687Y7217590D1*
X4112443Y7200187D1*
Y7182567D1*
X4109687Y7165163D1*
X4104243Y7148407D1*
X4096243Y7132707D1*
X4085887Y7118450D1*
X4073427Y7105990D1*
X4059170Y7095633D1*
X4043470Y7087633D1*
X4026713Y7082190D1*
X4009310Y7079433D1*
X3991690D1*
X3974287Y7082190D1*
X3957530Y7087633D1*
X3941830Y7095633D1*
X3927573Y7105990D1*
X3915113Y7118450D1*
X3904757Y7132707D1*
X3896757Y7148407D1*
X3891313Y7165163D1*
X3888557Y7182567D1*
Y7200187D1*
X3891313Y7217590D1*
X3896757Y7234347D1*
X3903227Y7247313D1*
X3903210Y8549723D1*
X3885840Y8547443D1*
X3861160D1*
X3836780Y8551307D1*
X3813307Y8558933D1*
X3791317Y8570137D1*
X3771347Y8584647D1*
X3753897Y8602097D1*
X3746520Y8611457D1*
X3735470Y8597990D1*
X3722073Y8585007D1*
X3707233Y8573700D1*
X3691160Y8564233D1*
X3674077Y8556733D1*
X3656227Y8551307D1*
X3637863Y8548037D1*
X3619237Y8546960D1*
X3600617Y8548097D1*
X3582260Y8551433D1*
X3564430Y8556917D1*
X3547373Y8564473D1*
X3531330Y8573997D1*
X3516530Y8585350D1*
X3503177Y8598380D1*
X3492507Y8611473D1*
X3476720Y8593030D1*
X3457953Y8577000D1*
X3436907Y8564103D1*
X3414107Y8554657D1*
X3390107Y8548897D1*
X3365500Y8546960D1*
X3340893Y8548897D1*
X3316893Y8554657D1*
X3294093Y8564103D1*
X3273047Y8577000D1*
X3254280Y8593030D1*
X3238520Y8611457D1*
X3222720Y8593030D1*
X3203953Y8577000D1*
X3182907Y8564103D1*
X3160107Y8554657D1*
X3136107Y8548897D1*
X3111500Y8546960D1*
X3086893Y8548897D1*
X3062893Y8554657D1*
X3040093Y8564103D1*
X3019047Y8577000D1*
X3000280Y8593030D1*
X2984520Y8611457D1*
X2968720Y8593030D1*
X2949953Y8577000D1*
X2928907Y8564103D1*
X2906107Y8554657D1*
X2882107Y8548897D1*
X2857500Y8546960D1*
X2832893Y8548897D1*
X2808893Y8554657D1*
X2786093Y8564103D1*
X2765047Y8577000D1*
X2746280Y8593030D1*
X2730520Y8611457D1*
X2714720Y8593030D1*
X2695953Y8577000D1*
X2674907Y8564103D1*
X2652107Y8554657D1*
X2628107Y8548897D1*
X2603500Y8546960D1*
X2578893Y8548897D1*
X2554893Y8554657D1*
X2532093Y8564103D1*
X2511047Y8577000D1*
X2492280Y8593030D1*
X2476520Y8611457D1*
X2460720Y8593030D1*
X2441953Y8577000D1*
X2420907Y8564103D1*
X2398107Y8554657D1*
X2374107Y8548897D1*
X2349500Y8546960D1*
X2324893Y8548897D1*
X2300893Y8554657D1*
X2278093Y8564103D1*
X2257047Y8577000D1*
X2238280Y8593030D1*
X2222520Y8611457D1*
X2206720Y8593030D1*
X2187953Y8577000D1*
X2177803Y8570220D1*
X2178253Y7013373D1*
X2186640Y6999690D1*
X2192783Y6984860D1*
X2196530Y6969253D1*
X2197790Y6953250D1*
X2196530Y6937247D1*
X2192783Y6921640D1*
X2186640Y6906810D1*
X2178253Y6893127D1*
X2167830Y6880920D1*
X2155623Y6870497D1*
X2141940Y6862110D1*
X2127110Y6855967D1*
X2111503Y6852220D1*
X2095500Y6850960D1*
X2079497Y6852220D1*
X2063890Y6855967D1*
X2049060Y6862110D1*
X2035377Y6870497D1*
X2023170Y6880920D1*
X2012747Y6893127D1*
X2004360Y6906810D1*
X1998217Y6921640D1*
X1994470Y6937247D1*
X1993210Y6953250D1*
X1994470Y6969253D1*
X1998217Y6984860D1*
X2004360Y6999690D1*
X2013193Y7013940D1*
X2013210Y8570267D1*
X1993347Y8584647D1*
X1975897Y8602097D1*
X1968520Y8611457D1*
X1952720Y8593030D1*
X1933953Y8577000D1*
X1923803Y8570220D1*
X1924253Y6997500D1*
X1932640Y6983817D1*
X1938783Y6968987D1*
X1942530Y6953380D1*
X1943790Y6937377D1*
X1942530Y6921373D1*
X1938783Y6905767D1*
X1932640Y6890937D1*
X1924253Y6877253D1*
X1913830Y6865047D1*
X1901623Y6854623D1*
X1887940Y6846237D1*
X1873110Y6840093D1*
X1857503Y6836347D1*
X1841500Y6835087D1*
X1825497Y6836347D1*
X1809890Y6840093D1*
X1795060Y6846237D1*
X1781377Y6854623D1*
X1769170Y6865047D1*
X1758747Y6877253D1*
X1750360Y6890937D1*
X1744217Y6905767D1*
X1740470Y6921373D1*
X1739210Y6937377D1*
X1740470Y6953380D1*
X1744217Y6968987D1*
X1750360Y6983817D1*
X1759193Y6998067D1*
X1759210Y8570253D1*
X1739347Y8584647D1*
X1721897Y8602097D1*
X1714520Y8611457D1*
X1698720Y8593030D1*
X1679953Y8577000D1*
X1669803Y8570220D1*
X1670253Y6997500D1*
X1678640Y6983817D1*
X1684783Y6968987D1*
X1688530Y6953380D1*
X1689790Y6937377D1*
X1688530Y6921373D1*
X1684783Y6905767D1*
X1678640Y6890937D1*
X1670253Y6877253D1*
X1659830Y6865047D1*
X1647623Y6854623D1*
X1633940Y6846237D1*
X1619110Y6840093D1*
X1603503Y6836347D1*
X1587500Y6835087D1*
X1571497Y6836347D1*
X1555890Y6840093D1*
X1541060Y6846237D1*
X1527377Y6854623D1*
X1515170Y6865047D1*
X1504747Y6877253D1*
X1496360Y6890937D1*
X1490217Y6905767D1*
X1486470Y6921373D1*
X1485210Y6937377D1*
X1486470Y6953380D1*
X1490217Y6968987D1*
X1496360Y6983817D1*
X1505193Y6998067D1*
X1505210Y8570253D1*
X1485347Y8584647D1*
X1467897Y8602097D1*
X1460520Y8611457D1*
X1444720Y8593030D1*
X1425953Y8577000D1*
X1404907Y8564103D1*
X1382107Y8554657D1*
X1358107Y8548897D1*
X1333500Y8546960D1*
X1308893Y8548897D1*
X1284893Y8554657D1*
X1262093Y8564103D1*
X1241047Y8577000D1*
X1222280Y8593030D1*
X1206520Y8611457D1*
X1190720Y8593030D1*
X1171953Y8577000D1*
X1150907Y8564103D1*
X1128107Y8554657D1*
X1104107Y8548897D1*
X1079500Y8546960D1*
X1054893Y8548897D1*
X1030893Y8554657D1*
X1008093Y8564103D1*
X987047Y8577000D1*
X968280Y8593030D1*
X952520Y8611457D1*
X936720Y8593030D1*
X917953Y8577000D1*
X896907Y8564103D1*
X874107Y8554657D1*
X850107Y8548897D1*
X825500Y8546960D1*
X800893Y8548897D1*
X776893Y8554657D1*
X754093Y8564103D1*
X733047Y8577000D1*
X714280Y8593030D1*
X698520Y8611457D1*
X682720Y8593030D1*
X663953Y8577000D1*
X653803Y8570220D1*
X653790Y7670017D1*
X3523323Y4800070D1*
X3530913Y4789623D1*
X3536777Y4778117D1*
X3540767Y4765837D1*
X3542787Y4753083D1*
X3543040Y4583293D1*
Y3671560D1*
X3553067Y3681410D1*
X3566053Y3690843D1*
X3580357Y3698130D1*
X3595620Y3703090D1*
X3611473Y3705600D1*
X3627527D1*
X3643380Y3703090D1*
X3658643Y3698130D1*
X3672947Y3690843D1*
X3685933Y3681410D1*
X3696920Y3670450D1*
X3804180Y3777323D1*
X3814627Y3784913D1*
X3826133Y3790777D1*
X3838413Y3794767D1*
X3851167Y3796787D1*
X3970343Y3797060D1*
X3981693Y3808410D1*
X3994680Y3817843D1*
X4008983Y3825130D1*
X4024247Y3830090D1*
X4040100Y3832600D1*
X4056153D1*
X4072007Y3830090D1*
X4087270Y3825130D1*
X4101573Y3817843D1*
X4114560Y3808410D1*
X4125910Y3797060D1*
X4135343Y3784073D1*
X4142630Y3769770D1*
X4147277Y3755623D1*
X4309877Y3918253D1*
X4013000Y3917747D1*
X3999317Y3909360D1*
X3984487Y3903217D1*
X3968880Y3899470D1*
X3952877Y3898210D1*
X3936873Y3899470D1*
X3921267Y3903217D1*
X3906437Y3909360D1*
X3892753Y3917747D1*
X3880547Y3928170D1*
X3870123Y3940377D1*
X3861737Y3954060D1*
X3855593Y3968890D1*
X3851847Y3984497D1*
X3850587Y4000500D1*
X3851847Y4016503D1*
X3855593Y4032110D1*
X3861737Y4046940D1*
X3870123Y4060623D1*
X3880547Y4072830D1*
X3892753Y4083253D1*
X3906437Y4091640D1*
X3921267Y4097783D1*
X3936873Y4101530D1*
X3952877Y4102790D1*
X3968880Y4101530D1*
X3984487Y4097783D1*
X3999317Y4091640D1*
X4013567Y4082807D1*
X5331640Y4082790D1*
X5442197Y4193323D1*
X5441747Y4210250D1*
X5433360Y4223933D1*
X5427217Y4238763D1*
X5423470Y4254370D1*
X5422210Y4270373D1*
X5423470Y4286377D1*
X5427217Y4301983D1*
X5433360Y4316813D1*
X5441747Y4330497D1*
X5452170Y4342703D1*
X5464377Y4353127D1*
X5478060Y4361513D1*
X5492890Y4367657D1*
X5508497Y4371403D1*
X5524500Y4372663D1*
X5540503Y4371403D1*
X5556110Y4367657D1*
X5570940Y4361513D1*
X5584623Y4353127D1*
X5596830Y4342703D1*
X5607253Y4330497D1*
X5615640Y4316813D1*
X5621783Y4301983D1*
X5625530Y4286377D1*
X5626790Y4270373D1*
X5625530Y4254370D1*
X5621783Y4238763D1*
X5615640Y4223933D1*
X5606807Y4209683D1*
X5606537Y4152793D1*
X5604517Y4140040D1*
X5600527Y4127760D1*
X5594663Y4116253D1*
X5587073Y4105807D1*
X5500900Y4019277D1*
X5599207Y4019037D1*
X5611960Y4017017D1*
X5624240Y4013027D1*
X5635747Y4007163D1*
X5646193Y3999573D1*
X5766433Y3879693D1*
X6198310Y3447817D1*
X6201917Y3469300D1*
X6209303Y3492030D1*
X6220150Y3513320D1*
X6234197Y3532653D1*
X6251097Y3549553D1*
X6270430Y3563600D1*
X6291720Y3574447D1*
X6314450Y3581833D1*
X6338050Y3585570D1*
X6361950D1*
X6385550Y3581833D1*
X6402277Y3576663D1*
X6402250Y9502237D1*
X97817Y9502250D1*
X97750Y97763D1*
X1071793Y97750D1*
X1031743Y137097D1*
X1016137Y140843D1*
X1001307Y146987D1*
X987623Y155373D1*
X975417Y165797D1*
X964993Y178003D1*
X956607Y191687D1*
X950463Y206517D1*
X946717Y222123D1*
X945457Y238127D1*
X946717Y254130D1*
X950463Y269737D1*
X956607Y284567D1*
X964993Y298250D1*
X975417Y310457D1*
X987623Y320880D1*
X1001307Y329267D1*
X1016137Y335410D1*
X1031743Y339157D1*
X1047747Y340417D1*
X1063750Y339157D1*
X1079357Y335410D1*
X1094187Y329267D1*
X1107870Y320880D1*
X1120077Y310457D1*
X1130500Y298250D1*
X1138887Y284567D1*
X1145030Y269737D1*
X1147560Y260253D1*
X1155940Y268283D1*
X1168927Y277717D1*
X1183230Y285003D1*
X1198493Y289963D1*
X1214347Y292473D1*
X1230400D1*
X1246253Y289963D1*
X1257780Y286383D1*
X1249787Y306167D1*
X1244117Y329787D1*
X1242210Y354000D1*
X1244117Y378213D1*
X1249787Y401833D1*
X1259080Y424273D1*
X1271773Y444983D1*
X1287547Y463453D1*
X1306017Y479227D1*
X1308583Y480943D1*
X1296473Y490297D1*
X1279297Y507473D1*
X1265020Y527123D1*
X1253993Y548763D1*
X1246487Y571863D1*
X1242687Y595857D1*
Y620143D1*
X1246487Y644137D1*
X1253993Y667237D1*
X1265020Y688877D1*
X1279297Y708527D1*
X1296473Y725703D1*
X1308583Y734943D1*
X1296473Y744297D1*
X1279297Y761473D1*
X1265020Y781123D1*
X1253993Y802763D1*
X1246487Y825863D1*
X1242687Y849857D1*
Y874143D1*
X1246487Y898137D1*
X1253993Y921237D1*
X1265020Y942877D1*
X1279297Y962527D1*
X1296473Y979703D1*
X1308583Y988943D1*
X1296473Y998297D1*
X1279297Y1015473D1*
X1265020Y1035123D1*
X1253993Y1056763D1*
X1246487Y1079863D1*
X1242687Y1103857D1*
Y1128143D1*
X1246487Y1152137D1*
X1253993Y1175237D1*
X1265020Y1196877D1*
X1279297Y1216527D1*
X1296473Y1233703D1*
X1308583Y1242943D1*
X1296473Y1252297D1*
X1279297Y1269473D1*
X1265020Y1289123D1*
X1253993Y1310763D1*
X1246487Y1333863D1*
X1242687Y1357857D1*
Y1382143D1*
X1246487Y1406137D1*
X1253993Y1429237D1*
X1265020Y1450877D1*
X1279297Y1470527D1*
X1296473Y1487703D1*
X1308583Y1496943D1*
X1296473Y1506297D1*
X1279297Y1523473D1*
X1265020Y1543123D1*
X1253993Y1564763D1*
X1246487Y1587863D1*
X1242687Y1611857D1*
Y1636143D1*
X1246487Y1660137D1*
X1253993Y1683237D1*
X1265020Y1704877D1*
X1279297Y1724527D1*
X1296473Y1741703D1*
X1308583Y1750943D1*
X1296473Y1760297D1*
X1279297Y1777473D1*
X1265020Y1797123D1*
X1253993Y1818763D1*
X1246487Y1841863D1*
X1242687Y1865857D1*
Y1890143D1*
X1246487Y1914137D1*
X1253993Y1937237D1*
X1265020Y1958877D1*
X1279297Y1978527D1*
X1296473Y1995703D1*
X1308583Y2004943D1*
X1296473Y2014297D1*
X1279297Y2031473D1*
X1265020Y2051123D1*
X1253993Y2072763D1*
X1246487Y2095863D1*
X1242687Y2119857D1*
Y2144143D1*
X1246487Y2168137D1*
X1253993Y2191237D1*
X1265020Y2212877D1*
X1279297Y2232527D1*
X1296473Y2249703D1*
X1308583Y2258943D1*
X1296473Y2268297D1*
X1279297Y2285473D1*
X1265020Y2305123D1*
X1253993Y2326763D1*
X1246487Y2349863D1*
X1242687Y2373857D1*
Y2398143D1*
X1246487Y2422137D1*
X1253993Y2445237D1*
X1265020Y2466877D1*
X1279297Y2486527D1*
X1296473Y2503703D1*
X1308583Y2512943D1*
X1296473Y2522297D1*
X1279297Y2539473D1*
X1265020Y2559123D1*
X1253993Y2580763D1*
X1246487Y2603863D1*
X1242687Y2627857D1*
Y2652143D1*
X1246487Y2676137D1*
X1253993Y2699237D1*
X1265020Y2720877D1*
X1278267Y2739223D1*
X1242210Y2739210D1*
Y3048790D1*
X1265543D1*
X1805720Y349333D2*
X1804033Y330753D1*
X1800127Y312513D1*
X1794053Y294873D1*
X1785900Y278093D1*
X1782750Y272780D1*
X1944523Y272790D1*
X1820763Y396487D1*
X1799860Y396460D1*
X1803737Y379130D1*
X1805650Y360573D1*
X1805720Y349333D1*
X5234293Y3048790D2*
X5520540D1*
Y3012787D1*
X5538873Y3025980D1*
X5560513Y3037007D1*
X5583613Y3044513D1*
X5607607Y3048313D1*
X5631893D1*
X5655887Y3044513D1*
X5678987Y3037007D1*
X5700627Y3025980D1*
X5720277Y3011703D1*
X5737453Y2994527D1*
X5751730Y2974877D1*
X5762757Y2953237D1*
X5770263Y2930137D1*
X5774063Y2906143D1*
Y2881857D1*
X5770263Y2857863D1*
X5762757Y2834763D1*
X5751730Y2813123D1*
X5737453Y2793473D1*
X5720277Y2776297D1*
X5708167Y2767057D1*
X5720277Y2757703D1*
X5737453Y2740527D1*
X5751730Y2720877D1*
X5762757Y2699237D1*
X5770263Y2676137D1*
X5774063Y2652143D1*
Y2627857D1*
X5770263Y2603863D1*
X5762757Y2580763D1*
X5751730Y2559123D1*
X5737453Y2539473D1*
X5720277Y2522297D1*
X5708167Y2513057D1*
X5720277Y2503703D1*
X5737453Y2486527D1*
X5751730Y2466877D1*
X5762757Y2445237D1*
X5770263Y2422137D1*
X5774063Y2398143D1*
Y2373857D1*
X5770263Y2349863D1*
X5762757Y2326763D1*
X5751730Y2305123D1*
X5737453Y2285473D1*
X5720277Y2268297D1*
X5708167Y2259057D1*
X5720277Y2249703D1*
X5737453Y2232527D1*
X5751730Y2212877D1*
X5762757Y2191237D1*
X5770263Y2168137D1*
X5774063Y2144143D1*
Y2119857D1*
X5770263Y2095863D1*
X5762757Y2072763D1*
X5751730Y2051123D1*
X5737453Y2031473D1*
X5720277Y2014297D1*
X5708167Y2005057D1*
X5720277Y1995703D1*
X5737453Y1978527D1*
X5751730Y1958877D1*
X5762757Y1937237D1*
X5770263Y1914137D1*
X5774063Y1890143D1*
Y1865857D1*
X5770263Y1841863D1*
X5762757Y1818763D1*
X5751730Y1797123D1*
X5737453Y1777473D1*
X5720277Y1760297D1*
X5708167Y1751057D1*
X5720277Y1741703D1*
X5737453Y1724527D1*
X5751730Y1704877D1*
X5762757Y1683237D1*
X5770263Y1660137D1*
X5774063Y1636143D1*
Y1611857D1*
X5770263Y1587863D1*
X5762757Y1564763D1*
X5751730Y1543123D1*
X5737453Y1523473D1*
X5720277Y1506297D1*
X5708167Y1497057D1*
X5720277Y1487703D1*
X5737453Y1470527D1*
X5751730Y1450877D1*
X5762757Y1429237D1*
X5770263Y1406137D1*
X5774063Y1382143D1*
Y1357857D1*
X5770263Y1333863D1*
X5762757Y1310763D1*
X5751730Y1289123D1*
X5737453Y1269473D1*
X5720277Y1252297D1*
X5708167Y1243057D1*
X5720277Y1233703D1*
X5737453Y1216527D1*
X5751730Y1196877D1*
X5762757Y1175237D1*
X5770263Y1152137D1*
X5774063Y1128143D1*
Y1103857D1*
X5770263Y1079863D1*
X5762757Y1056763D1*
X5751730Y1035123D1*
X5737453Y1015473D1*
X5720277Y998297D1*
X5708167Y989057D1*
X5720277Y979703D1*
X5737453Y962527D1*
X5751730Y942877D1*
X5762757Y921237D1*
X5770263Y898137D1*
X5774063Y874143D1*
Y849857D1*
X5770263Y825863D1*
X5762757Y802763D1*
X5751730Y781123D1*
X5737453Y761473D1*
X5720277Y744297D1*
X5708167Y735057D1*
X5720277Y725703D1*
X5737453Y708527D1*
X5751730Y688877D1*
X5762757Y667237D1*
X5770263Y644137D1*
X5774063Y620143D1*
Y595857D1*
X5770263Y571863D1*
X5762757Y548763D1*
X5751730Y527123D1*
X5737453Y507473D1*
X5720277Y490297D1*
X5708167Y481057D1*
X5720277Y471703D1*
X5737453Y454527D1*
X5751730Y434877D1*
X5762757Y413237D1*
X5770263Y390137D1*
X5774063Y366143D1*
Y341857D1*
X5770263Y317863D1*
X5762757Y294763D1*
X5751730Y273123D1*
X5737453Y253473D1*
X5720277Y236297D1*
X5700627Y222020D1*
X5678987Y210993D1*
X5655887Y203487D1*
X5631893Y199687D1*
X5607607D1*
X5583613Y203487D1*
X5560513Y210993D1*
X5538873Y222020D1*
X5519223Y236297D1*
X5502047Y253473D1*
X5492807Y265583D1*
X5483453Y253473D1*
X5466277Y236297D1*
X5446627Y222020D1*
X5424987Y210993D1*
X5401887Y203487D1*
X5377893Y199687D1*
X5353607D1*
X5329613Y203487D1*
X5306513Y210993D1*
X5284873Y222020D1*
X5265223Y236297D1*
X5248047Y253473D1*
X5233770Y273123D1*
X5222743Y294763D1*
X5215237Y317863D1*
X5211437Y341857D1*
Y366143D1*
X5215237Y390137D1*
X5222743Y413237D1*
X5233770Y434877D1*
X5248047Y454527D1*
X5265223Y471703D1*
X5277333Y480943D1*
X5265223Y490297D1*
X5248047Y507473D1*
X5233770Y527123D1*
X5222743Y548763D1*
X5215237Y571863D1*
X5211437Y595857D1*
Y620143D1*
X5215237Y644137D1*
X5222743Y667237D1*
X5233770Y688877D1*
X5248047Y708527D1*
X5265223Y725703D1*
X5277333Y734943D1*
X5265223Y744297D1*
X5248047Y761473D1*
X5233770Y781123D1*
X5222743Y802763D1*
X5215237Y825863D1*
X5211437Y849857D1*
Y874143D1*
X5215237Y898137D1*
X5222743Y921237D1*
X5233770Y942877D1*
X5248047Y962527D1*
X5265223Y979703D1*
X5277333Y988943D1*
X5265223Y998297D1*
X5248047Y1015473D1*
X5233770Y1035123D1*
X5222743Y1056763D1*
X5215237Y1079863D1*
X5211437Y1103857D1*
Y1128143D1*
X5215237Y1152137D1*
X5222743Y1175237D1*
X5233770Y1196877D1*
X5248047Y1216527D1*
X5265223Y1233703D1*
X5277333Y1242943D1*
X5265223Y1252297D1*
X5248047Y1269473D1*
X5233770Y1289123D1*
X5222743Y1310763D1*
X5215237Y1333863D1*
X5211437Y1357857D1*
Y1382143D1*
X5215237Y1406137D1*
X5222743Y1429237D1*
X5233770Y1450877D1*
X5248047Y1470527D1*
X5265223Y1487703D1*
X5277333Y1496943D1*
X5265223Y1506297D1*
X5248047Y1523473D1*
X5233770Y1543123D1*
X5222743Y1564763D1*
X5215237Y1587863D1*
X5211437Y1611857D1*
Y1636143D1*
X5215237Y1660137D1*
X5222743Y1683237D1*
X5233770Y1704877D1*
X5248047Y1724527D1*
X5265223Y1741703D1*
X5277333Y1750943D1*
X5265223Y1760297D1*
X5248047Y1777473D1*
X5233770Y1797123D1*
X5222743Y1818763D1*
X5215237Y1841863D1*
X5211437Y1865857D1*
Y1890143D1*
X5215237Y1914137D1*
X5222743Y1937237D1*
X5233770Y1958877D1*
X5248047Y1978527D1*
X5265223Y1995703D1*
X5277333Y2004943D1*
X5265223Y2014297D1*
X5248047Y2031473D1*
X5233770Y2051123D1*
X5222743Y2072763D1*
X5215237Y2095863D1*
X5211437Y2119857D1*
Y2144143D1*
X5215237Y2168137D1*
X5222743Y2191237D1*
X5233770Y2212877D1*
X5248047Y2232527D1*
X5265223Y2249703D1*
X5277333Y2258943D1*
X5265223Y2268297D1*
X5248047Y2285473D1*
X5233770Y2305123D1*
X5222743Y2326763D1*
X5215237Y2349863D1*
X5211437Y2373857D1*
Y2398143D1*
X5215237Y2422137D1*
X5222743Y2445237D1*
X5233770Y2466877D1*
X5248047Y2486527D1*
X5265223Y2503703D1*
X5277333Y2512943D1*
X5265223Y2522297D1*
X5248047Y2539473D1*
X5233770Y2559123D1*
X5222743Y2580763D1*
X5215237Y2603863D1*
X5211437Y2627857D1*
Y2652143D1*
X5215237Y2676137D1*
X5222743Y2699237D1*
X5233770Y2720877D1*
X5247017Y2739223D1*
X5210960Y2739210D1*
Y3048790D1*
X5234293D1*
X420793Y1226540D2*
X451693D1*
X439137Y1237637D1*
X424633Y1254613D1*
X412970Y1273653D1*
X404423Y1294280D1*
X399213Y1315990D1*
X397460Y1338250D1*
X399213Y1360510D1*
X404423Y1382220D1*
X412970Y1402847D1*
X424633Y1421887D1*
X439137Y1438863D1*
X456113Y1453367D1*
X475587Y1465233D1*
X456113Y1477133D1*
X439137Y1491637D1*
X424633Y1508613D1*
X412970Y1527653D1*
X404423Y1548280D1*
X399213Y1569990D1*
X397460Y1592250D1*
X399213Y1614510D1*
X404423Y1636220D1*
X412970Y1656847D1*
X424633Y1675887D1*
X439137Y1692863D1*
X456113Y1707367D1*
X475587Y1719233D1*
X460137Y1728317D1*
X445393Y1739743D1*
X432273Y1753003D1*
X421000Y1767863D1*
X411763Y1784070D1*
X404730Y1801347D1*
X400017Y1819393D1*
X397703Y1837903D1*
X397833Y1856557D1*
X400400Y1875033D1*
X405363Y1893013D1*
X412637Y1910190D1*
X422093Y1926270D1*
X433570Y1940973D1*
X446873Y1954050D1*
X461773Y1965270D1*
X478013Y1974450D1*
X495313Y1981423D1*
X513377Y1986073D1*
X531893Y1988323D1*
X550547Y1988130D1*
X569013Y1985497D1*
X586977Y1980473D1*
X604130Y1973143D1*
X620177Y1963630D1*
X634840Y1952100D1*
X647870Y1938753D1*
X659040Y1923813D1*
X668160Y1907543D1*
X675077Y1890220D1*
X679663Y1872140D1*
X681850Y1853613D1*
X681733Y1836923D1*
X679293Y1818430D1*
X674457Y1800417D1*
X667303Y1783187D1*
X657957Y1767043D1*
X646580Y1752263D1*
X633367Y1739097D1*
X618547Y1727770D1*
X603913Y1719267D1*
X623387Y1707367D1*
X640363Y1692863D1*
X654867Y1675887D1*
X666530Y1656847D1*
X675077Y1636220D1*
X680287Y1614510D1*
X682040Y1592250D1*
X680287Y1569990D1*
X675077Y1548280D1*
X666530Y1527653D1*
X654867Y1508613D1*
X640363Y1491637D1*
X623387Y1477133D1*
X603913Y1465267D1*
X623387Y1453367D1*
X640363Y1438863D1*
X654867Y1421887D1*
X666530Y1402847D1*
X675077Y1382220D1*
X680287Y1360510D1*
X682040Y1338250D1*
X680287Y1315990D1*
X675077Y1294280D1*
X666530Y1273653D1*
X654867Y1254613D1*
X640363Y1237637D1*
X627740Y1226567D1*
X682040Y1226540D1*
Y941960D1*
X397460D1*
Y1226540D1*
X420793D1*
X3793537Y2291867D2*
X3809860Y2288033D1*
X3824690Y2281890D1*
X3838373Y2273503D1*
X3852093Y2261443D1*
X3861003Y2268753D1*
X3874687Y2277140D1*
X3889517Y2283283D1*
X3905123Y2287030D1*
X3921127Y2288290D1*
X3937130Y2287030D1*
X3952737Y2283283D1*
X3967567Y2277140D1*
X3981250Y2268753D1*
X3993457Y2258330D1*
X4003880Y2246123D1*
X4012267Y2232440D1*
X4018410Y2217610D1*
X4022157Y2202003D1*
X4023417Y2186000D1*
X4022157Y2169997D1*
X4018410Y2154390D1*
X4012267Y2139560D1*
X4003433Y2125310D1*
X4003417Y2066690D1*
X4086330Y2066413D1*
X4099083Y2064393D1*
X4111363Y2060403D1*
X4122870Y2054540D1*
X4133317Y2046950D1*
X4138080Y2042547D1*
X4140460Y2061833D1*
X4140713Y2149583D1*
X4142733Y2162337D1*
X4146723Y2174617D1*
X4152587Y2186123D1*
X4160177Y2196570D1*
X4182027Y2218780D1*
X4183280Y2232130D1*
X4187393Y2249263D1*
X4194137Y2265543D1*
X4203343Y2280567D1*
X4214787Y2293963D1*
X4228183Y2305407D1*
X4243207Y2314613D1*
X4259487Y2321357D1*
X4276620Y2325470D1*
X4294187Y2326853D1*
X4311753Y2325470D1*
X4315097Y2324807D1*
X4315087Y3395010D1*
X4289110Y3420897D1*
X4288913Y2517670D1*
X4286893Y2504917D1*
X4282903Y2492637D1*
X4277040Y2481130D1*
X4269450Y2470683D1*
X4244507Y2445380D1*
X4240660Y2429017D1*
X4234517Y2414187D1*
X4226130Y2400503D1*
X4215707Y2388297D1*
X4203500Y2377873D1*
X4189817Y2369487D1*
X4174987Y2363343D1*
X4159380Y2359597D1*
X4143377Y2358337D1*
X4127373Y2359597D1*
X4111767Y2363343D1*
X4096937Y2369487D1*
X4083253Y2377873D1*
X4071047Y2388297D1*
X4060623Y2400503D1*
X4052237Y2414187D1*
X4046093Y2429017D1*
X4042347Y2444623D1*
X4041087Y2460627D1*
X4042347Y2476630D1*
X4046093Y2492237D1*
X4052237Y2507067D1*
X4060623Y2520750D1*
X4071047Y2532957D1*
X4083253Y2543380D1*
X4096937Y2551767D1*
X4111767Y2557910D1*
X4124573Y2561100D1*
X4124587Y2642890D1*
X4085657Y2603373D1*
X4081910Y2587767D1*
X4075767Y2572937D1*
X4067380Y2559253D1*
X4056957Y2547047D1*
X4044750Y2536623D1*
X4031067Y2528237D1*
X4016237Y2522093D1*
X4000630Y2518347D1*
X3984627Y2517087D1*
X3968623Y2518347D1*
X3953017Y2522093D1*
X3938187Y2528237D1*
X3924503Y2536623D1*
X3912297Y2547047D1*
X3901873Y2559253D1*
X3893487Y2572937D1*
X3887343Y2587767D1*
X3883597Y2603373D1*
X3882337Y2619377D1*
X3883597Y2635380D1*
X3887343Y2650987D1*
X3893487Y2665817D1*
X3901873Y2679500D1*
X3912297Y2691707D1*
X3924503Y2702130D1*
X3938187Y2710517D1*
X3953017Y2716660D1*
X3969340Y2720493D1*
X4029367Y2780490D1*
X4028870Y3511753D1*
X4020483Y3525437D1*
X4014340Y3540267D1*
X4010593Y3555873D1*
X4009333Y3571877D1*
X4010593Y3587880D1*
X4014340Y3603487D1*
X4020483Y3618317D1*
X4027770Y3630357D1*
X4019627Y3632467D1*
X3891630Y3632460D1*
X3781177Y3521927D1*
X3781167Y2304297D1*
X3793480Y2291897D1*
X698480Y4801457D2*
X682720Y4783030D1*
X663953Y4767000D1*
X642907Y4754103D1*
X620107Y4744657D1*
X596107Y4738897D1*
X571500Y4736960D1*
X546893Y4738897D1*
X522893Y4744657D1*
X500093Y4754103D1*
X479047Y4767000D1*
X460280Y4783030D1*
X444250Y4801797D1*
X431353Y4822843D1*
X421907Y4845643D1*
X416147Y4869643D1*
X414210Y4894250D1*
X416147Y4918857D1*
X421907Y4942857D1*
X431353Y4965657D1*
X444250Y4986703D1*
X460280Y5005470D1*
X479047Y5021500D1*
X500093Y5034397D1*
X522893Y5043843D1*
X546893Y5049603D1*
X571500Y5051540D1*
X596107Y5049603D1*
X620107Y5043843D1*
X642907Y5034397D1*
X663953Y5021500D1*
X682720Y5005470D1*
X698480Y4987043D1*
X714280Y5005470D1*
X733047Y5021500D1*
X754093Y5034397D1*
X776893Y5043843D1*
X800893Y5049603D1*
X825500Y5051540D1*
X850107Y5049603D1*
X874107Y5043843D1*
X896907Y5034397D1*
X917953Y5021500D1*
X936720Y5005470D1*
X952480Y4987043D1*
X968280Y5005470D1*
X987047Y5021500D1*
X1008093Y5034397D1*
X1030893Y5043843D1*
X1054893Y5049603D1*
X1079500Y5051540D1*
X1104107Y5049603D1*
X1128107Y5043843D1*
X1150907Y5034397D1*
X1171953Y5021500D1*
X1190720Y5005470D1*
X1206750Y4986703D1*
X1219647Y4965657D1*
X1229093Y4942857D1*
X1234853Y4918857D1*
X1236790Y4894250D1*
X1234853Y4869643D1*
X1229093Y4845643D1*
X1219647Y4822843D1*
X1206750Y4801797D1*
X1190720Y4783030D1*
X1171953Y4767000D1*
X1150907Y4754103D1*
X1128107Y4744657D1*
X1104107Y4738897D1*
X1079500Y4736960D1*
X1054893Y4738897D1*
X1030893Y4744657D1*
X1008093Y4754103D1*
X987047Y4767000D1*
X968280Y4783030D1*
X952520Y4801457D1*
X936720Y4783030D1*
X917953Y4767000D1*
X896907Y4754103D1*
X874107Y4744657D1*
X850107Y4738897D1*
X825500Y4736960D1*
X800893Y4738897D1*
X776893Y4744657D1*
X754093Y4754103D1*
X733047Y4767000D1*
X714280Y4783030D1*
X698520Y4801457D1*
X5524480D2*
X5508720Y4783030D1*
X5489953Y4767000D1*
X5468907Y4754103D1*
X5446107Y4744657D1*
X5422107Y4738897D1*
X5397500Y4736960D1*
X5372893Y4738897D1*
X5348893Y4744657D1*
X5326093Y4754103D1*
X5305047Y4767000D1*
X5286280Y4783030D1*
X5270250Y4801797D1*
X5257353Y4822843D1*
X5247907Y4845643D1*
X5242147Y4869643D1*
X5240210Y4894250D1*
X5242147Y4918857D1*
X5247907Y4942857D1*
X5257353Y4965657D1*
X5270250Y4986703D1*
X5286280Y5005470D1*
X5305047Y5021500D1*
X5326093Y5034397D1*
X5348893Y5043843D1*
X5372893Y5049603D1*
X5397500Y5051540D1*
X5422107Y5049603D1*
X5446107Y5043843D1*
X5468907Y5034397D1*
X5489953Y5021500D1*
X5508720Y5005470D1*
X5524480Y4987043D1*
X5540280Y5005470D1*
X5559047Y5021500D1*
X5580093Y5034397D1*
X5602893Y5043843D1*
X5626893Y5049603D1*
X5651500Y5051540D1*
X5676107Y5049603D1*
X5700107Y5043843D1*
X5722907Y5034397D1*
X5743953Y5021500D1*
X5762720Y5005470D1*
X5778480Y4987043D1*
X5794280Y5005470D1*
X5813047Y5021500D1*
X5834093Y5034397D1*
X5856893Y5043843D1*
X5880893Y5049603D1*
X5905500Y5051540D1*
X5930107Y5049603D1*
X5954107Y5043843D1*
X5976907Y5034397D1*
X5997953Y5021500D1*
X6016720Y5005470D1*
X6032750Y4986703D1*
X6045647Y4965657D1*
X6055093Y4942857D1*
X6060853Y4918857D1*
X6062790Y4894250D1*
X6060853Y4869643D1*
X6055093Y4845643D1*
X6045647Y4822843D1*
X6032750Y4801797D1*
X6016720Y4783030D1*
X5997953Y4767000D1*
X5976907Y4754103D1*
X5954107Y4744657D1*
X5930107Y4738897D1*
X5905500Y4736960D1*
X5880893Y4738897D1*
X5856893Y4744657D1*
X5834093Y4754103D1*
X5813047Y4767000D1*
X5794280Y4783030D1*
X5778520Y4801457D1*
X5762720Y4783030D1*
X5743953Y4767000D1*
X5722907Y4754103D1*
X5700107Y4744657D1*
X5676107Y4738897D1*
X5651500Y4736960D1*
X5626893Y4738897D1*
X5602893Y4744657D1*
X5580093Y4754103D1*
X5559047Y4767000D1*
X5540280Y4783030D1*
X5524520Y4801457D1*
X1680710Y3977180D2*
Y4912883D1*
X1674257Y4925907D1*
X1668813Y4942663D1*
X1666057Y4960067D1*
Y4977687D1*
X1668813Y4995090D1*
X1674257Y5011847D1*
X1682257Y5027547D1*
X1692613Y5041803D1*
X1705073Y5054263D1*
X1719330Y5064620D1*
X1735030Y5072620D1*
X1751787Y5078063D1*
X1769190Y5080820D1*
X1786810D1*
X1804213Y5078063D1*
X1820970Y5072620D1*
X1836670Y5064620D1*
X1850927Y5054263D1*
X1863387Y5041803D1*
X1873743Y5027547D1*
X1881743Y5011847D1*
X1887187Y4995090D1*
X1889943Y4977687D1*
Y4960067D1*
X1887187Y4942663D1*
X1881743Y4925907D1*
X1875273Y4912940D1*
X1875290Y3977120D1*
X1881743Y3964097D1*
X1887187Y3947340D1*
X1889943Y3929937D1*
Y3912317D1*
X1887187Y3894913D1*
X1881743Y3878157D1*
X1873743Y3862457D1*
X1863387Y3848200D1*
X1850927Y3835740D1*
X1836670Y3825383D1*
X1820970Y3817383D1*
X1804213Y3811940D1*
X1786810Y3809183D1*
X1769190D1*
X1751787Y3811940D1*
X1735030Y3817383D1*
X1719330Y3825383D1*
X1705073Y3835740D1*
X1692613Y3848200D1*
X1682257Y3862457D1*
X1674257Y3878157D1*
X1668813Y3894913D1*
X1666057Y3912317D1*
Y3929937D1*
X1668813Y3947340D1*
X1674257Y3964097D1*
X1680727Y3977063D1*
X2651913Y1288787D2*
X2646323Y1298397D1*
X2639580Y1314677D1*
X2635467Y1331810D1*
X2634083Y1349377D1*
X2635467Y1366943D1*
X2639580Y1384077D1*
X2646323Y1400357D1*
X2649100Y1405313D1*
X2642630Y1392347D1*
X2637187Y1375590D1*
X2634430Y1358187D1*
Y1340567D1*
X2637187Y1323163D1*
X2642630Y1306407D1*
X2650630Y1290707D1*
X2651913Y1288787D1*
X2843647Y1405313D2*
X2850117Y1392347D1*
X2855560Y1375590D1*
X2858363Y1357050D1*
X2855560Y1375590D1*
X2850117Y1392347D1*
X2843647Y1405313D1*
X1707043Y3262337D2*
X1036300D1*
X556113Y2782167D1*
X553687Y2767787D1*
X548243Y2751030D1*
X540243Y2735330D1*
X529887Y2721073D1*
X517427Y2708613D1*
X503170Y2698257D1*
X487470Y2690257D1*
X470713Y2684813D1*
X453310Y2682057D1*
X435690D1*
X418287Y2684813D1*
X401530Y2690257D1*
X385830Y2698257D1*
X371573Y2708613D1*
X359113Y2721073D1*
X348757Y2735330D1*
X340757Y2751030D1*
X335313Y2767787D1*
X332557Y2785190D1*
Y2802810D1*
X335313Y2820213D1*
X340757Y2836970D1*
X348757Y2852670D1*
X359113Y2866927D1*
X371573Y2879387D1*
X385830Y2889743D1*
X401530Y2897743D1*
X418287Y2903187D1*
X432647Y2905583D1*
X943437Y3416003D1*
X954517Y3424053D1*
X966723Y3430273D1*
X979750Y3434507D1*
X993277Y3436647D1*
X1140127Y3436917D1*
X1684177D1*
X1687083Y3447827D1*
X1693827Y3464107D1*
X1703033Y3479130D1*
X1714477Y3492527D1*
X1727873Y3503970D1*
X1742897Y3513177D1*
X1759177Y3519920D1*
X1776310Y3524033D1*
X1793877Y3525417D1*
X1811443Y3524033D1*
X1828577Y3519920D1*
X1844857Y3513177D1*
X1859880Y3503970D1*
X1873277Y3492527D1*
X1884720Y3479130D1*
X1893927Y3464107D1*
X1900670Y3447827D1*
X1904783Y3430693D1*
X1906167Y3413127D1*
X1904783Y3395560D1*
X1900670Y3378427D1*
X1893927Y3362147D1*
X1884720Y3347123D1*
X1873277Y3333727D1*
X1859880Y3322283D1*
X1844857Y3313077D1*
X1828577Y3306333D1*
X1811443Y3302220D1*
X1805730Y3301543D1*
X1787067Y3283250D1*
X1775987Y3275200D1*
X1763780Y3268980D1*
X1750753Y3264747D1*
X1737227Y3262607D1*
X1707043Y3262337D1*
X4030940Y239437D2*
D17*
X4127500Y142877D1*
X4224060Y239437D2*
X4127500Y142877D1*
X3350940Y239440D2*
X3447500Y142877D1*
X3544063Y239440D2*
X3447500Y142877D1*
X6112523Y1258227D2*
X6396977Y973773D1*
Y1258227D2*
X6112523Y973773D1*
X439200Y1946800D2*
X640300Y1745700D1*
Y1946800D2*
X439200Y1745700D1*
X6242380Y2779370D2*
X6350000Y2671750D1*
X6242380Y2564130D1*
X4270343Y8815407D2*
X4492657Y8593093D1*
Y8815407D2*
X4270343Y8593093D1*
X3508343Y8815407D2*
X3730657Y8593093D1*
Y8815407D2*
X3508343Y8593093D1*
D95*
X4127500Y142877D3*
Y592877D3*
D98*
X3447500D3*
Y142877D3*
D23*
X6000750Y1116000D3*
Y862000D3*
Y608000D3*
Y354000D3*
X6254750D3*
Y608000D3*
Y862000D3*
D24*
Y1116000D3*
D26*
X1397000Y2894000D3*
D27*
Y2640000D3*
Y2386000D3*
Y2132000D3*
Y1878000D3*
Y1624000D3*
Y1370000D3*
Y1116000D3*
Y862000D3*
Y608000D3*
Y354000D3*
X1651000D3*
Y608000D3*
Y862000D3*
Y1116000D3*
Y1370000D3*
Y1624000D3*
Y1878000D3*
Y2132000D3*
Y2386000D3*
Y2640000D3*
Y2894000D3*
D26*
X5365750D3*
D27*
Y2640000D3*
Y2386000D3*
Y2132000D3*
Y1878000D3*
Y1624000D3*
Y1370000D3*
Y1116000D3*
Y862000D3*
Y608000D3*
Y354000D3*
X5619750D3*
Y608000D3*
Y862000D3*
Y1116000D3*
Y1370000D3*
Y1624000D3*
Y1878000D3*
Y2132000D3*
Y2386000D3*
Y2640000D3*
Y2894000D3*
D24*
X539750Y1084250D3*
D23*
Y1338250D3*
Y1592250D3*
Y1846250D3*
D42*
X6350000Y2163750D3*
D43*
Y2417750D3*
Y2671750D3*
Y2925750D3*
Y3179750D3*
Y3433750D3*
D44*
X571500Y4894250D3*
X825500D3*
X1079500D3*
X5397500D3*
X5651500D3*
X5905500D3*
Y8704250D3*
X5651500D3*
X5397500D3*
X5143500D3*
X4889500D3*
X4635500D3*
X4381500D3*
X4127500D3*
X3873500D3*
X3619500D3*
X3365500D3*
X3111500D3*
X2857500D3*
X2603500D3*
X2349500D3*
X2095500D3*
X1841500D3*
X1587500D3*
X1333500D3*
X1079500D3*
X825500D3*
X571500D3*
M02*
