G04 DipTrace 3.3.1.3*
G04 ViktorJager_MessageDisplay.GTL*
%MOMM*%
G04 #@! TF.FileFunction,Copper,L1,Top*
G04 #@! TF.Part,Single*
%AMOUTLINE0*
4,1,8,
0.6929,0.287,
0.6929,-0.287,
0.287,-0.6929,
-0.287,-0.6929,
-0.6929,-0.287,
-0.6929,0.287,
-0.287,0.6929,
0.287,0.6929,
0.6929,0.287,
0*%
%AMOUTLINE3*
4,1,8,
-0.6929,-0.287,
-0.6929,0.287,
-0.287,0.6929,
0.287,0.6929,
0.6929,0.287,
0.6929,-0.287,
0.287,-0.6929,
-0.287,-0.6929,
-0.6929,-0.287,
0*%
G04 #@! TA.AperFunction,Conductor*
%ADD10C,0.25*%
%ADD13C,0.3*%
G04 #@! TA.AperFunction,ViaPad*
%ADD14C,0.6*%
G04 #@! TA.AperFunction,Conductor*
%ADD15C,0.4*%
G04 #@! TA.AperFunction,CopperBalancing*
%ADD16C,0.635*%
%ADD17C,0.33*%
%ADD19R,1.5X1.3*%
%ADD20R,1.3X1.5*%
%ADD21R,1.0X1.1*%
G04 #@! TA.AperFunction,ComponentPad*
%ADD23C,1.5*%
%ADD24R,1.5X1.5*%
%ADD25R,3.4X1.9*%
G04 #@! TA.AperFunction,ComponentPad*
%ADD26R,1.75X1.75*%
%ADD27C,1.75*%
%ADD30R,2.15X0.95*%
%ADD31R,2.15X3.25*%
%ADD33R,1.35X0.4*%
%ADD34R,2.0X2.1*%
%ADD35R,1.9X1.6*%
%ADD36R,1.9X1.2*%
%ADD38R,0.9X0.4*%
%ADD40R,1.6X0.3*%
%ADD41R,0.3X1.6*%
G04 #@! TA.AperFunction,ComponentPad*
%ADD42R,1.7X1.7*%
%ADD43C,1.7*%
%ADD44C,1.8*%
G04 #@! TA.AperFunction,ViaPad*
%ADD45C,0.7*%
%ADD47C,0.9*%
G04 #@! TA.AperFunction,ComponentPad*
%ADD95OUTLINE0*%
%ADD98OUTLINE3*%
%FSLAX35Y35*%
G04*
G71*
G90*
G75*
G01*
G04 Top*
%LPD*%
X4092750Y2036000D2*
D13*
X3766377D1*
X3619500Y3603627D2*
Y3635377D1*
X3651250Y3667127D1*
Y4052750D1*
X4318000Y3735250D2*
X4052750D1*
X4048127Y3730627D1*
X3778250Y2190750D2*
X3883000Y2086000D1*
X4092750D1*
Y2136000D2*
X4187750D1*
X4228250Y2095500D1*
X4349753D1*
X4492627Y3825877D2*
X4508500Y3841750D1*
X4667250D1*
Y3830500D1*
X4092750Y1886000D2*
X3997750D1*
X3953250Y1841500D1*
X3651250D1*
X380250Y3190250D2*
Y3063127D1*
X317500Y3000377D1*
X235123D1*
X145250Y3090250D1*
X380250Y3810250D2*
Y3937750D1*
X317500Y4000500D1*
X235500D1*
X145250Y3910250D1*
X412750Y3630250D2*
Y3777750D1*
X380250Y3810250D1*
X3447500Y142877D2*
X4127500D1*
X3286127Y258627D2*
X3331750D1*
X3447500Y142877D1*
X2952750Y1836000D2*
X2788500D1*
X2556373Y1603873D1*
Y1508127D1*
X1016000Y4259750D2*
D14*
Y4032250D1*
X412750Y3630250D2*
D15*
X598127D1*
X682627Y3714750D1*
X1587500Y3179750D2*
X1820877D1*
X3016250Y4354000D2*
Y4524377D1*
X4635500Y9402250D2*
X4889500D1*
X5143500D1*
X5397500D1*
X5651500D1*
X5905500D1*
X6132000D1*
X4635500D2*
X4417500D1*
X4381500Y8704250D2*
Y8493127D1*
X3619500Y8704250D2*
Y8874123D1*
X3254873Y9239250D2*
X3032127D1*
X4032250Y4302123D2*
X3921130D1*
X3825877Y4397377D1*
X4252250Y4172123D2*
Y4113877D1*
X4254500Y4095750D1*
X5206500Y3254377D2*
X5349877D1*
X5429250Y3333750D1*
X6350000Y2671750D2*
X6265877D1*
X6143627Y2794000D1*
Y2809877D1*
X6254750Y1116000D2*
Y1158873D1*
X6397627Y1301750D1*
Y1492250D1*
X3286127Y258627D2*
Y158750D1*
X3222627Y95250D1*
X2556373Y1508127D2*
X2381250D1*
X2222500Y1666877D1*
X952000Y1079500D2*
Y1142500D1*
X1079500Y1270000D1*
X603250Y735000D2*
X741377D1*
X777877Y698500D1*
X1651000Y354000D2*
X1773250D1*
X1841500Y285750D1*
X539750Y1846250D2*
Y2032000D1*
X145250Y3090250D2*
Y2807500D1*
X158750Y2794000D1*
Y2778127D1*
X3079250Y3052750D2*
X3179750D1*
X3254377Y3127377D1*
X3197750Y2581000D2*
D13*
Y2850627D1*
X3186720Y2861657D1*
Y3052750D1*
D15*
X3179750D1*
X3197750Y2581000D2*
D13*
Y2406127D1*
X3238500Y2365377D1*
X3317877D1*
X3347750Y2395250D1*
Y2581000D1*
X4092750Y2336000D2*
X3907623D1*
X3873500Y2301877D1*
X3847750Y1441000D2*
Y1295750D1*
X3888377Y1255123D1*
X3904750Y1238750D1*
X4127500D1*
X3937000Y1238250D2*
X3888377Y1255123D1*
X2667000Y3624250D2*
D15*
Y3381377D1*
X3016250Y3624250D2*
Y3444877D1*
X4572000Y4286250D2*
D13*
Y4349750D1*
X381000Y555627D2*
X593877D1*
X603250Y565000D1*
X930123Y238127D1*
X1047747D1*
X4294187Y2214563D2*
X4272750Y2236000D1*
X4092750D1*
X566750Y1338250D2*
X539750D1*
X301627Y1100127D1*
Y984250D1*
X396877Y889000D1*
X809623D1*
X952500Y746123D1*
Y460373D1*
X1222373Y190500D1*
X3921127Y2186000D2*
X4092750D1*
X5651500Y4461000D2*
D14*
Y4894250D1*
X5397500Y4461000D2*
Y4894250D1*
X412750Y3370250D2*
D15*
X510250D1*
D14*
X662000D1*
X863627Y3571877D1*
X1333500D1*
X444500Y2438250D2*
D13*
Y2460627D1*
X523880D1*
X555627Y2492373D1*
Y2571750D1*
X598627Y2614750D1*
X666750D1*
X4252250Y4302123D2*
X4365623D1*
X4508500Y4445000D1*
X5175250D1*
X5329250Y4291000D1*
X5397500D1*
X3627440Y4198940D2*
X3651250Y4222750D1*
X3952877D1*
X3967250Y4237123D1*
X4032250D1*
X4635500Y8704250D2*
D14*
Y9212250D1*
X4889500Y8704250D2*
Y9212250D1*
X5143500Y8704250D2*
Y9212250D1*
X5397500Y8704250D2*
Y9212250D1*
X5651500Y8704250D2*
Y9212250D1*
X5905500Y8704250D2*
Y9212250D1*
X539750Y1592250D2*
D13*
X417500D1*
X238127Y1412877D1*
Y868500D1*
X381000Y725627D1*
X4252250Y4237123D2*
X4335377D1*
X4381500Y4191000D1*
Y4016373D1*
X4318000Y3952873D1*
Y3905250D1*
X4572000Y4221250D2*
X4522877D1*
X4476750Y4175123D1*
Y4048123D1*
X4524373Y4000500D1*
X4667250D1*
X5905500Y4461000D2*
D14*
Y4894250D1*
X4032250Y4172123D2*
D13*
X3997500D1*
X3921127Y4095750D1*
Y4032250D1*
X3952877Y4000500D1*
X5524500Y4270373D2*
X5630873D1*
X5651500Y4291000D1*
X4792000Y4286250D2*
X5143500D1*
X5270500Y4159250D1*
X5778500D1*
X5905500Y4286250D1*
Y4291000D1*
X3447500Y592877D2*
X4127500D1*
X3286127Y428627D2*
Y587377D1*
X3349627Y650877D1*
X3389500D1*
X3447500Y592877D1*
X2952750Y2086000D2*
X3089250D1*
X3419500D1*
X3794127Y2460627D1*
X4143377D1*
X3089250Y2086000D2*
X3175000Y2000250D1*
X3297750Y1441000D2*
Y1249877D1*
X3175000Y1127127D1*
X3048003D1*
X3847750Y2581000D2*
Y2676000D1*
X3873500Y2701750D1*
X4029253D1*
X4556127Y2174877D1*
Y1825623D1*
X5011750Y1370000D1*
X5365750D1*
X3597750Y1441000D2*
Y1121250D1*
X3476627Y1000127D1*
X3381377D1*
X3647750Y1441000D2*
Y996627D1*
X3524250Y873127D1*
X3697750Y1441000D2*
Y919627D1*
X3597750Y2581000D2*
Y2835750D1*
X3778250Y3016250D1*
X4127503D1*
X4873627Y2270127D1*
Y1905000D1*
X4968877Y1809750D1*
X5191127D1*
X5222877Y1841500D1*
Y1936750D1*
X5286377Y2000250D1*
D10*
X5476877D1*
D13*
X5608627Y2132000D1*
X5619750D1*
X3547750Y2581000D2*
Y2865123D1*
X3762377Y3079750D1*
X4143377D1*
X4937127Y2286000D1*
Y1936750D1*
X5000627Y1873250D1*
X5111753D1*
X5159377Y1920873D1*
Y2032000D1*
X5259377Y2132000D1*
X5365750D1*
X3497750Y2581000D2*
Y2894500D1*
X3746500Y3143250D1*
X4159250D1*
X5048250Y2254250D1*
X5270500D1*
D10*
X5492750D1*
D13*
X5619750Y2381250D1*
Y2386000D1*
X3447750Y2581000D2*
Y2923873D1*
X3730627Y3206750D1*
X4175127D1*
X5016500Y2365377D1*
X5365750D1*
Y2386000D1*
X3397750Y2581000D2*
Y2953250D1*
X3714750Y3270250D1*
X4191000D1*
X4953000Y2508250D1*
X5270500D1*
D10*
X5445127D1*
D13*
X5508623D1*
X5619750Y2619377D1*
Y2640000D1*
X3297750Y2581000D2*
Y2932627D1*
X3698873Y3333750D1*
X4206877D1*
X4968877Y2571750D1*
X5207000D1*
X5275250Y2640000D1*
X5365750D1*
X3247750Y2581000D2*
Y2962000D1*
X3683000Y3397250D1*
X4222750D1*
X4984750Y2635250D1*
X5095877D1*
X5222877Y2762250D1*
D10*
X5540373D1*
D13*
X5619750Y2841627D1*
Y2894000D1*
X4092750Y1636000D2*
X4203000D1*
X4445000Y1394000D1*
Y671500D1*
X4889500Y227000D1*
X5492750D1*
X5619750Y354000D1*
X4092750Y1686000D2*
X4224250D1*
X4508500Y1401750D1*
Y687377D1*
X4826000Y369877D1*
X5381627D1*
X5365750Y354000D1*
X4092750Y1736000D2*
X4253627D1*
X4572000Y1417627D1*
Y703250D1*
X4794250Y481000D1*
X5492750D1*
X5619750Y608000D1*
X4092750Y1786000D2*
X4283000D1*
X4635500Y1433500D1*
Y719127D1*
X4810127Y544500D1*
X5270500D1*
X5334000Y608000D1*
X5365750D1*
X2952750Y2036000D2*
X1916877D1*
X1873250Y2079627D1*
Y2159000D1*
X1778000Y2254250D1*
D10*
X1519250D1*
D13*
X1397000Y2132000D1*
X2952750Y1986000D2*
X1890750D1*
X1744750Y2132000D1*
X1651000D1*
X2952750Y1936000D2*
X1858123D1*
X1793873Y2000250D1*
D10*
X1519250D1*
D13*
X1397000Y1878000D1*
X2952750Y1886000D2*
X1659000D1*
X1651000Y1878000D1*
X3497750Y1441000D2*
Y1307000D1*
X3429000Y1238250D1*
X3547750Y1441000D2*
Y1198250D1*
X3460750Y1111250D1*
X3286127D1*
X4092750Y1836000D2*
X4312377D1*
X4699000Y1449377D1*
Y877873D1*
X4841873Y735000D1*
X5492750D1*
X5619750Y862000D1*
X5365750Y814377D2*
Y862000D1*
X4092750Y1936000D2*
X4291750D1*
X4762500Y1465250D1*
Y973127D1*
X4921250Y814377D1*
X5254627D1*
X5302250Y862000D1*
X5365750D1*
X4092750Y1986000D2*
X4321127D1*
X5064127Y1243000D1*
X5492750D1*
X5619750Y1370000D1*
Y1603377D2*
Y1624000D1*
X5588000Y1592250D1*
Y1619250D1*
X3797750Y2581000D2*
Y2702373D1*
X3857627Y2762250D1*
X4048127D1*
X4619627Y2190750D1*
Y1841500D1*
X5032377Y1428750D1*
X5143500D1*
X5207000Y1492250D1*
D10*
X5492750D1*
D13*
X5619750Y1619250D1*
Y1624000D1*
X3747750Y2581000D2*
Y2731750D1*
X3841750Y2825750D1*
X4079877D1*
X4683127Y2222500D1*
Y1857373D1*
X4916500Y1624000D1*
X4989500D1*
X5365750D1*
X3697750Y2581000D2*
Y2761123D1*
X3825877Y2889250D1*
X4095753D1*
X4746627Y2238377D1*
Y1873250D1*
X4937127Y1682750D1*
X5222877D1*
X5286377Y1746250D1*
D10*
X5508623D1*
D13*
X5619750Y1857377D1*
Y1878000D1*
X2952750Y2336000D2*
X2124877D1*
X1873250Y2587627D1*
Y2778123D1*
X1757373Y2894000D1*
X1651000D1*
X2952750Y2286000D2*
X2095500D1*
X1809750Y2571750D1*
Y2714627D1*
X1762127Y2762250D1*
D10*
X1519250D1*
D13*
X1397000Y2640000D1*
X2952750Y2236000D2*
X2066127D1*
X1662127Y2640000D1*
X1651000D1*
X5365750Y1878000D2*
X5338750D1*
X5207000Y1746250D1*
X4953003D1*
X4810127Y1889127D1*
Y2254250D1*
X4111627Y2952750D1*
X3794127D1*
X3647750Y2806373D1*
Y2581000D1*
X2952750Y2186000D2*
X2036750D1*
X1714500Y2508250D1*
D10*
X1519250D1*
D13*
X1397000Y2386000D1*
X2952750Y2136000D2*
X2007377D1*
X1757377Y2386000D1*
X1651000D1*
X3197750Y1441000D2*
Y1340377D1*
X3175000Y1317627D1*
X2952753D1*
X3397750Y1441000D2*
Y1745750D1*
X2095500Y5794377D2*
Y6953250D1*
X3447750Y1441000D2*
Y1536000D1*
X3492500Y1580750D1*
Y1698627D1*
X1841500Y6048377D2*
Y6937377D1*
X3347750Y1441000D2*
Y1536000D1*
X3286127Y1597623D1*
Y1635127D1*
X1587500Y5969000D2*
Y6937377D1*
X6350000Y2417750D2*
X6148373Y2619377D1*
X6048377D1*
X5984877Y2682877D1*
Y3381373D1*
X5524500Y3841750D1*
X4984750D1*
X4714877Y3571877D1*
X4111623D1*
X3984627Y2619377D2*
X3952877Y2587627D1*
X3897750D1*
Y2581000D1*
X4092750Y2286000D2*
X4187750D1*
X4219500Y2317750D1*
X4333877D1*
X4460877Y2190750D1*
Y2000250D1*
X3797750Y1441000D2*
Y1239377D1*
X4873627Y163500D1*
X5730873D1*
X5810250Y242877D1*
Y925500D1*
X6000750Y1116000D1*
X3747750Y1441000D2*
Y1205253D1*
X4841877Y111127D1*
X6011877D1*
X6254750Y354000D1*
X2667000Y4084250D2*
D14*
X2841250D1*
X2921000Y4164000D1*
X3016250D1*
X1016000Y4449750D2*
X1492250D1*
X1682750Y4259250D1*
X2508250D1*
X2667000Y4100500D1*
Y4084250D1*
X1016000Y4449750D2*
X920750D1*
X825500Y4545000D1*
Y4640250D1*
X571500Y4894250D1*
X825500Y4640250D2*
Y4894250D1*
Y4640250D2*
X1079500Y4894250D1*
X1397500Y3179750D2*
Y2894500D1*
X1397000Y2894000D1*
X762000Y1079500D2*
X539750D1*
Y1084250D1*
X1333500Y3961877D2*
X1374253D1*
X1671627Y4259250D1*
X1682750D1*
X1397500Y3179750D2*
X1365250D1*
Y3222623D1*
X1619250Y3476623D1*
Y3794127D1*
X1451500Y3961877D1*
X1333500D1*
X635000Y1079500D2*
X762000D1*
X1397000Y2894000D2*
X1179500D1*
X825500Y2540000D1*
Y1270000D1*
X762000Y1206500D1*
Y1079500D1*
X825500Y8704250D2*
X1079500D1*
X1174750D2*
X1333500D1*
X2349500D2*
X2603500D1*
X2857500D1*
X3111500D1*
X3365500D1*
X3873500D2*
X4127500D1*
X1079500D2*
Y8513750D1*
X1206500Y8386750D1*
X2476500D1*
X2603500Y8513750D1*
X2730500Y8386750D1*
X3556000D1*
X3873500Y8704250D1*
X2603500Y8513750D2*
Y8704250D1*
X3444873Y9239250D2*
Y8704250D1*
X3365500D1*
X3873500D2*
Y8958250D1*
X3592500Y9239250D1*
X3444873D1*
X3016250Y3814250D2*
X2858000D1*
X2818000Y3854250D1*
X2667000D1*
X2087000D1*
X2889250Y3052750D2*
D15*
Y2839500D1*
X3077040Y2651710D1*
D13*
X3147750Y2581000D1*
X2952750Y2386000D2*
Y2421000D1*
D15*
Y2754540D1*
X2889250Y2818040D1*
Y2839500D1*
X3016250Y3814250D2*
D14*
X3123127D1*
X3286127Y3651250D1*
Y3476627D1*
Y3444877D1*
X3127377Y3286127D1*
X2984503D1*
X2889250Y3190873D1*
Y3052750D1*
X5016500Y3254377D2*
X4810127D1*
X4587877Y3476627D1*
X3286127D1*
X5016500Y3254377D2*
Y3079750D1*
X5202250Y2894000D1*
X5365750D1*
Y3000377D1*
X5492750Y3127377D1*
X5746750D1*
X5842000Y3032127D1*
Y2555877D1*
X6234127Y2163750D1*
X6350000D1*
Y1809750D1*
X6127750Y1587500D1*
Y989000D1*
X6123957Y985207D1*
X6000750Y862000D1*
X6123957Y985207D2*
D13*
Y477207D1*
X6000750Y354000D1*
X2087000Y3854250D2*
D14*
X1844877D1*
X1778000Y3921127D1*
Y4968877D2*
X4000500Y7191377D1*
Y9239250D2*
X3444873D1*
X3897750Y1441000D2*
D13*
X4115250D1*
X4127500Y1428750D1*
X3897750Y1441000D2*
Y1610877D1*
X3794127Y1714500D1*
X3619500D1*
X3556000Y1778000D1*
Y2127250D1*
X3814750Y2386000D1*
X4092750D1*
X2889250Y2839500D2*
D14*
Y2825747D1*
X2746373Y2682870D1*
Y1349377D2*
Y1508127D1*
D13*
Y1698623D1*
X2833750Y1786000D1*
X2952750D1*
X2746373Y1349377D2*
Y1222377D1*
X3190877D1*
X3247750Y1279250D1*
Y1441000D1*
X2087000Y3854250D2*
D15*
Y3706250D1*
X1793877Y3413127D1*
X444500Y2794000D2*
Y2608250D1*
X4127500Y1428750D2*
D14*
X4222750D1*
X4286250Y1365250D1*
Y968377D1*
X4064000Y746127D2*
X3127377D1*
X2746373Y1127130D1*
Y1349377D1*
X1333500Y8704250D2*
D13*
Y8556627D1*
X1412877Y8477250D1*
X2206623D1*
X2349500Y8620127D1*
Y8704250D1*
D45*
X3766377Y2036000D3*
X3619500Y3603627D3*
X4349753Y2095500D3*
X4492627Y3825877D3*
X3651250Y1841500D3*
D47*
X1016000Y4032250D3*
X682627Y3714750D3*
X1820877Y3179750D3*
X3016250Y4524377D3*
X6132000Y9402250D3*
X4417500D3*
X4381500Y8493127D3*
X3619500Y8874123D3*
X3032127Y9239250D3*
D45*
X1047747Y238127D3*
D47*
X4294187Y2214563D3*
D45*
X1222373Y190500D3*
X3921127Y2186000D3*
X3952877Y4000500D3*
X5524500Y4270373D3*
X4143377Y2460627D3*
X3175000Y2000250D3*
X3048003Y1127127D3*
X3381377Y1000127D3*
X3524250Y873127D3*
X3697750Y919627D3*
X3429000Y1238250D3*
X3286127Y1111250D3*
X2952753Y1317627D3*
X3397750Y1745750D3*
X2095500Y5794377D3*
Y6953250D3*
X3492500Y1698627D3*
X1841500Y6048377D3*
Y6937377D3*
X3492500Y1698627D3*
X3286127Y1635127D3*
X1587500Y5969000D3*
Y6937377D3*
X4111623Y3571877D3*
X3984627Y2619377D3*
X4460877Y2000250D3*
D47*
X1778000Y3921127D3*
Y4968877D3*
X4000500Y7191377D3*
Y9239250D3*
X2746373Y2682870D3*
Y1349377D3*
D3*
X1793877Y3413127D3*
X444500Y2794000D3*
D45*
X4286250Y968377D3*
X4064000Y746127D3*
D47*
X2746373Y1349377D3*
D45*
X3825877Y4397377D3*
X4254500Y4095750D3*
X4572000Y4349750D3*
X5429250Y3333750D3*
X6143627Y2809877D3*
X6397627Y1492250D3*
X3222627Y95250D3*
X2222500Y1666877D3*
X1079500Y1270000D3*
X777877Y698500D3*
X1841500Y285750D3*
X539750Y2032000D3*
X158750Y2778127D3*
X3254377Y3127377D3*
X3873500Y2301877D3*
X3937000Y1238250D3*
X2667000Y3381377D3*
X3016250Y3444877D3*
X3778250Y2190750D3*
X4048127Y3730627D3*
D14*
X4254500Y587377D3*
X3921127Y3635377D3*
X104147Y9439083D2*
D16*
X4479843D1*
X6061163D2*
X6395913D1*
X104147Y9375917D2*
X3109193D1*
X3590473D2*
X4479843D1*
X6061163D2*
X6395913D1*
X104147Y9312750D2*
X3109193D1*
X4100800D2*
X4479843D1*
X6061163D2*
X6395913D1*
X104147Y9249583D2*
X3109193D1*
X4125683D2*
X4479843D1*
X6061163D2*
X6395913D1*
X104147Y9186417D2*
X3109193D1*
X4113833D2*
X4479843D1*
X6061163D2*
X6395913D1*
X104147Y9123250D2*
X3109193D1*
X3862363D2*
X3966330D1*
X4034627D2*
X4479843D1*
X6061163D2*
X6395913D1*
X104147Y9060083D2*
X3334233D1*
X3555473D2*
X3617787D1*
X3925527D2*
X4524870D1*
X6016137D2*
X6395913D1*
X104147Y8996917D2*
X3334233D1*
X3555473D2*
X3680950D1*
X3976750D2*
X4524870D1*
X6016137D2*
X6395913D1*
X104147Y8933750D2*
X3334233D1*
X3555473D2*
X3744207D1*
X3984133D2*
X4524870D1*
X6016137D2*
X6395913D1*
X104147Y8870583D2*
X3334233D1*
X3555473D2*
X3762890D1*
X3984133D2*
X4524870D1*
X6016137D2*
X6395913D1*
X104147Y8807417D2*
X437253D1*
X6039743D2*
X6395913D1*
X104147Y8744250D2*
X405807D1*
X6071190D2*
X6395913D1*
X104147Y8681083D2*
X402527D1*
X6074470D2*
X6395913D1*
X104147Y8617917D2*
X425403D1*
X6051593D2*
X6395913D1*
X104147Y8554750D2*
X497043D1*
X646007D2*
X751067D1*
X899940D2*
X968817D1*
X2716293D2*
X2782983D1*
X2931947D2*
X3037007D1*
X3185970D2*
X3291030D1*
X3439993D2*
X3545053D1*
X3947947D2*
X4053007D1*
X4201970D2*
X4307030D1*
X4455993D2*
X4561053D1*
X4710017D2*
X4814987D1*
X4963950D2*
X5069010D1*
X5217973D2*
X5323033D1*
X5471997D2*
X5577057D1*
X5725930D2*
X5830990D1*
X5979953D2*
X6395913D1*
X104147Y8491583D2*
X971277D1*
X2779550D2*
X3506953D1*
X3814693D2*
X6395913D1*
X104147Y8428417D2*
X1011017D1*
X3751530D2*
X6395913D1*
X104147Y8365250D2*
X1074180D1*
X3688363D2*
X6395913D1*
X104147Y8302083D2*
X1139257D1*
X2543753D2*
X2663217D1*
X3623287D2*
X6395913D1*
X104147Y8238917D2*
X6395913D1*
X104147Y8175750D2*
X6395913D1*
X104147Y8112583D2*
X6395913D1*
X104147Y8049417D2*
X6395913D1*
X104147Y7986250D2*
X6395913D1*
X104147Y7923083D2*
X6395913D1*
X104147Y7859917D2*
X6395913D1*
X104147Y7796750D2*
X6395913D1*
X104147Y7733583D2*
X6395913D1*
X104147Y7670417D2*
X6395913D1*
X104147Y7607250D2*
X6395913D1*
X104147Y7544083D2*
X6395913D1*
X104147Y7480917D2*
X6395913D1*
X104147Y7417750D2*
X6395913D1*
X104147Y7354583D2*
X6395913D1*
X104147Y7291417D2*
X3929140D1*
X4071813D2*
X6395913D1*
X104147Y7228250D2*
X3880743D1*
X4120303D2*
X6395913D1*
X104147Y7165083D2*
X3820403D1*
X4123220D2*
X6395913D1*
X104147Y7101917D2*
X3757240D1*
X4085760D2*
X6395913D1*
X104147Y7038750D2*
X1540300D1*
X1634667D2*
X1794323D1*
X1888690D2*
X2021093D1*
X2169967D2*
X3694077D1*
X4001723D2*
X6395913D1*
X104147Y6975583D2*
X1478777D1*
X1696280D2*
X1732800D1*
X1950213D2*
X1982173D1*
X2208793D2*
X3630913D1*
X3938560D2*
X6395913D1*
X104147Y6912417D2*
X1474767D1*
X1954223D2*
X1987733D1*
X2203233D2*
X3567657D1*
X3875397D2*
X6395913D1*
X104147Y6849250D2*
X1491900D1*
X1683157D2*
X1745833D1*
X1937180D2*
X1999857D1*
X2191113D2*
X3504493D1*
X3812230D2*
X6395913D1*
X104147Y6786083D2*
X1491900D1*
X1683157D2*
X1745833D1*
X1937180D2*
X1999857D1*
X2191113D2*
X3441330D1*
X3749067D2*
X6395913D1*
X104147Y6722917D2*
X1491900D1*
X1683157D2*
X1745833D1*
X1937180D2*
X1999857D1*
X2191113D2*
X3378163D1*
X3685903D2*
X6395913D1*
X104147Y6659750D2*
X1491900D1*
X1683157D2*
X1745833D1*
X1937180D2*
X1999857D1*
X2191113D2*
X3315000D1*
X3622740D2*
X6395913D1*
X104147Y6596583D2*
X1491900D1*
X1683157D2*
X1745833D1*
X1937180D2*
X1999857D1*
X2191113D2*
X3251837D1*
X3559577D2*
X6395913D1*
X104147Y6533417D2*
X1491900D1*
X1683157D2*
X1745833D1*
X1937180D2*
X1999857D1*
X2191113D2*
X3188673D1*
X3496410D2*
X6395913D1*
X104147Y6470250D2*
X1491900D1*
X1683157D2*
X1745833D1*
X1937180D2*
X1999857D1*
X2191113D2*
X3125507D1*
X3433247D2*
X6395913D1*
X104147Y6407083D2*
X1491900D1*
X1683157D2*
X1745833D1*
X1937180D2*
X1999857D1*
X2191113D2*
X3062343D1*
X3370083D2*
X6395913D1*
X104147Y6343917D2*
X1491900D1*
X1683157D2*
X1745833D1*
X1937180D2*
X1999857D1*
X2191113D2*
X2999180D1*
X3306920D2*
X6395913D1*
X104147Y6280750D2*
X1491900D1*
X1683157D2*
X1745833D1*
X1937180D2*
X1999857D1*
X2191113D2*
X2936017D1*
X3243753D2*
X6395913D1*
X104147Y6217583D2*
X1491900D1*
X1683157D2*
X1745833D1*
X1937180D2*
X1999857D1*
X2191113D2*
X2872853D1*
X3180590D2*
X6395913D1*
X104147Y6154417D2*
X1491900D1*
X1683157D2*
X1745833D1*
X1937180D2*
X1999857D1*
X2191113D2*
X2809687D1*
X3117337D2*
X6395913D1*
X104147Y6091250D2*
X1491900D1*
X1683157D2*
X1734623D1*
X1948390D2*
X1999857D1*
X2191113D2*
X2746523D1*
X3054170D2*
X6395913D1*
X104147Y6028083D2*
X1489167D1*
X1685800D2*
X1727787D1*
X1955227D2*
X1999857D1*
X2191113D2*
X2683360D1*
X2991007D2*
X6395913D1*
X104147Y5964917D2*
X1471940D1*
X1703027D2*
X1764610D1*
X1918403D2*
X1999857D1*
X2191113D2*
X2620197D1*
X2927843D2*
X6395913D1*
X104147Y5901750D2*
X1495000D1*
X1679967D2*
X1999857D1*
X2191113D2*
X2557030D1*
X2864680D2*
X6395913D1*
X104147Y5838583D2*
X1989193D1*
X2201777D2*
X2493867D1*
X2801517D2*
X6395913D1*
X104147Y5775417D2*
X1981537D1*
X2209523D2*
X2430703D1*
X2738350D2*
X6395913D1*
X104147Y5712250D2*
X2017083D1*
X2173977D2*
X2367540D1*
X2675187D2*
X6395913D1*
X104147Y5649083D2*
X2304377D1*
X2612023D2*
X6395913D1*
X104147Y5585917D2*
X2241210D1*
X2548860D2*
X6395913D1*
X104147Y5522750D2*
X2178047D1*
X2485697D2*
X6395913D1*
X104147Y5459583D2*
X2114883D1*
X2422530D2*
X6395913D1*
X104147Y5396417D2*
X2051720D1*
X2359367D2*
X6395913D1*
X104147Y5333250D2*
X1988553D1*
X2296203D2*
X6395913D1*
X104147Y5270083D2*
X1925390D1*
X2233040D2*
X6395913D1*
X104147Y5206917D2*
X1862227D1*
X2169873D2*
X6395913D1*
X104147Y5143750D2*
X1799063D1*
X2106710D2*
X6395913D1*
X104147Y5080583D2*
X1729793D1*
X2043547D2*
X6395913D1*
X104147Y5017417D2*
X456393D1*
X1194613D2*
X1662710D1*
X1980383D2*
X5282383D1*
X6020603D2*
X6395913D1*
X104147Y4954250D2*
X412187D1*
X1238820D2*
X1653230D1*
X1917220D2*
X5238177D1*
X6064810D2*
X6395913D1*
X104147Y4891083D2*
X400887D1*
X1250123D2*
X1681210D1*
X1874743D2*
X5226877D1*
X6076113D2*
X6395913D1*
X104147Y4827917D2*
X414830D1*
X1236177D2*
X5240820D1*
X6062167D2*
X6395913D1*
X104147Y4764750D2*
X464050D1*
X1186957D2*
X5286850D1*
X6016137D2*
X6395913D1*
X104147Y4701583D2*
X610340D1*
X1040670D2*
X5286850D1*
X6016137D2*
X6395913D1*
X104147Y4638417D2*
X673503D1*
X977503D2*
X5286850D1*
X6016137D2*
X6395913D1*
X104147Y4575250D2*
X714883D1*
X1171647D2*
X5266887D1*
X6036100D2*
X6395913D1*
X104147Y4512083D2*
X720170D1*
X1583717D2*
X4443203D1*
X6036100D2*
X6395913D1*
X104147Y4448917D2*
X767747D1*
X1646880D2*
X2860637D1*
X3171933D2*
X4379767D1*
X6036100D2*
X6395913D1*
X104147Y4385750D2*
X830913D1*
X1710043D2*
X2860637D1*
X3171933D2*
X3906627D1*
X6036100D2*
X6395913D1*
X104147Y4322583D2*
X860353D1*
X2598717D2*
X2860637D1*
X3171933D2*
X3520627D1*
X3781880D2*
X3906627D1*
X6036100D2*
X6395913D1*
X104147Y4259417D2*
X860353D1*
X2661880D2*
X2860637D1*
X3171933D2*
X3520627D1*
X6036100D2*
X6395913D1*
X104147Y4196250D2*
X860353D1*
X3171933D2*
X3520627D1*
X4917647D2*
X5100913D1*
X6036100D2*
X6395913D1*
X104147Y4133083D2*
X860353D1*
X3171933D2*
X3520627D1*
X3781880D2*
X3833710D1*
X4917647D2*
X5164077D1*
X5884980D2*
X6395913D1*
X104147Y4069917D2*
X1082840D1*
X3171933D2*
X3520627D1*
X3781880D2*
X3825507D1*
X4043650D2*
X4285887D1*
X4917647D2*
X6395913D1*
X320890Y4006750D2*
X1082840D1*
X2917363D2*
X3520627D1*
X3781880D2*
X3829247D1*
X4068350D2*
X4187357D1*
X4797883D2*
X6395913D1*
X560877Y3943583D2*
X1082840D1*
X3171933D2*
X3520627D1*
X3781880D2*
X3853217D1*
X4052493D2*
X4187357D1*
X4797883D2*
X6395913D1*
X560877Y3880417D2*
X1082840D1*
X3210760D2*
X3555627D1*
X3746880D2*
X4187357D1*
X4797883D2*
X4890820D1*
X5618470D2*
X6395913D1*
X560877Y3817250D2*
X1082840D1*
X3273923D2*
X3555627D1*
X3746880D2*
X3975170D1*
X5681633D2*
X6395913D1*
X560877Y3754083D2*
X1505483D1*
X3337087D2*
X3555627D1*
X3746880D2*
X3935067D1*
X5744797D2*
X6395913D1*
X560877Y3690917D2*
X1082840D1*
X2275147D2*
X2478830D1*
X3388950D2*
X3543230D1*
X3746880D2*
X3939987D1*
X4966503D2*
X5542697D1*
X5807960D2*
X6395913D1*
X560877Y3627750D2*
X765650D1*
X2275147D2*
X2478830D1*
X3396790D2*
X3506590D1*
X3737767D2*
X4004883D1*
X4903337D2*
X5605860D1*
X5871123D2*
X6395913D1*
X560877Y3564583D2*
X702487D1*
X2085017D2*
X2478830D1*
X4840173D2*
X5669023D1*
X5934290D2*
X6252813D1*
X560877Y3501417D2*
X639323D1*
X2021853D2*
X2860637D1*
X4776100D2*
X5732187D1*
X5997453D2*
X6199493D1*
X883807Y3438250D2*
X1082840D1*
X1958690D2*
X3125690D1*
X4780110D2*
X5795353D1*
X6060070D2*
X6184453D1*
X820643Y3375083D2*
X1363840D1*
X1913300D2*
X2923710D1*
X5352140D2*
X5858517D1*
X6080487D2*
X6195573D1*
X757480Y3311917D2*
X1251823D1*
X1863350D2*
X2856447D1*
X3307010D2*
X3465027D1*
X5352140D2*
X5889233D1*
X6080487D2*
X6241053D1*
X560877Y3248750D2*
X1251823D1*
X1733103D2*
X2796107D1*
X3243847D2*
X3401863D1*
X5352140D2*
X5889233D1*
X6080487D2*
X6200040D1*
X560877Y3185583D2*
X1251823D1*
X1733103D2*
X2743607D1*
X3224887D2*
X3338697D1*
X5352140D2*
X5397137D1*
X5842413D2*
X5889233D1*
X6080487D2*
X6184453D1*
X560877Y3122417D2*
X1251823D1*
X1733103D2*
X2743607D1*
X3224887D2*
X3275533D1*
X6080487D2*
X6195027D1*
X560877Y3059250D2*
X1251823D1*
X1733103D2*
X2743607D1*
X5190813D2*
X5273360D1*
X6080487D2*
X6239507D1*
X320890Y2996083D2*
X1151837D1*
X1782870D2*
X2743607D1*
X6080487D2*
X6200770D1*
X104147Y2932917D2*
X1064610D1*
X1851047D2*
X2743607D1*
X6080487D2*
X6184543D1*
X104147Y2869750D2*
X346017D1*
X543013D2*
X1001447D1*
X1914210D2*
X2779427D1*
X2998663D2*
X3152123D1*
X6080487D2*
X6194570D1*
X104147Y2806583D2*
X319493D1*
X569447D2*
X938280D1*
X1964250D2*
X2716263D1*
X3061827D2*
X3152123D1*
X6080487D2*
X6237957D1*
X104147Y2743417D2*
X330157D1*
X797400D2*
X875117D1*
X1182767D2*
X1228853D1*
X1968897D2*
X2637240D1*
X6080487D2*
X6201407D1*
X104147Y2680250D2*
X313840D1*
X1119600D2*
X1233960D1*
X1968897D2*
X2620743D1*
X104147Y2617083D2*
X313840D1*
X1056437D2*
X1230497D1*
X1976463D2*
X2640520D1*
X104147Y2553917D2*
X313840D1*
X993273D2*
X1253647D1*
X2039627D2*
X2852070D1*
X104147Y2490750D2*
X313840D1*
X936123D2*
X1267317D1*
X2102790D2*
X2852070D1*
X104147Y2427583D2*
X313840D1*
X936123D2*
X1234323D1*
X2165957D2*
X2792097D1*
X104147Y2364417D2*
X313840D1*
X936123D2*
X1230313D1*
X3113417D2*
X3565287D1*
X104147Y2301250D2*
X714883D1*
X936123D2*
X1252827D1*
X3113417D2*
X3502123D1*
X104147Y2238083D2*
X714883D1*
X936123D2*
X1268503D1*
X3113417D2*
X3438960D1*
X104147Y2174917D2*
X714883D1*
X936123D2*
X1234687D1*
X104147Y2111750D2*
X714883D1*
X936123D2*
X1230130D1*
X104147Y2048583D2*
X714883D1*
X936123D2*
X1252007D1*
X104147Y1985417D2*
X479363D1*
X600160D2*
X714883D1*
X936123D2*
X1269687D1*
X104147Y1922250D2*
X404897D1*
X674627D2*
X714883D1*
X936123D2*
X1235053D1*
X104147Y1859083D2*
X384663D1*
X936123D2*
X1229947D1*
X104147Y1795917D2*
X392863D1*
X936123D2*
X1251187D1*
X1796813D2*
X2711067D1*
X104147Y1732750D2*
X436433D1*
X643090D2*
X714883D1*
X936123D2*
X1270873D1*
X1777127D2*
X2657473D1*
X104147Y1669583D2*
X366523D1*
X673807D2*
X714883D1*
X936123D2*
X1235417D1*
X1812583D2*
X2650730D1*
X6363677D2*
X6395913D1*
X104147Y1606417D2*
X299077D1*
X936123D2*
X1229857D1*
X1818143D2*
X2410743D1*
X6300513D2*
X6395913D1*
X104147Y1543250D2*
X235913D1*
X936123D2*
X1250457D1*
X1797543D2*
X2410743D1*
X6238350D2*
X6395913D1*
X104147Y1480083D2*
X172747D1*
X644640D2*
X714883D1*
X936123D2*
X1272057D1*
X1775943D2*
X2410743D1*
X6238350D2*
X6395913D1*
X104147Y1416917D2*
X142580D1*
X672987D2*
X714883D1*
X936123D2*
X1235780D1*
X1812220D2*
X2410743D1*
X6238350D2*
X6395913D1*
X104147Y1353750D2*
X142487D1*
X936123D2*
X1229673D1*
X1818327D2*
X2620833D1*
X6238350D2*
X6395913D1*
X104147Y1290583D2*
X142487D1*
X936123D2*
X1249727D1*
X1798273D2*
X2635690D1*
X6238350D2*
X6395913D1*
X104147Y1227417D2*
X142487D1*
X1097637D2*
X1273333D1*
X1774667D2*
X2635690D1*
X104147Y1164250D2*
X142487D1*
X1097637D2*
X1236237D1*
X1811763D2*
X2635690D1*
X104147Y1101083D2*
X142487D1*
X1097637D2*
X1229583D1*
X1818417D2*
X2639063D1*
X104147Y1037917D2*
X142487D1*
X1097637D2*
X1248907D1*
X1799093D2*
X2681720D1*
X4131880D2*
X4175600D1*
X104147Y974750D2*
X142487D1*
X1097637D2*
X1274610D1*
X1773390D2*
X2744883D1*
X104147Y911583D2*
X142487D1*
X919627D2*
X1236603D1*
X1811397D2*
X2808047D1*
X104147Y848417D2*
X144767D1*
X982790D2*
X1229400D1*
X1818600D2*
X2871210D1*
X104147Y785250D2*
X188790D1*
X733873D2*
X780780D1*
X1039120D2*
X1248270D1*
X1799730D2*
X2934377D1*
X104147Y722083D2*
X250403D1*
X733873D2*
X843947D1*
X1048143D2*
X1275887D1*
X1772113D2*
X2997540D1*
X6357387D2*
X6395913D1*
X104147Y658917D2*
X250403D1*
X733873D2*
X856887D1*
X1048143D2*
X1237057D1*
X1810943D2*
X3063803D1*
X104147Y595750D2*
X250403D1*
X733873D2*
X856887D1*
X1048143D2*
X1229310D1*
X1818690D2*
X3190860D1*
X104147Y532583D2*
X250403D1*
X768327D2*
X856887D1*
X1048143D2*
X1247540D1*
X1800460D2*
X3155497D1*
X104147Y469417D2*
X250403D1*
X1076123D2*
X1277253D1*
X1770747D2*
X3155497D1*
X3533417D2*
X4041613D1*
X4213363D2*
X4350963D1*
X6355747D2*
X6395913D1*
X104147Y406250D2*
X629387D1*
X1139290D2*
X1237513D1*
X1810487D2*
X3155497D1*
X3416750D2*
X4414127D1*
X104147Y343083D2*
X692553D1*
X1818780D2*
X3155497D1*
X3416750D2*
X4477293D1*
X104147Y279917D2*
X755717D1*
X1801190D2*
X3155497D1*
X3513000D2*
X4061940D1*
X4193040D2*
X4540457D1*
X104147Y216750D2*
X818880D1*
X1489017D2*
X1558983D1*
X1743040D2*
X3155497D1*
X3582087D2*
X3992853D1*
X4262127D2*
X4603620D1*
X6319837D2*
X6395913D1*
X104147Y153583D2*
X895080D1*
X1331607D2*
X3155497D1*
X3597400D2*
X3977540D1*
X4277440D2*
X4666783D1*
X6186947D2*
X6395913D1*
X4271080Y171450D2*
X4270753Y107230D1*
X4269297Y97997D1*
X4592667Y97750D1*
X4728930D1*
X4270680Y556047D1*
X4267443Y541220D1*
X4262983Y530450D1*
X4256893Y520510D1*
X4249320Y511647D1*
X4204447Y467097D1*
X4195017Y460243D1*
X4184630Y454950D1*
X4173543Y451350D1*
X4162030Y449527D1*
X4092970D1*
X4081457Y451350D1*
X4070370Y454950D1*
X4059983Y460243D1*
X4050553Y467097D1*
X4013720Y503603D1*
X3561210Y503587D1*
X3524447Y467097D1*
X3515017Y460243D1*
X3504630Y454950D1*
X3493543Y451350D1*
X3482030Y449527D1*
X3412950D1*
X3410417Y441250D1*
Y285997D1*
X3437467Y286457D1*
X3483147Y286130D1*
X3496880Y283520D1*
X3509880Y278383D1*
X3521690Y270900D1*
X3535330Y258097D1*
X3574003Y218967D1*
X3581867Y207407D1*
X3587430Y194583D1*
X3590487Y180943D1*
X3591080Y162243D1*
X3590493Y104867D1*
X3589333Y97750D1*
X3985727D1*
X3984070Y109457D1*
X3983957Y173867D1*
X3985700Y187737D1*
X3990010Y201037D1*
X3996737Y213290D1*
X4005680Y224107D1*
X4051413Y269380D1*
X4062970Y277243D1*
X4075797Y282807D1*
X4089437Y285863D1*
X4108133Y286457D1*
X4163147Y286130D1*
X4176880Y283520D1*
X4189883Y278383D1*
X4201690Y270900D1*
X4215330Y258097D1*
X4255490Y217110D1*
X4262980Y205310D1*
X4268127Y192310D1*
X4270750Y178580D1*
X4271080Y122177D1*
X3983920Y152120D2*
Y122157D1*
X3547327Y489653D2*
X3547293Y489620D1*
X3303920Y118843D2*
Y129327D1*
X3161837Y129337D1*
Y557917D1*
X3196747D1*
X3197113Y594383D1*
X3199303Y608220D1*
X3203633Y621547D1*
X3209993Y634030D1*
X3213907Y639880D1*
X3200667Y641837D1*
X3119193Y642157D1*
X3103030Y644717D1*
X3087467Y649777D1*
X3072887Y657203D1*
X3059647Y666823D1*
X2987637Y738380D1*
X2667070Y1059400D1*
X2657450Y1072640D1*
X2650023Y1087220D1*
X2644963Y1102783D1*
X2642403Y1118947D1*
X2642083Y1220463D1*
Y1291467D1*
X2636163Y1303727D1*
X2630380Y1321530D1*
X2627450Y1340017D1*
X2627463Y1358847D1*
X2417083Y1358837D1*
Y1657417D1*
X2657123D1*
X2657360Y1705630D1*
X2659550Y1719467D1*
X2663880Y1732793D1*
X2670240Y1745277D1*
X2678477Y1756613D1*
X2718233Y1796757D1*
X1790913Y1796710D1*
X1781890Y1782903D1*
X1765403Y1763597D1*
X1751123Y1751073D1*
X1765403Y1738403D1*
X1781890Y1719097D1*
X1795157Y1697450D1*
X1804870Y1673997D1*
X1810797Y1649310D1*
X1812790Y1624000D1*
X1810797Y1598690D1*
X1804870Y1574003D1*
X1795157Y1550550D1*
X1781890Y1528903D1*
X1765403Y1509597D1*
X1751123Y1497073D1*
X1765403Y1484403D1*
X1781890Y1465097D1*
X1795157Y1443450D1*
X1804870Y1419997D1*
X1810797Y1395310D1*
X1812790Y1370000D1*
X1810797Y1344690D1*
X1804870Y1320003D1*
X1795157Y1296550D1*
X1781890Y1274903D1*
X1765403Y1255597D1*
X1751123Y1243073D1*
X1765403Y1230403D1*
X1781890Y1211097D1*
X1795157Y1189450D1*
X1804870Y1165997D1*
X1810797Y1141310D1*
X1812790Y1116000D1*
X1810797Y1090690D1*
X1804870Y1066003D1*
X1795157Y1042550D1*
X1781890Y1020903D1*
X1765403Y1001597D1*
X1751123Y989073D1*
X1765403Y976403D1*
X1781890Y957097D1*
X1795157Y935450D1*
X1804870Y911997D1*
X1810797Y887310D1*
X1812790Y862000D1*
X1810797Y836690D1*
X1804870Y812003D1*
X1795157Y788550D1*
X1781890Y766903D1*
X1765403Y747597D1*
X1751123Y735073D1*
X1765403Y722403D1*
X1781890Y703097D1*
X1795157Y681450D1*
X1804870Y657997D1*
X1810797Y633310D1*
X1812790Y608000D1*
X1810797Y582690D1*
X1804870Y558003D1*
X1795157Y534550D1*
X1781890Y512903D1*
X1765403Y493597D1*
X1751123Y481073D1*
X1766700Y467090D1*
X1778950Y453020D1*
X1789500Y437630D1*
X1798207Y421130D1*
X1804957Y403737D1*
X1809657Y385683D1*
X1812250Y367210D1*
X1812723Y349333D1*
X1811110Y330747D1*
X1807370Y312470D1*
X1801550Y294747D1*
X1793727Y277807D1*
X1784007Y261883D1*
X1772517Y247183D1*
X1759413Y233907D1*
X1744867Y222223D1*
X1729073Y212293D1*
X1712240Y204247D1*
X1694593Y198193D1*
X1676367Y194210D1*
X1657803Y192353D1*
X1639150Y192643D1*
X1620653Y195080D1*
X1602560Y199630D1*
X1585110Y206233D1*
X1568540Y214803D1*
X1553063Y225220D1*
X1538890Y237350D1*
X1526207Y251033D1*
X1524007Y253780D1*
X1511403Y239597D1*
X1492097Y223110D1*
X1470450Y209843D1*
X1446997Y200130D1*
X1422310Y194203D1*
X1397000Y192210D1*
X1371690Y194203D1*
X1347003Y200130D1*
X1330443Y206667D1*
X1331663Y190500D1*
X1330317Y173403D1*
X1326313Y156727D1*
X1319750Y140883D1*
X1310790Y126260D1*
X1299653Y113220D1*
X1286613Y102083D1*
X1280117Y97743D1*
X3305780Y97750D1*
X3304070Y109457D1*
X3303920Y118843D1*
X3165540Y4214787D2*
Y4024710D1*
X2928747Y4024260D1*
X2908980Y4004947D1*
X2895740Y3995327D1*
X2881160Y3987900D1*
X2865597Y3982840D1*
X2849400Y3980280D1*
X2848700Y3962460D1*
X2850227Y3953437D1*
X2865373Y3947157D1*
X2866960Y3953540D1*
X3165540D1*
Y3909517D1*
X3177617Y3903173D1*
X3190857Y3893553D1*
X3262867Y3821997D1*
X3365430Y3718980D1*
X3375050Y3705740D1*
X3382477Y3691160D1*
X3387537Y3675597D1*
X3390097Y3659433D1*
X3390417Y3580977D1*
X3512623Y3580917D1*
X3510547Y3595053D1*
Y3612200D1*
X3513230Y3629140D1*
X3518530Y3645450D1*
X3526313Y3660730D1*
X3536397Y3674603D1*
X3543280Y3681883D1*
X3551603Y3693367D1*
X3561943Y3704097D1*
X3561960Y3923520D1*
X3526960Y3923460D1*
Y4352040D1*
X3775540D1*
Y4312027D1*
X3912930Y4312040D1*
X3912960Y4396413D1*
X4333573D1*
X4450510Y4512897D1*
X4461847Y4521133D1*
X4474330Y4527493D1*
X4487657Y4531823D1*
X4501493Y4534013D1*
X4648500Y4534290D1*
X5182257Y4534013D1*
X5196093Y4531823D1*
X5209420Y4527493D1*
X5221903Y4521133D1*
X5233240Y4512897D1*
X5273257Y4473270D1*
X5273210Y4590290D1*
X5293170D1*
X5293210Y4767340D1*
X5281330Y4778080D1*
X5264587Y4797683D1*
X5251117Y4819663D1*
X5241250Y4843480D1*
X5235233Y4868550D1*
X5233210Y4894250D1*
X5235233Y4919950D1*
X5241250Y4945020D1*
X5251117Y4968837D1*
X5264587Y4990817D1*
X5281330Y5010420D1*
X5300933Y5027163D1*
X5322913Y5040633D1*
X5346730Y5050500D1*
X5371800Y5056517D1*
X5397500Y5058540D1*
X5423200Y5056517D1*
X5448270Y5050500D1*
X5472087Y5040633D1*
X5494067Y5027163D1*
X5513670Y5010420D1*
X5524453Y4998377D1*
X5535330Y5010420D1*
X5554933Y5027163D1*
X5576913Y5040633D1*
X5600730Y5050500D1*
X5625800Y5056517D1*
X5651500Y5058540D1*
X5677200Y5056517D1*
X5702270Y5050500D1*
X5726087Y5040633D1*
X5748067Y5027163D1*
X5767670Y5010420D1*
X5778453Y4998377D1*
X5789330Y5010420D1*
X5808933Y5027163D1*
X5830913Y5040633D1*
X5854730Y5050500D1*
X5879800Y5056517D1*
X5905500Y5058540D1*
X5931200Y5056517D1*
X5956270Y5050500D1*
X5980087Y5040633D1*
X6002067Y5027163D1*
X6021670Y5010420D1*
X6038413Y4990817D1*
X6051883Y4968837D1*
X6061750Y4945020D1*
X6067767Y4919950D1*
X6069790Y4894250D1*
X6067767Y4868550D1*
X6061750Y4843480D1*
X6051883Y4819663D1*
X6038413Y4797683D1*
X6021670Y4778080D1*
X6009783Y4767420D1*
X6009790Y4590280D1*
X6029790Y4590290D1*
Y4161710D1*
X5907200D1*
X5836490Y4091353D1*
X5825153Y4083117D1*
X5812670Y4076757D1*
X5799343Y4072427D1*
X5785507Y4070237D1*
X5638500Y4069960D1*
X5263493Y4070237D1*
X5249657Y4072427D1*
X5236330Y4076757D1*
X5223847Y4083117D1*
X5212510Y4091353D1*
X5106500Y4196977D1*
X4911350Y4196960D1*
X4911290Y4061960D1*
X4791617D1*
X4791540Y3774853D1*
X4926760Y3909647D1*
X4938097Y3917883D1*
X4950580Y3924243D1*
X4963907Y3928573D1*
X4977743Y3930763D1*
X5124750Y3931040D1*
X5531507Y3930763D1*
X5545343Y3928573D1*
X5558670Y3924243D1*
X5571153Y3917883D1*
X5582490Y3909647D1*
X5686633Y3805893D1*
X6052773Y3439363D1*
X6061010Y3428027D1*
X6067370Y3415543D1*
X6071700Y3402217D1*
X6073890Y3388380D1*
X6074167Y3241373D1*
Y2719927D1*
X6085330Y2708697D1*
X6155380Y2708390D1*
X6169217Y2706200D1*
X6182543Y2701870D1*
X6188933Y2698920D1*
X6192977Y2698530D1*
X6197187Y2716707D1*
X6203490Y2734263D1*
X6211803Y2750967D1*
X6222013Y2766580D1*
X6233980Y2780893D1*
X6247537Y2793710D1*
X6253857Y2798737D1*
X6237363Y2813113D1*
X6221133Y2832123D1*
X6208070Y2853433D1*
X6198507Y2876527D1*
X6192670Y2900830D1*
X6190710Y2925750D1*
X6192670Y2950670D1*
X6198507Y2974973D1*
X6208070Y2998067D1*
X6221133Y3019377D1*
X6237363Y3038387D1*
X6253953Y3052713D1*
X6237363Y3067113D1*
X6221133Y3086123D1*
X6208070Y3107433D1*
X6198507Y3130527D1*
X6192670Y3154830D1*
X6190710Y3179750D1*
X6192670Y3204670D1*
X6198507Y3228973D1*
X6208070Y3252067D1*
X6221133Y3273377D1*
X6237363Y3292387D1*
X6253953Y3306713D1*
X6237363Y3321113D1*
X6221133Y3340123D1*
X6208070Y3361433D1*
X6198507Y3384527D1*
X6192670Y3408830D1*
X6190710Y3433750D1*
X6192670Y3458670D1*
X6198507Y3482973D1*
X6208070Y3506067D1*
X6221133Y3527377D1*
X6237363Y3546387D1*
X6256373Y3562617D1*
X6277683Y3575680D1*
X6300777Y3585243D1*
X6325080Y3591080D1*
X6350000Y3593040D1*
X6374920Y3591080D1*
X6399223Y3585243D1*
X6402293Y3584110D1*
X6402250Y9502237D1*
X6054743Y9502250D1*
X6054790Y9072960D1*
X6009857D1*
X6009790Y8831170D1*
X6021670Y8820420D1*
X6038413Y8800817D1*
X6051883Y8778837D1*
X6061750Y8755020D1*
X6067767Y8729950D1*
X6069790Y8704250D1*
X6067767Y8678550D1*
X6061750Y8653480D1*
X6051883Y8629663D1*
X6038413Y8607683D1*
X6021670Y8588080D1*
X6002067Y8571337D1*
X5980087Y8557867D1*
X5956270Y8548000D1*
X5931200Y8541983D1*
X5905500Y8539960D1*
X5879800Y8541983D1*
X5854730Y8548000D1*
X5830913Y8557867D1*
X5808933Y8571337D1*
X5789330Y8588080D1*
X5778547Y8600123D1*
X5767670Y8588080D1*
X5748067Y8571337D1*
X5726087Y8557867D1*
X5702270Y8548000D1*
X5677200Y8541983D1*
X5651500Y8539960D1*
X5625800Y8541983D1*
X5600730Y8548000D1*
X5576913Y8557867D1*
X5554933Y8571337D1*
X5535330Y8588080D1*
X5524547Y8600123D1*
X5513670Y8588080D1*
X5494067Y8571337D1*
X5472087Y8557867D1*
X5448270Y8548000D1*
X5423200Y8541983D1*
X5397500Y8539960D1*
X5371800Y8541983D1*
X5346730Y8548000D1*
X5322913Y8557867D1*
X5300933Y8571337D1*
X5281330Y8588080D1*
X5270547Y8600123D1*
X5259670Y8588080D1*
X5240067Y8571337D1*
X5218087Y8557867D1*
X5194270Y8548000D1*
X5169200Y8541983D1*
X5143500Y8539960D1*
X5117800Y8541983D1*
X5092730Y8548000D1*
X5068913Y8557867D1*
X5046933Y8571337D1*
X5027330Y8588080D1*
X5016547Y8600123D1*
X5005670Y8588080D1*
X4986067Y8571337D1*
X4964087Y8557867D1*
X4940270Y8548000D1*
X4915200Y8541983D1*
X4889500Y8539960D1*
X4863800Y8541983D1*
X4838730Y8548000D1*
X4814913Y8557867D1*
X4792933Y8571337D1*
X4773330Y8588080D1*
X4762547Y8600123D1*
X4751670Y8588080D1*
X4732067Y8571337D1*
X4710087Y8557867D1*
X4686270Y8548000D1*
X4661200Y8541983D1*
X4635500Y8539960D1*
X4609800Y8541983D1*
X4584730Y8548000D1*
X4560913Y8557867D1*
X4538933Y8571337D1*
X4519330Y8588080D1*
X4508547Y8600123D1*
X4496510Y8586930D1*
X4482467Y8574647D1*
X4467123Y8564037D1*
X4450673Y8555233D1*
X4433333Y8548350D1*
X4415323Y8543480D1*
X4396877Y8540680D1*
X4378233Y8539993D1*
X4359630Y8541423D1*
X4341310Y8544950D1*
X4323510Y8550533D1*
X4306457Y8558100D1*
X4290370Y8567550D1*
X4275460Y8578763D1*
X4261917Y8591597D1*
X4254503Y8600050D1*
X4243670Y8588080D1*
X4224067Y8571337D1*
X4202087Y8557867D1*
X4178270Y8548000D1*
X4153200Y8541983D1*
X4127500Y8539960D1*
X4101800Y8541983D1*
X4076730Y8548000D1*
X4052913Y8557867D1*
X4030933Y8571337D1*
X4011330Y8588080D1*
X4000670Y8599967D1*
X3980197Y8579323D1*
X3959340Y8564170D1*
X3936370Y8552467D1*
X3911853Y8544500D1*
X3886390Y8540467D1*
X3860610D1*
X3857557Y8540827D1*
X3623730Y8307447D1*
X3610490Y8297827D1*
X3595910Y8290400D1*
X3580347Y8285340D1*
X3564183Y8282780D1*
X3462667Y8282460D1*
X2722317Y8282780D1*
X2706153Y8285340D1*
X2690590Y8290400D1*
X2676010Y8297827D1*
X2662770Y8307447D1*
X2603457Y8366307D1*
X2544230Y8307447D1*
X2530990Y8297827D1*
X2516410Y8290400D1*
X2500847Y8285340D1*
X2484683Y8282780D1*
X2383167Y8282460D1*
X1198317Y8282780D1*
X1182153Y8285340D1*
X1166590Y8290400D1*
X1152010Y8297827D1*
X1138770Y8307447D1*
X1066760Y8379003D1*
X1000197Y8446020D1*
X990577Y8459260D1*
X983150Y8473840D1*
X978090Y8489403D1*
X975530Y8505567D1*
X975210Y8577280D1*
X963330Y8588080D1*
X952670Y8599967D1*
X932197Y8579323D1*
X911340Y8564170D1*
X888370Y8552467D1*
X863853Y8544500D1*
X838390Y8540467D1*
X812610D1*
X787147Y8544500D1*
X762630Y8552467D1*
X739660Y8564170D1*
X718803Y8579323D1*
X700573Y8597553D1*
X698547Y8600123D1*
X687670Y8588080D1*
X668067Y8571337D1*
X646087Y8557867D1*
X622270Y8548000D1*
X597200Y8541983D1*
X571500Y8539960D1*
X545800Y8541983D1*
X520730Y8548000D1*
X496913Y8557867D1*
X474933Y8571337D1*
X455330Y8588080D1*
X438587Y8607683D1*
X425117Y8629663D1*
X415250Y8653480D1*
X409233Y8678550D1*
X407210Y8704250D1*
X409233Y8729950D1*
X415250Y8755020D1*
X425117Y8778837D1*
X438587Y8800817D1*
X455330Y8820420D1*
X474933Y8837163D1*
X496913Y8850633D1*
X520730Y8860500D1*
X545800Y8866517D1*
X571500Y8868540D1*
X597200Y8866517D1*
X622270Y8860500D1*
X646087Y8850633D1*
X668067Y8837163D1*
X687670Y8820420D1*
X698453Y8808377D1*
X709330Y8820420D1*
X728933Y8837163D1*
X750913Y8850633D1*
X774730Y8860500D1*
X799800Y8866517D1*
X825500Y8868540D1*
X851200Y8866517D1*
X876270Y8860500D1*
X900087Y8850633D1*
X922067Y8837163D1*
X941670Y8820420D1*
X952330Y8808533D1*
X972803Y8829177D1*
X993660Y8844330D1*
X1016630Y8856033D1*
X1041147Y8864000D1*
X1066610Y8868033D1*
X1092390D1*
X1117853Y8864000D1*
X1142370Y8856033D1*
X1165340Y8844330D1*
X1186197Y8829177D1*
X1204427Y8810947D1*
X1206330Y8808533D1*
X1226803Y8829177D1*
X1247660Y8844330D1*
X1270630Y8856033D1*
X1295147Y8864000D1*
X1320610Y8868033D1*
X1346390D1*
X1371853Y8864000D1*
X1396370Y8856033D1*
X1419340Y8844330D1*
X1440197Y8829177D1*
X1458427Y8810947D1*
X1460453Y8808377D1*
X1471330Y8820420D1*
X1490933Y8837163D1*
X1512913Y8850633D1*
X1536730Y8860500D1*
X1561800Y8866517D1*
X1587500Y8868540D1*
X1613200Y8866517D1*
X1638270Y8860500D1*
X1662087Y8850633D1*
X1684067Y8837163D1*
X1703670Y8820420D1*
X1714453Y8808377D1*
X1725330Y8820420D1*
X1744933Y8837163D1*
X1766913Y8850633D1*
X1790730Y8860500D1*
X1815800Y8866517D1*
X1841500Y8868540D1*
X1867200Y8866517D1*
X1892270Y8860500D1*
X1916087Y8850633D1*
X1938067Y8837163D1*
X1957670Y8820420D1*
X1968453Y8808377D1*
X1979330Y8820420D1*
X1998933Y8837163D1*
X2020913Y8850633D1*
X2044730Y8860500D1*
X2069800Y8866517D1*
X2095500Y8868540D1*
X2121200Y8866517D1*
X2146270Y8860500D1*
X2170087Y8850633D1*
X2192067Y8837163D1*
X2211670Y8820420D1*
X2222453Y8808377D1*
X2233330Y8820420D1*
X2252933Y8837163D1*
X2274913Y8850633D1*
X2298730Y8860500D1*
X2323800Y8866517D1*
X2349500Y8868540D1*
X2375200Y8866517D1*
X2400270Y8860500D1*
X2424087Y8850633D1*
X2446067Y8837163D1*
X2465670Y8820420D1*
X2476330Y8808533D1*
X2496803Y8829177D1*
X2517660Y8844330D1*
X2540630Y8856033D1*
X2565147Y8864000D1*
X2590610Y8868033D1*
X2616390D1*
X2641853Y8864000D1*
X2666370Y8856033D1*
X2689340Y8844330D1*
X2710197Y8829177D1*
X2728427Y8810947D1*
X2730330Y8808533D1*
X2750803Y8829177D1*
X2771660Y8844330D1*
X2794630Y8856033D1*
X2819147Y8864000D1*
X2844610Y8868033D1*
X2870390D1*
X2895853Y8864000D1*
X2920370Y8856033D1*
X2943340Y8844330D1*
X2964197Y8829177D1*
X2982427Y8810947D1*
X2984330Y8808533D1*
X3004803Y8829177D1*
X3025660Y8844330D1*
X3048630Y8856033D1*
X3073147Y8864000D1*
X3098610Y8868033D1*
X3124390D1*
X3149853Y8864000D1*
X3174370Y8856033D1*
X3197340Y8844330D1*
X3218197Y8829177D1*
X3236427Y8810947D1*
X3238330Y8808533D1*
X3258803Y8829177D1*
X3279660Y8844330D1*
X3302630Y8856033D1*
X3327147Y8864000D1*
X3340550Y8866607D1*
X3340583Y9089887D1*
X3115583Y9089960D1*
Y9388540D1*
X3584163D1*
Y9343607D1*
X3942620Y9343540D1*
X3954850Y9349460D1*
X3972653Y9355243D1*
X3991140Y9358173D1*
X4009860D1*
X4028347Y9355243D1*
X4046150Y9349460D1*
X4062830Y9340960D1*
X4077973Y9329960D1*
X4091210Y9316723D1*
X4102210Y9301580D1*
X4110710Y9284900D1*
X4116493Y9267097D1*
X4119423Y9248610D1*
Y9229890D1*
X4116493Y9211403D1*
X4110710Y9193600D1*
X4102210Y9176920D1*
X4091210Y9161777D1*
X4077973Y9148540D1*
X4062830Y9137540D1*
X4046150Y9129040D1*
X4028347Y9123257D1*
X4009860Y9120327D1*
X3991140D1*
X3972653Y9123257D1*
X3954850Y9129040D1*
X3942800Y9134947D1*
X3844367Y9134960D1*
X3952803Y9025980D1*
X3962423Y9012740D1*
X3969853Y8998160D1*
X3974910Y8982597D1*
X3977470Y8966433D1*
X3977790Y8864917D1*
Y8831283D1*
X3989670Y8820420D1*
X4000330Y8808533D1*
X4020803Y8829177D1*
X4041660Y8844330D1*
X4064630Y8856033D1*
X4089147Y8864000D1*
X4114610Y8868033D1*
X4140390D1*
X4165853Y8864000D1*
X4190370Y8856033D1*
X4213340Y8844330D1*
X4234197Y8829177D1*
X4252427Y8810947D1*
X4254453Y8808377D1*
X4267830Y8822870D1*
X4282013Y8834993D1*
X4297477Y8845430D1*
X4314027Y8854043D1*
X4331443Y8860730D1*
X4349507Y8865393D1*
X4367983Y8867983D1*
X4386633Y8868460D1*
X4405220Y8866820D1*
X4423497Y8863080D1*
X4441233Y8857297D1*
X4458200Y8849537D1*
X4474177Y8839903D1*
X4488960Y8828523D1*
X4502357Y8815537D1*
X4508493Y8808480D1*
X4519330Y8820420D1*
X4531217Y8831080D1*
X4531210Y9072933D1*
X4486210Y9072960D1*
Y9502253D1*
X97817Y9502250D1*
X97750Y4064613D1*
X314540Y4064540D1*
Y3989527D1*
X554540Y3989540D1*
Y3474603D1*
X618803Y3474540D1*
X795897Y3651180D1*
X809137Y3660800D1*
X823717Y3668230D1*
X839280Y3673287D1*
X855443Y3675847D1*
X956960Y3676167D1*
X1089213D1*
X1089210Y3741167D1*
X1514953D1*
X1512507Y3753380D1*
X1473257Y3792630D1*
X1089210Y3792587D1*
Y4120417D1*
X866710Y4120460D1*
X866260Y4360827D1*
X853020Y4370447D1*
X781010Y4442003D1*
X746197Y4477270D1*
X736577Y4490510D1*
X729147Y4505090D1*
X724090Y4520653D1*
X721530Y4536817D1*
X721210Y4597043D1*
X587473Y4730787D1*
X571500Y4729960D1*
X545800Y4731983D1*
X520730Y4738000D1*
X496913Y4747867D1*
X474933Y4761337D1*
X455330Y4778080D1*
X438587Y4797683D1*
X425117Y4819663D1*
X415250Y4843480D1*
X409233Y4868550D1*
X407210Y4894250D1*
X409233Y4919950D1*
X415250Y4945020D1*
X425117Y4968837D1*
X438587Y4990817D1*
X455330Y5010420D1*
X474933Y5027163D1*
X496913Y5040633D1*
X520730Y5050500D1*
X545800Y5056517D1*
X571500Y5058540D1*
X597200Y5056517D1*
X622270Y5050500D1*
X646087Y5040633D1*
X668067Y5027163D1*
X687670Y5010420D1*
X698453Y4998377D1*
X709330Y5010420D1*
X728933Y5027163D1*
X750913Y5040633D1*
X774730Y5050500D1*
X799800Y5056517D1*
X825500Y5058540D1*
X851200Y5056517D1*
X876270Y5050500D1*
X900087Y5040633D1*
X922067Y5027163D1*
X941670Y5010420D1*
X952453Y4998377D1*
X963330Y5010420D1*
X982933Y5027163D1*
X1004913Y5040633D1*
X1028730Y5050500D1*
X1053800Y5056517D1*
X1079500Y5058540D1*
X1105200Y5056517D1*
X1130270Y5050500D1*
X1154087Y5040633D1*
X1176067Y5027163D1*
X1195670Y5010420D1*
X1212413Y4990817D1*
X1225883Y4968837D1*
X1235750Y4945020D1*
X1241767Y4919950D1*
X1243790Y4894250D1*
X1241767Y4868550D1*
X1235750Y4843480D1*
X1225883Y4819663D1*
X1212413Y4797683D1*
X1195670Y4778080D1*
X1176067Y4761337D1*
X1154087Y4747867D1*
X1130270Y4738000D1*
X1105200Y4731983D1*
X1079500Y4729960D1*
X1063557Y4730827D1*
X929797Y4597057D1*
X929790Y4589117D1*
X1165290Y4589040D1*
Y4554130D1*
X1500433Y4553720D1*
X1516597Y4551160D1*
X1532160Y4546100D1*
X1546740Y4538673D1*
X1559980Y4529053D1*
X1631990Y4457497D1*
X1725893Y4363593D1*
X2516433Y4363220D1*
X2532597Y4360660D1*
X2548160Y4355600D1*
X2562740Y4348173D1*
X2575980Y4338553D1*
X2647990Y4266997D1*
X2708897Y4206093D1*
X2815613Y4206040D1*
X2853270Y4243303D1*
X2866537Y4252937D1*
X2866960Y4303290D1*
Y4493290D1*
X3165540D1*
X3165523Y4214710D1*
X2867033Y3674960D2*
X2866960Y3710050D1*
X2849787Y3710283D1*
X2848790Y3708707D1*
Y3502460D1*
X2485210D1*
X2485230Y3746040D1*
X2480333Y3749960D1*
X2268783D1*
X2268790Y3617460D1*
X2131617D1*
X1912180Y3398083D1*
X1909870Y3385280D1*
X1904087Y3367477D1*
X1895587Y3350797D1*
X1884587Y3335653D1*
X1871350Y3322417D1*
X1856207Y3311417D1*
X1839527Y3302917D1*
X1821723Y3297133D1*
X1803237Y3294203D1*
X1784517D1*
X1766030Y3297133D1*
X1748227Y3302917D1*
X1731547Y3311417D1*
X1726770Y3314607D1*
X1726790Y3036953D1*
X1746097Y3024890D1*
X1765403Y3008403D1*
X1781890Y2989097D1*
X1789653Y2977280D1*
X1804027Y2970133D1*
X1815363Y2961897D1*
X1919507Y2858143D1*
X1941147Y2836113D1*
X1949383Y2824777D1*
X1955743Y2812293D1*
X1960073Y2798967D1*
X1962263Y2785130D1*
X1962540Y2638123D1*
Y2624543D1*
X2161897Y2425253D1*
X2798537Y2425290D1*
X2798460Y2475290D1*
X2858527D1*
X2858460Y2642030D1*
X2852660Y2628713D1*
X2842880Y2612753D1*
X2830723Y2598520D1*
X2816490Y2586363D1*
X2800530Y2576583D1*
X2783237Y2569420D1*
X2765033Y2565050D1*
X2746373Y2563580D1*
X2727713Y2565050D1*
X2709510Y2569420D1*
X2692217Y2576583D1*
X2676257Y2586363D1*
X2662023Y2598520D1*
X2649867Y2612753D1*
X2640087Y2628713D1*
X2632923Y2646007D1*
X2628553Y2664210D1*
X2627083Y2682870D1*
X2628553Y2701530D1*
X2632923Y2719733D1*
X2640087Y2737027D1*
X2649867Y2752987D1*
X2662023Y2767220D1*
X2676257Y2779377D1*
X2692217Y2789157D1*
X2709510Y2796320D1*
X2713420Y2797423D1*
X2791280Y2875267D1*
X2794947Y2883853D1*
X2794960Y2903393D1*
X2749960Y2903460D1*
Y3202040D1*
X2785600D1*
X2787840Y3215220D1*
X2792900Y3230783D1*
X2800327Y3245363D1*
X2809947Y3258603D1*
X2881503Y3330613D1*
X2916773Y3365430D1*
X2930013Y3375050D1*
X2944593Y3382477D1*
X2960157Y3387537D1*
X2976320Y3390097D1*
X3084127Y3390417D1*
X3181823Y3488063D1*
X3181837Y3607967D1*
X3165527Y3624360D1*
X3165540Y3484960D1*
X2866960D1*
Y3674963D1*
X3189063Y3202040D2*
X3218540D1*
Y3059067D1*
X3531803Y3372330D1*
X3361143Y3372337D1*
X3195083Y3206803D1*
X3158477Y2903460D2*
X2983550D1*
X2983540Y2884040D1*
X2987297Y2874820D1*
X3127127Y2735290D1*
X3158463D1*
X3158460Y2903383D1*
X4900543Y3403667D2*
X5345790D1*
Y3127913D1*
X5425020Y3206680D1*
X5438260Y3216300D1*
X5452840Y3223727D1*
X5468403Y3228787D1*
X5484567Y3231347D1*
X5586083Y3231667D1*
X5754933Y3231347D1*
X5771097Y3228787D1*
X5786660Y3223727D1*
X5801240Y3216300D1*
X5814480Y3206680D1*
X5895577Y3126037D1*
X5895587Y3344323D1*
X5487540Y3752433D1*
X5021650Y3752460D1*
X4772867Y3503980D1*
X4761530Y3495743D1*
X4749047Y3489383D1*
X4735720Y3485053D1*
X4728817Y3483683D1*
X4843113Y3368880D1*
X4853360Y3358633D1*
X4877300Y3358667D1*
X4877210Y3403667D1*
X4900543D1*
X5322987Y3105087D2*
X5138653D1*
X5204000Y3039740D1*
X5203960Y3055790D1*
X5277333D1*
X5286447Y3068107D1*
X5323007Y3105120D1*
X4181943Y1099460D2*
X4063930D1*
X4178307Y985473D1*
X4181953Y1000890D1*
X4181960Y1099537D1*
X3978210Y1185190D2*
Y1286690D1*
X3887053Y1286710D1*
X3887040Y1276300D1*
X3978250Y1185150D1*
X921300Y1228790D2*
X1091290D1*
Y930210D1*
X894690D1*
X1020397Y804113D1*
X1028633Y792777D1*
X1034993Y780293D1*
X1039323Y766967D1*
X1041513Y753130D1*
X1041790Y606123D1*
Y497387D1*
X1240890Y298260D1*
X1243130Y304003D1*
X1237203Y328690D1*
X1235210Y354000D1*
X1237203Y379310D1*
X1243130Y403997D1*
X1252843Y427450D1*
X1266110Y449097D1*
X1282597Y468403D1*
X1296877Y480927D1*
X1282597Y493597D1*
X1266110Y512903D1*
X1252843Y534550D1*
X1243130Y558003D1*
X1237203Y582690D1*
X1235210Y608000D1*
X1237203Y633310D1*
X1243130Y657997D1*
X1252843Y681450D1*
X1266110Y703097D1*
X1282597Y722403D1*
X1296877Y734927D1*
X1282597Y747597D1*
X1266110Y766903D1*
X1252843Y788550D1*
X1243130Y812003D1*
X1237203Y836690D1*
X1235210Y862000D1*
X1237203Y887310D1*
X1243130Y911997D1*
X1252843Y935450D1*
X1266110Y957097D1*
X1282597Y976403D1*
X1296877Y988927D1*
X1282597Y1001597D1*
X1266110Y1020903D1*
X1252843Y1042550D1*
X1243130Y1066003D1*
X1237203Y1090690D1*
X1235210Y1116000D1*
X1237203Y1141310D1*
X1243130Y1165997D1*
X1252843Y1189450D1*
X1266110Y1211097D1*
X1282597Y1230403D1*
X1296877Y1242927D1*
X1282597Y1255597D1*
X1266110Y1274903D1*
X1252843Y1296550D1*
X1243130Y1320003D1*
X1237203Y1344690D1*
X1235210Y1370000D1*
X1237203Y1395310D1*
X1243130Y1419997D1*
X1252843Y1443450D1*
X1266110Y1465097D1*
X1282597Y1484403D1*
X1296877Y1496927D1*
X1282597Y1509597D1*
X1266110Y1528903D1*
X1252843Y1550550D1*
X1243130Y1574003D1*
X1237203Y1598690D1*
X1235210Y1624000D1*
X1237203Y1649310D1*
X1243130Y1673997D1*
X1252843Y1697450D1*
X1266110Y1719097D1*
X1282597Y1738403D1*
X1296877Y1750927D1*
X1282597Y1763597D1*
X1266110Y1782903D1*
X1252843Y1804550D1*
X1243130Y1828003D1*
X1237203Y1852690D1*
X1235210Y1878000D1*
X1237203Y1903310D1*
X1243130Y1927997D1*
X1252843Y1951450D1*
X1266110Y1973097D1*
X1282597Y1992403D1*
X1296877Y2004927D1*
X1282597Y2017597D1*
X1266110Y2036903D1*
X1252843Y2058550D1*
X1243130Y2082003D1*
X1237203Y2106690D1*
X1235210Y2132000D1*
X1237203Y2157310D1*
X1243130Y2181997D1*
X1252843Y2205450D1*
X1266110Y2227097D1*
X1282597Y2246403D1*
X1296877Y2258927D1*
X1282597Y2271597D1*
X1266110Y2290903D1*
X1252843Y2312550D1*
X1243130Y2336003D1*
X1237203Y2360690D1*
X1235210Y2386000D1*
X1237203Y2411310D1*
X1243130Y2435997D1*
X1252843Y2459450D1*
X1266110Y2481097D1*
X1282597Y2500403D1*
X1296877Y2512927D1*
X1282597Y2525597D1*
X1266110Y2544903D1*
X1252843Y2566550D1*
X1243130Y2590003D1*
X1237203Y2614690D1*
X1235210Y2640000D1*
X1237203Y2665310D1*
X1243130Y2689997D1*
X1252843Y2713450D1*
X1264207Y2732250D1*
X1235210Y2732210D1*
Y2789723D1*
X1222637Y2789710D1*
X929770Y2496783D1*
X929470Y1261817D1*
X926910Y1245653D1*
X921837Y1230060D1*
X3584163Y9100047D2*
Y9089960D1*
X3549253D1*
X3549163Y8852700D1*
X3565020Y8859243D1*
X3582943Y8864420D1*
X3601340Y8867533D1*
X3619967Y8868540D1*
X3638593Y8867427D1*
X3656970Y8864210D1*
X3674863Y8858930D1*
X3692043Y8851657D1*
X3708287Y8842480D1*
X3723387Y8831523D1*
X3737147Y8818923D1*
X3746493Y8808480D1*
X3757330Y8820420D1*
X3769217Y8831080D1*
X3769210Y8915070D1*
X3584170Y9100090D1*
X1281543Y3329040D2*
X1324503Y3329367D1*
X1397783Y3402647D1*
X1089210Y3402587D1*
Y3467573D1*
X906847Y3467587D1*
X729730Y3290947D1*
X716490Y3281327D1*
X701910Y3273897D1*
X686347Y3268840D1*
X670183Y3266280D1*
X568667Y3265960D1*
X554540D1*
Y3010960D1*
X314553D1*
X314540Y2935960D1*
X97740D1*
X97750Y97763D1*
X1164580Y97750D1*
X1151397Y107397D1*
X1139270Y119523D1*
X1129187Y133397D1*
X1121403Y148677D1*
X1118723Y155023D1*
X1104850Y144940D1*
X1089570Y137157D1*
X1073260Y131857D1*
X1056320Y129173D1*
X1039173D1*
X1022233Y131857D1*
X1005923Y137157D1*
X990643Y144940D1*
X984817Y148833D1*
X923117Y149113D1*
X909280Y151303D1*
X895953Y155633D1*
X883470Y161993D1*
X872133Y170230D1*
X767990Y273983D1*
X606287Y435690D1*
X505237Y435710D1*
X505290Y426337D1*
X256710D1*
Y723667D1*
X170230Y810510D1*
X161993Y821847D1*
X155633Y834330D1*
X151303Y847657D1*
X149113Y861493D1*
X148837Y1008500D1*
X149113Y1419883D1*
X151303Y1433720D1*
X155633Y1447047D1*
X161993Y1459530D1*
X170230Y1470867D1*
X273983Y1575010D1*
X359510Y1660147D1*
X370847Y1668383D1*
X383330Y1674743D1*
X396657Y1679073D1*
X410493Y1681267D1*
X420143Y1681540D1*
X434187Y1697813D1*
X452000Y1713027D1*
X461107Y1719353D1*
X445893Y1730153D1*
X432147Y1742763D1*
X420083Y1756990D1*
X409887Y1772610D1*
X401717Y1789383D1*
X395700Y1807040D1*
X391937Y1825310D1*
X390480Y1843910D1*
X391353Y1862543D1*
X394543Y1880923D1*
X400000Y1898760D1*
X407640Y1915780D1*
X417340Y1931713D1*
X428957Y1946310D1*
X442300Y1959347D1*
X457163Y1970617D1*
X473320Y1979947D1*
X490510Y1987187D1*
X508470Y1992227D1*
X526920Y1994987D1*
X545570Y1995427D1*
X564127Y1993537D1*
X582307Y1989347D1*
X599820Y1982923D1*
X616393Y1974363D1*
X631773Y1963807D1*
X645717Y1951410D1*
X658003Y1937377D1*
X668443Y1921917D1*
X676877Y1905277D1*
X683167Y1887713D1*
X687217Y1869503D1*
X688967Y1850933D1*
X688383Y1832270D1*
X685480Y1813843D1*
X680300Y1795923D1*
X672927Y1778787D1*
X663473Y1762703D1*
X652090Y1747927D1*
X638950Y1734687D1*
X624263Y1723183D1*
X618220Y1719270D1*
X636707Y1705770D1*
X653270Y1689207D1*
X667040Y1670253D1*
X677677Y1649380D1*
X684917Y1627100D1*
X688580Y1603963D1*
Y1580537D1*
X684917Y1557400D1*
X677677Y1535120D1*
X667040Y1514247D1*
X653270Y1495293D1*
X636707Y1478730D1*
X618173Y1465240D1*
X636707Y1451770D1*
X653270Y1435207D1*
X667040Y1416253D1*
X677677Y1395380D1*
X684917Y1373100D1*
X688580Y1349963D1*
Y1326537D1*
X684917Y1303400D1*
X677677Y1281120D1*
X667040Y1260247D1*
X653270Y1241293D1*
X646090Y1233527D1*
X661253Y1233540D1*
X665647Y1246410D1*
X673077Y1260990D1*
X682697Y1274230D1*
X721190Y1313177D1*
X721040Y2315460D1*
X568810D1*
X568790Y2308960D1*
X320210D1*
Y2737540D1*
X339443D1*
X334290Y2748350D1*
X328507Y2766153D1*
X325577Y2784640D1*
Y2803360D1*
X328507Y2821847D1*
X334290Y2839650D1*
X342790Y2856330D1*
X353790Y2871473D1*
X367027Y2884710D1*
X382170Y2895710D1*
X398850Y2904210D1*
X416653Y2909993D1*
X435140Y2912923D1*
X453860D1*
X472347Y2909993D1*
X490150Y2904210D1*
X506830Y2895710D1*
X521973Y2884710D1*
X535210Y2871473D1*
X546210Y2856330D1*
X554710Y2839650D1*
X560493Y2821847D1*
X563423Y2803360D1*
Y2784640D1*
X560493Y2766153D1*
X554710Y2748350D1*
X552733Y2744063D1*
X791040Y2744040D1*
Y2652987D1*
X1111770Y2973303D1*
X1125010Y2982923D1*
X1139590Y2990350D1*
X1155153Y2995410D1*
X1171317Y2997970D1*
X1235190Y2998290D1*
X1235210Y3055790D1*
X1258270D1*
X1258210Y3329040D1*
X1281543D1*
X1619147D2*
X1709270D1*
X1697370Y3343010D1*
X1687590Y3358970D1*
X1680427Y3376263D1*
X1677477Y3387323D1*
X1619200Y3329083D1*
X6402250Y331057D2*
X6396733Y307867D1*
X6387770Y286223D1*
X6375527Y266250D1*
X6360313Y248437D1*
X6342500Y233223D1*
X6322527Y220980D1*
X6300883Y212017D1*
X6278103Y206547D1*
X6254750Y204710D1*
X6233350Y206317D1*
X6124730Y97707D1*
X6402183Y97750D1*
X6402250Y330960D1*
X6333173Y481010D2*
X6351707Y467520D1*
X6368270Y450957D1*
X6382040Y432003D1*
X6392677Y411130D1*
X6399917Y388850D1*
X6402250Y376943D1*
X6402203Y584647D1*
X6396733Y561867D1*
X6387770Y540223D1*
X6375527Y520250D1*
X6360313Y502437D1*
X6342500Y487223D1*
X6333173Y480990D1*
Y735010D2*
X6351707Y721520D1*
X6368270Y704957D1*
X6382040Y686003D1*
X6392677Y665130D1*
X6399917Y642850D1*
X6402250Y630943D1*
X6402203Y838647D1*
X6396733Y815867D1*
X6387770Y794223D1*
X6375527Y774250D1*
X6360313Y756437D1*
X6342500Y741223D1*
X6333173Y734990D1*
X6361090Y966723D2*
X6375527Y949750D1*
X6387770Y929777D1*
X6396733Y908133D1*
X6402250Y884943D1*
Y966793D1*
X6361147Y966710D1*
X6232027Y1265290D2*
X6402233D1*
X6402250Y1714553D1*
X6232007Y1544267D1*
X6232040Y1265300D1*
X4133037Y4077833D2*
X4030157Y4077780D1*
X4041293Y4064740D1*
X4050253Y4050117D1*
X4056817Y4034273D1*
X4060820Y4017597D1*
X4062167Y4000500D1*
X4060820Y3983403D1*
X4056817Y3966727D1*
X4050253Y3950883D1*
X4041293Y3936260D1*
X4030157Y3923220D1*
X4017117Y3912083D1*
X4002493Y3903123D1*
X3986650Y3896560D1*
X3969973Y3892557D1*
X3952877Y3891210D1*
X3935780Y3892557D1*
X3919103Y3896560D1*
X3903260Y3903123D1*
X3888637Y3912083D1*
X3875597Y3923220D1*
X3864460Y3936260D1*
X3855500Y3950883D1*
X3848937Y3966727D1*
X3844933Y3983403D1*
X3844597Y3986233D1*
X3838633Y3998080D1*
X3834303Y4011407D1*
X3832110Y4025243D1*
X3831837Y4095750D1*
X3832937Y4109717D1*
X3836207Y4123343D1*
X3838643Y4129943D1*
X3836210Y4133460D1*
X3775597D1*
X3775540Y3923460D1*
X3740450D1*
X3740263Y3660120D1*
X3738073Y3646283D1*
X3733743Y3632957D1*
X3730793Y3626567D1*
X3728453Y3612200D1*
Y3595053D1*
X3726327Y3580907D1*
X4002623Y3580917D1*
X4005353Y3597390D1*
X4010653Y3613700D1*
X4016750Y3625967D1*
X3998510Y3633250D1*
X3983887Y3642210D1*
X3970847Y3653347D1*
X3959710Y3666387D1*
X3950750Y3681010D1*
X3944187Y3696853D1*
X3940183Y3713530D1*
X3938837Y3730627D1*
X3940183Y3747723D1*
X3944187Y3764400D1*
X3950750Y3780243D1*
X3959710Y3794867D1*
X3970847Y3807907D1*
X3983887Y3819043D1*
X3998510Y3828003D1*
X4014353Y3834567D1*
X4031030Y3838570D1*
X4048127Y3839917D1*
X4065223Y3838570D1*
X4081900Y3834567D1*
X4097743Y3828003D1*
X4103913Y3824550D1*
X4193753Y3824540D1*
X4193710Y4034540D1*
X4273463D1*
X4292180Y4053327D1*
X4292207Y4077833D1*
X4132960Y4077850D1*
X727540Y799703D2*
Y566960D1*
X871273Y423250D1*
X865677Y439530D1*
X863487Y453367D1*
X863210Y600373D1*
Y709110D1*
X772643Y799703D1*
X727500Y799710D1*
X3107020Y2425290D2*
X3107040Y2175250D1*
X3382467Y2175290D1*
X3633947Y2426723D1*
X3106977Y2426710D1*
X3569517Y8547757D2*
X3552877Y8554077D1*
X3536280Y8562597D1*
X3520757Y8572947D1*
X3506507Y8584987D1*
X3492503Y8600050D1*
X3481670Y8588080D1*
X3462067Y8571337D1*
X3440087Y8557867D1*
X3416270Y8548000D1*
X3391200Y8541983D1*
X3365500Y8539960D1*
X3339800Y8541983D1*
X3314730Y8548000D1*
X3290913Y8557867D1*
X3268933Y8571337D1*
X3249330Y8588080D1*
X3238670Y8599967D1*
X3218197Y8579323D1*
X3197340Y8564170D1*
X3174370Y8552467D1*
X3149853Y8544500D1*
X3124390Y8540467D1*
X3098610D1*
X3073147Y8544500D1*
X3048630Y8552467D1*
X3025660Y8564170D1*
X3004803Y8579323D1*
X2986573Y8597553D1*
X2984670Y8599967D1*
X2964197Y8579323D1*
X2943340Y8564170D1*
X2920370Y8552467D1*
X2895853Y8544500D1*
X2870390Y8540467D1*
X2844610D1*
X2819147Y8544500D1*
X2794630Y8552467D1*
X2771660Y8564170D1*
X2750803Y8579323D1*
X2732573Y8597553D1*
X2730670Y8599967D1*
X2710197Y8579323D1*
X2707783Y8577420D1*
X2707790Y8556867D1*
X2773727Y8491013D1*
X3512803Y8491040D1*
X3569457Y8547693D1*
X2006210Y5857360D2*
Y6890223D1*
X1998123Y6903633D1*
X1991560Y6919477D1*
X1987557Y6936153D1*
X1986210Y6953250D1*
X1987557Y6970347D1*
X1991560Y6987023D1*
X1998123Y7002867D1*
X2007083Y7017490D1*
X2018220Y7030530D1*
X2031260Y7041667D1*
X2045883Y7050627D1*
X2061727Y7057190D1*
X2078403Y7061193D1*
X2095500Y7062540D1*
X2112597Y7061193D1*
X2129273Y7057190D1*
X2145117Y7050627D1*
X2159740Y7041667D1*
X2172780Y7030530D1*
X2183917Y7017490D1*
X2192877Y7002867D1*
X2199440Y6987023D1*
X2203443Y6970347D1*
X2204790Y6953250D1*
X2203443Y6936153D1*
X2199440Y6919477D1*
X2192877Y6903633D1*
X2184793Y6890320D1*
X2184790Y5857403D1*
X2192877Y5843993D1*
X2199440Y5828150D1*
X2203443Y5811473D1*
X2204790Y5794377D1*
X2203443Y5777280D1*
X2199440Y5760603D1*
X2192877Y5744760D1*
X2183917Y5730137D1*
X2172780Y5717097D1*
X2159740Y5705960D1*
X2145117Y5697000D1*
X2129273Y5690437D1*
X2112597Y5686433D1*
X2095500Y5685087D1*
X2078403Y5686433D1*
X2061727Y5690437D1*
X2045883Y5697000D1*
X2031260Y5705960D1*
X2018220Y5717097D1*
X2007083Y5730137D1*
X1998123Y5744760D1*
X1991560Y5760603D1*
X1987557Y5777280D1*
X1986210Y5794377D1*
X1987557Y5811473D1*
X1991560Y5828150D1*
X1998123Y5843993D1*
X2006207Y5857307D1*
X1752210Y6111360D2*
Y6874430D1*
X1744123Y6887760D1*
X1737560Y6903603D1*
X1733557Y6920280D1*
X1732210Y6937377D1*
X1733557Y6954473D1*
X1737560Y6971150D1*
X1744123Y6986993D1*
X1753083Y7001617D1*
X1764220Y7014657D1*
X1777260Y7025793D1*
X1791883Y7034753D1*
X1807727Y7041317D1*
X1824403Y7045320D1*
X1841500Y7046667D1*
X1858597Y7045320D1*
X1875273Y7041317D1*
X1891117Y7034753D1*
X1905740Y7025793D1*
X1918780Y7014657D1*
X1929917Y7001617D1*
X1938877Y6986993D1*
X1945440Y6971150D1*
X1949443Y6954473D1*
X1950790Y6937377D1*
X1949443Y6920280D1*
X1945440Y6903603D1*
X1938877Y6887760D1*
X1930793Y6874447D1*
X1930790Y6111323D1*
X1938877Y6097993D1*
X1945440Y6082150D1*
X1949443Y6065473D1*
X1950790Y6048377D1*
X1949443Y6031280D1*
X1945440Y6014603D1*
X1938877Y5998760D1*
X1929917Y5984137D1*
X1918780Y5971097D1*
X1905740Y5959960D1*
X1891117Y5951000D1*
X1875273Y5944437D1*
X1858597Y5940433D1*
X1841500Y5939087D1*
X1824403Y5940433D1*
X1807727Y5944437D1*
X1791883Y5951000D1*
X1777260Y5959960D1*
X1764220Y5971097D1*
X1753083Y5984137D1*
X1744123Y5998760D1*
X1737560Y6014603D1*
X1733557Y6031280D1*
X1732210Y6048377D1*
X1733557Y6065473D1*
X1737560Y6082150D1*
X1744123Y6097993D1*
X1752207Y6111307D1*
X1498210Y6031983D2*
Y6874350D1*
X1490123Y6887760D1*
X1483560Y6903603D1*
X1479557Y6920280D1*
X1478210Y6937377D1*
X1479557Y6954473D1*
X1483560Y6971150D1*
X1490123Y6986993D1*
X1499083Y7001617D1*
X1510220Y7014657D1*
X1523260Y7025793D1*
X1537883Y7034753D1*
X1553727Y7041317D1*
X1570403Y7045320D1*
X1587500Y7046667D1*
X1604597Y7045320D1*
X1621273Y7041317D1*
X1637117Y7034753D1*
X1651740Y7025793D1*
X1664780Y7014657D1*
X1675917Y7001617D1*
X1684877Y6986993D1*
X1691440Y6971150D1*
X1695443Y6954473D1*
X1696790Y6937377D1*
X1695443Y6920280D1*
X1691440Y6903603D1*
X1684877Y6887760D1*
X1676793Y6874447D1*
X1676790Y6032027D1*
X1684877Y6018617D1*
X1691440Y6002773D1*
X1695443Y5986097D1*
X1696790Y5969000D1*
X1695443Y5951903D1*
X1691440Y5935227D1*
X1684877Y5919383D1*
X1675917Y5904760D1*
X1664780Y5891720D1*
X1651740Y5880583D1*
X1637117Y5871623D1*
X1621273Y5865060D1*
X1604597Y5861057D1*
X1587500Y5859710D1*
X1570403Y5861057D1*
X1553727Y5865060D1*
X1537883Y5871623D1*
X1523260Y5880583D1*
X1510220Y5891720D1*
X1499083Y5904760D1*
X1490123Y5919383D1*
X1483560Y5935227D1*
X1479557Y5951903D1*
X1478210Y5969000D1*
X1479557Y5986097D1*
X1483560Y6002773D1*
X1490123Y6018617D1*
X1498207Y6031930D1*
X1745180Y5083547D2*
X3885817Y7224183D1*
X3890290Y7237027D1*
X3898790Y7253707D1*
X3909790Y7268850D1*
X3923027Y7282087D1*
X3938170Y7293087D1*
X3954850Y7301587D1*
X3972653Y7307370D1*
X3991140Y7310300D1*
X4009860D1*
X4028347Y7307370D1*
X4046150Y7301587D1*
X4062830Y7293087D1*
X4077973Y7282087D1*
X4091210Y7268850D1*
X4102210Y7253707D1*
X4110710Y7237027D1*
X4116493Y7219223D1*
X4119423Y7200737D1*
Y7182017D1*
X4116493Y7163530D1*
X4110710Y7145727D1*
X4102210Y7129047D1*
X4091210Y7113903D1*
X4077973Y7100667D1*
X4062830Y7089667D1*
X4046150Y7081167D1*
X4033453Y7076823D1*
X1892683Y4936070D1*
X1888210Y4923227D1*
X1879710Y4906547D1*
X1868710Y4891403D1*
X1855473Y4878167D1*
X1840330Y4867167D1*
X1823650Y4858667D1*
X1805847Y4852883D1*
X1787360Y4849953D1*
X1768640D1*
X1750153Y4852883D1*
X1732350Y4858667D1*
X1715670Y4867167D1*
X1700527Y4878167D1*
X1687290Y4891403D1*
X1676290Y4906547D1*
X1667790Y4923227D1*
X1662007Y4941030D1*
X1659077Y4959517D1*
Y4978237D1*
X1662007Y4996723D1*
X1667790Y5014527D1*
X1676290Y5031207D1*
X1687290Y5046350D1*
X1700527Y5059587D1*
X1715670Y5070587D1*
X1732350Y5079087D1*
X1745047Y5083430D1*
X2642070Y1291677D2*
X2636163Y1303727D1*
X2630380Y1321530D1*
X2627450Y1340017D1*
Y1358737D1*
Y1340017D1*
X2630380Y1321530D1*
X2636163Y1303727D1*
X2642070Y1291677D1*
X4025960Y244417D2*
D17*
X4127500Y142877D1*
X4229040Y244417D2*
X4127500Y142877D1*
X3549040Y244417D2*
X3447500Y142877D1*
X3016250Y4493200D2*
Y4354000D1*
Y3624250D2*
Y3485050D1*
X2556373Y1657327D2*
Y1358927D1*
X3079250Y3052750D2*
Y2903550D1*
X5206500Y3403573D2*
Y3105177D1*
X4127500Y1238750D2*
Y1099550D1*
X3286127Y258627D2*
Y129427D1*
X952000Y1228700D2*
Y930300D1*
X3254873Y9388450D2*
Y9090050D1*
X1016000Y4259750D2*
Y4120550D1*
X6254750Y1116000D2*
X6403977Y966773D1*
Y1265223D2*
X6254750Y1116000D1*
X1651000Y354000D2*
X1765340Y239660D1*
Y468340D2*
X1536660Y239660D1*
X434250Y1951750D2*
X645250Y1740750D1*
Y1951750D2*
X434250Y1740750D1*
X666750Y2444750D2*
Y2315550D1*
X2667000Y3624250D2*
Y3502550D1*
X380250Y3190250D2*
Y3011050D1*
Y3989447D2*
Y3810250D1*
X145250Y3090250D2*
Y2936050D1*
Y4064447D2*
Y3910250D1*
X4032250Y4396323D2*
Y4302123D1*
X4252250Y4172123D2*
Y4077923D1*
X6237430Y2784320D2*
X6350000Y2671750D1*
X4265393Y8820357D2*
X4497607Y8588143D1*
Y8820357D2*
X4265393Y8588143D1*
X3735607Y8820357D2*
X3503393Y8588143D1*
D95*
X4127500Y142877D3*
Y592877D3*
D98*
X3447500D3*
Y142877D3*
D19*
X3016250Y4164000D3*
Y4354000D3*
Y3814250D3*
Y3624250D3*
D20*
X2746373Y1508127D3*
X2556373D3*
X2889250Y3052750D3*
X3079250D3*
X5016500Y3254377D3*
X5206500D3*
D19*
X4127500Y1428750D3*
Y1238750D3*
D21*
X3286127Y428627D3*
Y258627D3*
D20*
X762000Y1079500D3*
X952000D3*
X3444873Y9239250D3*
X3254873D3*
D19*
X4635500Y9212250D3*
Y9402250D3*
X4889500Y9212250D3*
Y9402250D3*
X5143500Y9212250D3*
Y9402250D3*
X5397500Y9212250D3*
Y9402250D3*
X5651500Y9212250D3*
Y9402250D3*
X5905500Y9212250D3*
Y9402250D3*
X1016000Y4449750D3*
Y4259750D3*
D20*
X1397500Y3179750D3*
X1587500D3*
D23*
X6000750Y1116000D3*
Y862000D3*
Y608000D3*
Y354000D3*
X6254750D3*
Y608000D3*
Y862000D3*
D24*
Y1116000D3*
D25*
X1333500Y3571877D3*
Y3961877D3*
D26*
X1397000Y2894000D3*
D27*
Y2640000D3*
Y2386000D3*
Y2132000D3*
Y1878000D3*
Y1624000D3*
Y1370000D3*
Y1116000D3*
Y862000D3*
Y608000D3*
Y354000D3*
X1651000D3*
Y608000D3*
Y862000D3*
Y1116000D3*
Y1370000D3*
Y1624000D3*
Y1878000D3*
Y2132000D3*
Y2386000D3*
Y2640000D3*
Y2894000D3*
D26*
X5365750D3*
D27*
Y2640000D3*
Y2386000D3*
Y2132000D3*
Y1878000D3*
Y1624000D3*
Y1370000D3*
Y1116000D3*
Y862000D3*
Y608000D3*
Y354000D3*
X5619750D3*
Y608000D3*
Y862000D3*
Y1116000D3*
Y1370000D3*
Y1624000D3*
Y1878000D3*
Y2132000D3*
Y2386000D3*
Y2640000D3*
Y2894000D3*
D24*
X539750Y1084250D3*
D23*
Y1338250D3*
Y1592250D3*
Y1846250D3*
D21*
X666750Y2444750D3*
Y2614750D3*
D30*
X2667000Y3624250D3*
Y3854250D3*
Y4084250D3*
D31*
X2087000Y3854250D3*
D33*
X412750Y3370250D3*
Y3435250D3*
Y3500250D3*
Y3565250D3*
Y3630250D3*
D34*
X380250Y3190250D3*
Y3810250D3*
D35*
X145250Y3090250D3*
Y3910250D3*
D36*
Y3415250D3*
Y3585250D3*
D38*
X4032250Y4302123D3*
Y4237123D3*
Y4172123D3*
X4252250D3*
Y4237123D3*
Y4302123D3*
X4572000Y4286250D3*
Y4221250D3*
Y4156250D3*
X4792000D3*
Y4221250D3*
Y4286250D3*
D21*
X444500Y2608250D3*
Y2438250D3*
X4318000Y3905250D3*
Y3735250D3*
X4667250Y4000500D3*
Y3830500D3*
X3651250Y4222750D3*
Y4052750D3*
X381000Y555627D3*
Y725627D3*
X603250Y735000D3*
Y565000D3*
X5397500Y4291000D3*
Y4461000D3*
X5651500Y4291000D3*
Y4461000D3*
X5905500Y4291000D3*
Y4461000D3*
D40*
X2952750Y2386000D3*
Y2336000D3*
Y2286000D3*
Y2236000D3*
Y2186000D3*
Y2136000D3*
Y2086000D3*
Y2036000D3*
Y1986000D3*
Y1936000D3*
Y1886000D3*
Y1836000D3*
Y1786000D3*
Y1736000D3*
Y1686000D3*
Y1636000D3*
D41*
X3147750Y1441000D3*
X3197750D3*
X3247750D3*
X3297750D3*
X3347750D3*
X3397750D3*
X3447750D3*
X3497750D3*
X3547750D3*
X3597750D3*
X3647750D3*
X3697750D3*
X3747750D3*
X3797750D3*
X3847750D3*
X3897750D3*
D40*
X4092750Y1636000D3*
Y1686000D3*
Y1736000D3*
Y1786000D3*
Y1836000D3*
Y1886000D3*
Y1936000D3*
Y1986000D3*
Y2036000D3*
Y2086000D3*
Y2136000D3*
Y2186000D3*
Y2236000D3*
Y2286000D3*
Y2336000D3*
Y2386000D3*
D41*
X3897750Y2581000D3*
X3847750D3*
X3797750D3*
X3747750D3*
X3697750D3*
X3647750D3*
X3597750D3*
X3547750D3*
X3497750D3*
X3447750D3*
X3397750D3*
X3347750D3*
X3297750D3*
X3247750D3*
X3197750D3*
X3147750D3*
D42*
X6350000Y2163750D3*
D43*
Y2417750D3*
Y2671750D3*
Y2925750D3*
Y3179750D3*
Y3433750D3*
D44*
X571500Y4894250D3*
X825500D3*
X1079500D3*
X5397500D3*
X5651500D3*
X5905500D3*
Y8704250D3*
X5651500D3*
X5397500D3*
X5143500D3*
X4889500D3*
X4635500D3*
X4381500D3*
X4127500D3*
X3873500D3*
X3619500D3*
X3365500D3*
X3111500D3*
X2857500D3*
X2603500D3*
X2349500D3*
X2095500D3*
X1841500D3*
X1587500D3*
X1333500D3*
X1079500D3*
X825500D3*
X571500D3*
M02*
