M48
METRIC,0000.00
T01C0.305
T02C0.35
T03C0.4
T04C0.9
T05C1.0
T06C1.1
T07C1.14
%
T01
X+004254Y+000587
X+003921Y+003635
T02
X+003826Y+004397
X+003953Y+004000
X+004048Y+003731
X+004112Y+003572
X+004493Y+003826
X+004254Y+004096
X+004572Y+004350
X+005525Y+004270
X+005429Y+003334
X+006144Y+002810
X+006398Y+001492
X+004461Y+002000
X+004350Y+002095
X+004143Y+002461
X+003985Y+002619
X+003874Y+002302
X+003921Y+002186
X+003778Y+002191
X+003766Y+002036
X+003651Y+001841
X+003492Y+001699
X+003398Y+001746
X+003286Y+001635
X+003175Y+002000
X+002953Y+001318
X+003048Y+001127
X+003286Y+001111
X+003381Y+001000
X+003524Y+000873
X+003698Y+000920
X+003937Y+001238
X+004286Y+000968
X+004064Y+000746
X+003429Y+001238
X+003223Y+000095
X+001841Y+000286
X+001222Y+000190
X+001048Y+000238
X+000778Y+000699
X+001079Y+001270
X+000540Y+002032
X+000159Y+002778
X+002223Y+001667
X+002667Y+003381
X+003016Y+003445
X+003254Y+003127
X+003619Y+003604
X+002096Y+005794
X+001841Y+006048
X+001588Y+005969
X+001588Y+006937
X+001841Y+006937
X+002096Y+006953
T03
X+001016Y+004032
X+000683Y+003715
X+000444Y+002794
X+001821Y+003180
X+001794Y+003413
X+001778Y+003921
X+001778Y+004969
X+003016Y+004524
X+002746Y+002683
X+002746Y+001349
X+004294Y+002215
X+004000Y+007191
X+004381Y+008493
X+004000Y+009239
X+004417Y+009402
X+003619Y+008874
X+003032Y+009239
X+006132Y+009402
T04
X+004127Y+000143
X+004127Y+000593
X+003448Y+000593
X+003448Y+000143
T05
X+006001Y+001116
X+006001Y+000862
X+006001Y+000608
X+006001Y+000354
X+006255Y+000354
X+006255Y+000608
X+006255Y+000862
X+006255Y+001116
X+005905Y+004894
X+005651Y+004894
X+005398Y+004894
X+005398Y+008704
X+005651Y+008704
X+005905Y+008704
X+005143Y+008704
X+004889Y+008704
X+004636Y+008704
X+004381Y+008704
X+004127Y+008704
X+003874Y+008704
X+003619Y+008704
X+003365Y+008704
X+003112Y+008704
X+002858Y+008704
X+002603Y+008704
X+002350Y+008704
X+002096Y+008704
X+001841Y+008704
X+001588Y+008704
X+001334Y+008704
X+001079Y+008704
X+000825Y+008704
X+000572Y+008704
X+000572Y+004894
X+000825Y+004894
X+001079Y+004894
X+000540Y+001846
X+000540Y+001592
X+000540Y+001338
X+000540Y+001084
T06
X+006350Y+002164
X+006350Y+002418
X+006350Y+002672
X+006350Y+002926
X+006350Y+003180
X+006350Y+003434
T07
X+001397Y+002894
X+001651Y+002894
X+001651Y+002640
X+001651Y+002386
X+001651Y+002132
X+001397Y+002132
X+001397Y+002386
X+001397Y+002640
X+001397Y+001878
X+001651Y+001878
X+001651Y+001624
X+001651Y+001370
X+001397Y+001370
X+001397Y+001624
X+001397Y+001116
X+001397Y+000862
X+001397Y+000608
X+001651Y+000608
X+001651Y+000862
X+001651Y+001116
X+001651Y+000354
X+001397Y+000354
X+005366Y+000354
X+005620Y+000354
X+005620Y+000608
X+005366Y+000608
X+005366Y+000862
X+005366Y+001116
X+005620Y+001116
X+005620Y+000862
X+005620Y+001370
X+005366Y+001370
X+005366Y+001624
X+005366Y+001878
X+005620Y+001878
X+005620Y+001624
X+005620Y+002132
X+005366Y+002132
X+005366Y+002386
X+005366Y+002640
X+005620Y+002640
X+005620Y+002386
X+005620Y+002894
X+005366Y+002894
T00
M30
