G04 DipTrace 3.3.1.3*
G04 ViktorJager_MessageDisplay.GBS*
%MOMM*%
G04 #@! TF.FileFunction,Soldermask,Bot*
G04 #@! TF.Part,Single*
%AMOUTLINE1*
4,1,8,
0.7929,0.32842,
0.7929,-0.32842,
0.32842,-0.7929,
-0.32842,-0.7929,
-0.7929,-0.32842,
-0.7929,0.32842,
-0.32842,0.7929,
0.32842,0.7929,
0.7929,0.32842,
0*%
%AMOUTLINE4*
4,1,8,
-0.7929,-0.32842,
-0.7929,0.32842,
-0.32842,0.7929,
0.32842,0.7929,
0.7929,0.32842,
0.7929,-0.32842,
0.32842,-0.7929,
-0.32842,-0.7929,
-0.7929,-0.32842,
0*%
%ADD42R,1.7X1.7*%
%ADD43C,1.7*%
%ADD55C,2.0*%
%ADD57C,1.9*%
%ADD58R,1.9X1.9*%
%ADD77C,1.95*%
%ADD79R,1.95X1.95*%
%ADD96OUTLINE1*%
%ADD99OUTLINE4*%
%FSLAX35Y35*%
G04*
G71*
G90*
G75*
G01*
G04 BotMask*
%LPD*%
D96*
X4127500Y142877D3*
Y592877D3*
D99*
X3447500D3*
Y142877D3*
D43*
X6000750Y1116000D3*
Y862000D3*
Y608000D3*
Y354000D3*
X6254750D3*
Y608000D3*
Y862000D3*
D42*
Y1116000D3*
D79*
X1397000Y2894000D3*
D77*
Y2640000D3*
Y2386000D3*
Y2132000D3*
Y1878000D3*
Y1624000D3*
Y1370000D3*
Y1116000D3*
Y862000D3*
Y608000D3*
Y354000D3*
X1651000D3*
Y608000D3*
Y862000D3*
Y1116000D3*
Y1370000D3*
Y1624000D3*
Y1878000D3*
Y2132000D3*
Y2386000D3*
Y2640000D3*
Y2894000D3*
D79*
X5365750D3*
D77*
Y2640000D3*
Y2386000D3*
Y2132000D3*
Y1878000D3*
Y1624000D3*
Y1370000D3*
Y1116000D3*
Y862000D3*
Y608000D3*
Y354000D3*
X5619750D3*
Y608000D3*
Y862000D3*
Y1116000D3*
Y1370000D3*
Y1624000D3*
Y1878000D3*
Y2132000D3*
Y2386000D3*
Y2640000D3*
Y2894000D3*
D42*
X539750Y1084250D3*
D43*
Y1338250D3*
Y1592250D3*
Y1846250D3*
D58*
X6350000Y2163750D3*
D57*
Y2417750D3*
Y2671750D3*
Y2925750D3*
Y3179750D3*
Y3433750D3*
D55*
X571500Y4894250D3*
X825500D3*
X1079500D3*
X5397500D3*
X5651500D3*
X5905500D3*
Y8704250D3*
X5651500D3*
X5397500D3*
X5143500D3*
X4889500D3*
X4635500D3*
X4381500D3*
X4127500D3*
X3873500D3*
X3619500D3*
X3365500D3*
X3111500D3*
X2857500D3*
X2603500D3*
X2349500D3*
X2095500D3*
X1841500D3*
X1587500D3*
X1333500D3*
X1079500D3*
X825500D3*
X571500D3*
M02*
